<mxfile host="65bd71144e">
    <diagram id="FRKdpZuoeC-uZpqquMgQ" name="Page-1">
        <mxGraphModel dx="1804" dy="1023" grid="1" gridSize="10" guides="1" tooltips="1" connect="1" arrows="1" fold="1" page="0" pageScale="1" pageWidth="850" pageHeight="1100" math="0" shadow="0">
            <root>
                <mxCell id="0"/>
                <mxCell id="1" parent="0"/>
                <mxCell id="2" value="" style="shape=image;verticalLabelPosition=bottom;labelBackgroundColor=default;verticalAlign=top;aspect=fixed;imageAspect=0;image=data:image/png,iVBORw0KGgoAAAANSUhEUgAABO8AAAHQCAYAAAD58k73AAAAAXNSR0IArs4c6QAAAARnQU1BAACxjwv8YQUAAAAJcEhZcwAADsMAAA7DAcdvqGQAAP+lSURBVHhe7P0NsG1nXef7zihBAxowwQaUl5aXiHZDLORcgg1ciafgVsPpprvBOuI5hFviQbhVKg3nlHIauoW+QrXQIMdDpBu9gLfRgtgNfcC6xkOwGjShCmgSPAqJSEtiAy2JDYZECJg7P2Ov386TwZxzrbX3XmvNvfP7rho1xxjP2//5P//n/7yMMdc86/Yli1JKKaWUUkoppZRyl+BrX/va4stf/vLOVdl2vmHns5RSSimllFJKKaWUsmV0866UUkoppZRSSimllC2lm3ellFJKKaWUUkoppWwp3bwrpZRSSimllFJKKWVL6eZdKaWUUkoppZRSSilbSjfvSimllFJKKaWUUkrZUrp5V0oppZRSSimllFLKltLNu1JKKaWUUkoppZRStpRu3pVSSimllFJKKaWUsqV0866UUkoppZRSSimllC2lm3ellFJKKaWUUkoppWwp3bwrpZRSSimllFJKKWVL6eZdKaWUUkoppZRSSilbSjfvSimllFJKKaWUUkrZUrp5V0oppZRSSimllFLKltLNu1JKKaWUUkoppZRStpRu3pVSSimllFJKKaWUsqV0866UUkoppZRSSimllC2lm3ellFJKKaWUUkoppWwp3bwrpZRSSimllFJKKWVL6eZdKaWUUkoppZRSSilbSjfvSimllFJKKaWUUkrZUrp5V0oppZRSSimllFLKltLNu1JKKaWUUkoppZRStpRu3pVSSimllFJKKaWUsqVszebdP/3t/7r40bf9+eJzf/m1nTt3TejgRf/HTTtX5UR4w+//ZW2plFJKKaWUUkopZwRbs3l385f/upstS+jgs9XDSVFbKqWUUkoppZSyzfzmx26ZXjr55I1f3blTynq2ZvPuofc5e3Hh/e++uOfd79rf5KWD71se5cS5/7d+Y23pDMAgdroPZOS/+jNf2bkq5eCorZVSyplF/PrNX759504p5UzjSzsvndz8lb/euVPKerZn8+78uy3u963fuHN1evHbn7h1cfV/PjWLJpuY9/yms3auyonwN5Z2dLraUjmG/vSP/4+bFs+77PNrN/A8qTrZfqfv/sL7vjB9HgQv++2/WLzo3/dr8OVgMeHTX9jav/3Yl3bulrsyX1ou9t/64ZunfyPRN9HvOoztfro//CqLxRt+74uTX//SFi/q2Zt51OmG+SO5T9X6rWw//OIbfv+LO1fbw8POv9viKRecs/iWvnRS9sBZty/ZOT9Ufu8/fXnx+5/6q52rxeKjn/nKNMH8N8/69sV9T7ONl//2jZ+dZNbxwj985D0X37LLJpxJ1m/+wZcWn/viHRPr3/vTLy/uefezJj2UvWHgvXzYfDmdbancgQnhWz908+LJy35lM3bsU75a/j+87c+nTf+/8ze/ebqHZz/mW3bOdofd/NPf/ovFzz3l2xb/9PL/unjNf3felN+pJP978f983v127pRyDAtrm8aeuI78wN/8psXf+a47bHqvfPLzX1087zc/P/WHqV8s8zjV9lxOHyxQPvuXfz0tCry5w7+VMx8+xXzoKd99zmQD7/x/3ncnZDuYz9fC83/g3F3nzHdFbNzpv9syn7Vu+f9de+viTz5/286dO+bc2z7PmdveZ2/+2nTvf/nBey2evOwvd0XO5P64zWvsdXr/H5drmP28fKKOHt6erG/42te+tvjyl7+8c3VwfOxzX12895N3+I7w4//NNy/ueXb9/145ki1ei4x/e82XpgV4jvt9y+n7Vcdnf/+ysy3l1xlz7IXf+09/tbj6z75yJz089Ly79Wuz+4DObPCMOjydbakcg4+wCDEgmbj+9nKyOD55PraZd4/pKdV++1146H3utrjnN33DtMAxmN93aTenmoedd+zfAZQyh31/crkAGn2X40tf2f/zNOledvlfTP3lj2+8beovfdvqrs3Dzj978ckdW3jo8rzcNTA2fu7mry1+82NfOqGHAAcJPzWfr+Uoq9m2fylko86LF2PbZc697cxtb7Ecasl9V/2mDh2cyf1xm9fY6/S+3/mfb1z8i989Pd56/dzNf7349au/vPgvy8/5UfbHkbx5N+4UO//jm47twp5ui1yyf/Qzx3aq7/etd7vTWw6po82FfA02i6nskK/Sg0Ew4Wcicx1gNz2OepnrdZUOMdrSPE3ueepmoWvgtsky/7qyOJHrW77pG77OPud53PxXf734/f/05enNme/7jm86ntYiat6m3rpJujO9zfdD2nDUydxmXNMd5vYSxDHJ/Ja7n/V1+k+73rwcJOf6H9t8nm6VHIhdza8xTzO2+9yehLFT8shjbrPlzGO0N7Zssukp8f/8pHtNYXMbmNtT2ORPNtlcOfNgI/GPbMfGXd6gEMYvsoVxzNuLre3FN+7FVg+TUeZxDN+tT5yO/Wle1/kYGpsY225Tu+femO/JzHPFwXhurHe+3zwPm1X2QE7zv8/+5Vf3ND8cw4Wt60vYLXxszxNpkzDWa+4P3J/ymdVtVV6H3T6b9LOuf27Sy3hvWyDvpjXKXOer6reKMR7G85Ppj+6tsknp17XVXvPGpnZdl/86HWGe/0ExyjCvb65XhSXdJt2I//T/z3+ZXiDKt45W+aoR5azySwf15t2XblvW68vLei39CMbzP7npa9Pbdg857w4Zx/h5E8/DKIwvWIj3sc8es7e/cc9vPJ7HeP+7vu1uyzTHysJe8z4dOJLNO28c/MLvfmHxP//gvRZvuPIvl8Z0rDPp7G98xn2m89OBfCUu/MNH3WPxgsedO53/i/d9YXH5tbfeqVMl/mv+3nlThxHn95eLNa9r/9uP3TLFgfjSnWl4quCrjpxJXln2f8sunf3/AXbwmv/u/GUHO2vxvMtuXDqjYx2R3j67XNiyHV9RtsDdiy15wuErmEmDv//m/3I8bhhfndceb1mmGeOQ+43/6D6TXJzmj77t81+Xhze53viPzl/809/+r8flxgt+4Funr31qf09KRrsZ9XFXxqDjf9yBruhsbjNpy5HRXvCipX7nb+GlT7n/ssv/69e168uf8m1TPvM+nXabyyEf5bj2dTSDYL7eMtqRr9RDGrY6yn7hd9z9+FfZRpl9TVjYaOflzGOV70NsP7Y+jiGxsYwhJmLeuJvbe+x23l9GmytnHqv8ozb/uSd/2zQe8TOB7/qXS1vwuZf5SnxZGOcpu/k+ZRw2q3RBPrLM9ZBx/XTtT6t8SdrXBN/YFTzQes3fO38a71KfcZyZt+XJznNThji+0u+r/WT4ueWYm3YYx/DkOdpS8jwKWxrH5kCOtyzrRc4w6oWs/9Nv3vh184z0t3Fei9gXfBNgXA9g7Gur7Jqe6AujvteNG+RbNQ+9ZJlGXmmDMJaffp2vyGZuhMP42uyq+kf3mZcFdUrfXmVXq/zWNrBufTHKOW+H1H03nzTah7y03cn2x1VtkvjzcWPsJydjq5mzJ35YN2dHdDTeO2jGdsq/NvE2rXVi+vo7n3Pf4+MzH/lzT7n3Stucj6mpT3Q19ysYfYs1Fl2uWv/8zXufdSCbd2+7+q8Wv3HNVxb//aPuvvihh9598eP/7ubpm07/7yffY/HT7z72/5kfct43LK/vOW2ovfb3blm870++uvipH/jmKT6k8dbem/7htyz+xj2/YZnfl5f53lnWxP97v3bncfDvf883LX7sMd80nY+yPOvCY2+lv+TyLy3+4HNfm8p/5H1Pnw28O7YkjwCL07/z4G+aFqtgWGMn3HYy4XnB9L8BvmHxb6+5Zd//LNzbPzrvP/zb9zyuBw7trvLLUrZbOG4DhwHHWwLswKYmnr90PNGLifU62NLDzrvbnm1JXO2m/ZKGI6V3A6dzDo7TE4eDM3j82z841r7iefVaGLl9hRP+v5CNHP9vRp2St8k1bODI5weWDlo6cdhRWSz+eOd/qNBNJopz9JfYi0FNu2jrtAv9GtDc1zbJR5+id0+xnvLwY/1WHgZK9/2wBP7Rsr3Hdvvta+/4v5xBfK+p26jVhtp7L7AN5ZIb5JSXSYZzKDuTmHJmM/d9bBYm33vlA0s/Odp7/FDGkHU2V85cYlPGN3ahzflHfsq92Bo78KbnXpHv3Kdu83wti8n0L3Wng+jBffM2esh8Y96fxrpuc38afUnGRXKRGwkzvzKGGif3yqmY5wb/qoJsZJBXbHQcw7cJ/5s79hA7Mlf3FdbvW/rpSS+P+9YpLr1k3m7DY5w/Zp6Rr7etmx8qz3og9qct6Wne19IXoz//O2u+ebIJD6bJY/ODHMYN1+a98HVr91O32NFRoy1ST3WPfuiefsa+TS/qlL59OjH5muUaRRuzufka5VRBX/SkP3IiynO9n/5ovbTO10J/ia2mrdj5XtGXtKN1gfzTl2KrNrZiw0hf2kbue+6xLZfPffGr0+fV//nYmoeN0jn0yb2S8fuh5x37txjS0vPUBkPfjc1Y56zyS4fVv70F5/DV4C8t3dlP/cA5i7+xvP6Tm/568a4/3JtNSJuNu5f8389Z/PyT77n4se//pmU+x+zt733P3ad83bvH2Wct3vVHX15c9ek7b2ieCRzp5h0n8b8sDcgR5zT+Y8ltxyLbxIbT+Id/+5jjSGfcD+r+gr/zrZMeODds8y9LnUrojh5Nig0eJnewoYGHLyebBmUbJQ/Z4NTYkqcPe7UlcZWt/aTx1MIAloHeNQxMf+fBd2wmeXICA5OnI49fhmkzT1IQueX9d/7mN33dRkza19ORP146a/XuZs2doROvMq9aIHiKRF90a9A2UCGLkfwDWE+Qta24+X9PXhVnX/qaMHn8z086NqEwgDnSbibX8Ir1iIEvTwE9rRyfTu/GDywnxMolN3sNmUBBeRZi5cxn7vuyaef/4O0VixnE3vUHtsSX6UOrbE4/KGcm7Cn+cbKvnXHLYkn7u8fOhGM/C0H5xqfKB7/3qVP/pP5UkbHWAsc4TuZHLesePdDBDzz4mB5C+tM/Woanrtnw2ub+NLX1TruTLZuL6m58SVjafXzzYjfS7so4mXluiAxX/+cvH5N7NrfaJozxoK/o0vzBG0n0POnlUcfeakHm7dloUzdxPITGbvND+bO3qX2WXVMZsdHMZ6UZ28QDR8R290K+TqePGH8yj5rsfCljbGWs2xw+xTdYxD8sprn2Uj/axds7o378b7Oxb2cOvwpvju1nA/uwYQfWKNqYv7ZGiR861ZuR6Y/mHcobx4y9MvpacxltwNci8233nnzBsbedxh+r3I38b2o9ka2mL8XezdUnW93pB6vQ1s/7zRt3ro4OLw+wUe1os846UN3Uxdfv8bCdteRe4DOtPfkjsBO6nvzIt7vv3+/YKPvrKW7WLdZRaRPk686Hwf/tgcfW8b7a+kMPPXvx3O8/Zn8fvH5vfkS/tymHD97w1aWbvH3x97/3m46/Nffcx3gD7+zp3g897Jgur1rGO9M40s27h+0sqs8EMpEzSdwvnuAFhnlXwmaLCYDB1GvC81/f8SR8mkwsB2gOaR37sSWDktePc+D4RHxybt8wPXnkVOcL6bQvmbyu/Pff/Lnpq557/Zn8YwPYOVN6X3NR7zdc+fVfnbur4wmRn3Sfv9lhEE67sZV1T6nue+4dtpIJeEh6bTb9P4md8L0swgyEkz0OT6zmMp4IJuAGWm+Q7mcSXk5fdvN9+8H/qjn2Vf2vTgsznMhYVE5vRv+YN1EwfwjB750M/qcR9rMJdNh4+8C4rl/pG/pZ3m7YDWOBNOYKGT+2uT8ZM9Lu6nvHfPTUvaWDk5nnBmMnsjlw3Ea3UL82Tmxm0CO9siF2sddNbw/38lXEvWA+Y7NCedesmVc8fTlmjG2dOVA2BveCDQ8+wAPk/TwsGtEv9P+xfvup64mgrjZq6Mf/lz5R1H2aa+3o2BuR5nPbBFvTxtHpurnuybKuP+4VuvRvi+JrzWXIvkqfeZC+H780zY2XtpZfND4RzK3ZeXQpn72u2U412VT+vZ0NTPZ8rG7H/F987F5gv+MmtbcRn/Xrf358TjmO+/Gv1rVHyeMeeMwGfFUV2XjcDz/9A988vbHnV2v/18tvmb5W+6mbvt42HvJtx3R5Jv4gxpG24nxRfTqzl1+IOZFfETyT4UwMmiYAJkg/59Xnv33npyfZyNhtQNmPLcWhcXom+EjbxJF4DZxcZFrlXHztgGx5lfvlT7n3TsjueDry/33Wt08beQaV/b5Gfqbj6Z3B1UBvMjBiMp03K5HBPE/+wqa3LvM6eTje9ntc0Hrq7a3LPLXyxHcVe51o6AfHvg7x19P/afQ0uZzZ7MX3hXGi+8mbvrpzdmf4kP0s3sqZyfRW3YO//hdG5/5xL2yar+QtgXULgRNdZJ1KLHb9byB9y1hCpnxtcTfSn771NJmj2vAZx8X8i5ETmWNveoh1Kua5ZGWP5k82wbKhum785SuP0p6M9+Zr+Tqy+clev1Jonjj908E9QifThtx9zp42RFaR+Su7Nv8Mm/r4fNyYNu1uvG361y/eJj0R+JpjX5G8Yz6VOdFBcsdXNPc+554jLf1lo8RbW9vya74hb8+GdXPdbCSvGv+lybGOdf0xDwFDNn8wz88GFF+bPiJ8la9NurlfGvO7eeY/PJAS/o/+9h1v8+0X8rHV2CcZj2qenbWsX4HXh7wBp355+22+SbvOH2dtnJd/6MlX7uk2X7ceNwLjX4/6gdt3fds3TG/O2bzzAxKfvPFY/e45a9rRDvy/u5GLHnT24k3/4Fumr8d+13nfMIX/6w99/duc+TGK/DhF+C9f2odT3lK2y1udZugsHJ1O5Gf5oSMiGz46qME+i/NyDJPLDDqcjQkSBzvfKMs1B8bB5UnZyTw9eNjO0x+TF450dJwXfsexV3jTVus2DbM59P/YeWX7IXt884+9eKPMBNcTpTjqz+0shsoxHVmImGBlgAraI23ibaP83ws//z59Lici0B/ls+oJeb7ibHBIvzTI7eXJpnj5WsF8sZGBUtn6/P9+5V9O17sxl1HfOBV2XraXz33xmH+Z7Gmt7zvW9mzJOLJpDDEpfeMzjv0T+nLXhW/ML9PxnXP/uI69zFfkl/lOHjZNX/lecqK+7yAxzpKFjPoY8r+GdsP4oz+d6GLxsDEWZVw0V3rLR45tcIybO6tIu9FT2n1cSONUzXOzGCNr7PHya285nicfiOQZWzrK/7dGF9NbWUudThvjOzKumleswg9U+Prjftm06Tq+aSMW3SM6zbjh/rpxI9cnsrkbm/FvTdhcdGFelbe4tpH0D3Zl/j3WfXoTcTb+HjXsDfqNDcvMCR+y43PTzsKmfrKzqRls5nkDK0fSh1X90ab0uv7ID6SPz4l8ZM78OPmP40ZsNXUL8pW//1eXH1yYz6/3C7npSB+2IZ72hzXgXIaDJv0k/YdcdJzNU9dZm4z822u+NOlm1LuNZjpF7CF+Wx/kn+f18//2lKNd9N3EPyxuue1Y/X3TyQ9U4Deu/sri3Z841t6+6orY9fv+5LbFVdd/ZfGmD3/9iy1+sOJjn/vq4m/f9xsWf+8Rx+zU/9DDlZ++bfoVW+F++AIXPeiYjsIVn7xt8d5PfmX6P3t5A/Cee1vCbw0n1zvu4nBYvjLpVVwdQafMZMmTnHRIr9n7x/e7TaTOdEZn+qNv+y+TM6UzzsTXx1ZN0uhRHM7XAOTThsZ+nvDFiRk4vCrNWZoAKTcDG5mUtdfFbwY2X+/cz/9S+O1PHPtnz+xmGlCXA9poN+XY4GaxxT42tbO3Iwxg2jKLs9iL+3ScJy+rMGHwpIo9/b9mb+OdCPk/ecqevsL4+dvuNNFeh3omHpl9FftE7LycPvBB7JTfWef7nvzdx/6fpjj8ljFkfLtmxGS0lBE2NfeP69htvuKtC/Occb4j37y9cKK+76Agr3GWLMbZf7rzg0Sb/ofXyPivTE43tLv/KZVxdBN/57u+aYpnLkRXxsO5jznZeW4WzdrDhir8WxK4lpacd9jSsTEvtnSUc+ePLudnxuJ8FTDzhb2OywfxMCU2zKYzVxjb+geWc9NN44Y55xt2NtdP5OGgN6Cg7egkm0aXPHpvfetk0A5Q3/3iV06ly9ww9ryfef9RwJfq09rKW47pT8/e0Xf83PS/APfQnpv6o3JW9Uf5ruuPfK106SO+jgxrpFXjBl3P33rz9qd0+cVs7SSeh0S/+QfHfoAicu8Vm3/RkQ34sf/m/+YdBrHVpy/7qg28cVPNyyLj5un8bUfQFd2QHcd87llTP7bZF70kX+2qrnQ9MupDu7/s8v86nR80992p07//o9sWb/rQsc3bxz7gWH39mIS35v77R33T8V+W/aGH3H16M8+PWPz87/7V4v+87iuLi3a+agsb736w4tjXZb+0+MXf38nzgXebwn7x9/9q8dPv+dIULm9v5iXvcPFDzp7i/crOxqCv4D7kvP3Z11Fz1u1Lds4PDU8E7NIz1BicQXJ6urWc8O23kx4V6uH/LniK5X9s+brK+PQm4TCgYno6sVPHVXXmrDi8eV5nCnQyTTaW+vJ0wPU1Sz34zOv7nrwYiPJUf9SzQcREJLoRthdbotdpQbGMk3i5h/E+8oQoT5hTjqd14/+IkH5q+2X7uh7DoS3n9zldB+b1uSuzSser9JevfOBhSzuZT7xiL9DvXI/2kDxhQHN/rv95uZvkmNsq+067egtCnHl/lpc8x/vuxR5rF2c+bGWvvg97HUPWjaWxufn9cmaR9scq/4h1vmuTrY3jls3n+MGwV993WIz9C/MxHvO+cjr3p93GRSTOOF8a210abatuqVfCT3SeC3YhHj/H3jKewlc355sxY55sSXx5HoUtsXkbF5l/quO8vTNfjHzz+WPqO84fML+/Kt4q+xvbZNVcYVObYNRt0s3rEOZ1wbz8VTo5CNiRjeaxvOhn9GVYp7fdfMI2Ed2vm6eylaxBtM+xPnX7nWwpjHpIulPVH0d7wKjXsf/Mx434I7JnfBntWb7afEw3yjra5Kq+g+SLVX3loEkdlJ1N/3mfWjUes18/NKEuaa+0M2zmqeu4ETqWpY9MepfH0KejD7bwA991x7rVBtmXv3yHvZxK/Nrrn/zF15Zl3H16684m21XXH3sr7m/f9xunX6AdsemWX4j1FVl4Q84bdL4Cm3Bfu8Wj7nf2lA/EU29hNg7zRh9sCH5qKYd74l3z2dum/P7bh9/9675au+0cyeZdKaVswhNji7+fe/K3TU/jTNhO5n+clFJKKaWUUkq5g6997WsHtnlXTj392mwpZevwf5umJ0Sf+cri9/70y9NGXimllFJKKaWUclekm3ellK3j2P8hOXv6vy5eDX7KBXe8Bl9KKaWUUkoppdyV6NdmSymllFJKKaWUUu5C9Guzpxd9866UUkoppZRSSimllC2lm3ellFJKKaWUUkoppWwp3bwrpZRSSimllFJKKWVL6eZdKaWUUkoppZRSSilbSjfvSimllFJKKaWUUkrZUrp5V0oppZRSSimllFLKlnLW7Ut2zvfNzV/568Xv/af+tHAppZRSSimllFLKacPtty++8pWv7FyUORc96OzFPc8+a+fq6DmpzbvP/uXXFv/D2/5856qUUkoppZRSSimllNObN/3Db1n8jXtuz5dVT/rNu397zS07V6WUUkoppZRSSill27l9+XfbbbftXJU5f/97v+nMefOulFJKKaWUUkoppZxefO1rX1t8+cv9N2inC/3BilJKKaWUUkoppZRStpRu3pVSSimllFJKKaWUsqV0866UUkoppZRSSimllC2lm3ellFJKKaWUUkoppWwp3bwrpZRSSimllFJKKWVL6eZdKaWUUkoppZRSSilbSjfvSimllFJKKaWUUkrZUrp5V0oppZRSSimllFLKltLNu1JKKaWUUkoppZRStpRu3pVSSimllFJKKaWUsqV0866UUkoppZRSSimllC2lm3ellFJKKaWUUkoppWwp3bwrpZRSSimllFJKKWVL6eZdKaWUUsqMW265ZfGLr3/94t+98507d0oppZRSSjkaunlXSimllDLjHve4x+I+97nP4gMf+MC0gWczr5RSSimllKPgG//Zkp3zQ+fzn//89Hn22WdPn0eByfgXvvCFaZIOMrk3HhhlfP9yIn/r8r5JPeZ5BHk57nWve+3cuYOPf/zjiw9/5COLhz30odO1PD7zmc9M5YxlJe/I4sBcZ5/+9KcXt912251k2EtdDhLlrapTONnw/djPurzcX6ff/YY5Rv27/uQnPzndWyXjqjYL0u5W93W2ddSQfdQN5nWwELYg/v5HP3rnzokTPWOVLk8Wen7lq161+NjHPrb4jvvff1ed//blly/e9773nVTd2MY1y/Ie/KAH7dw5esj0x0s908GpIrayqt1G/4VV/QDCN/WVbSH1OQgbPVn+zdvetnjPe96z+MhyTLrosY/dubuatJk30pxfeumli6c8+ck7oWcOsStjdcb6s5YHG9vGNjwo2C3St9L+PnNgW/reicjr3l59iPwd68YBfnIv+Rwl0UnsONfRjwP70dFu4SO76XC38KNA/UadgYzRV465b9hUF/HvyjoN6nmqdYtNc+wReW/S8zbrbi+o31y/WFfvxPeZA/M4h2G7+8mnnDi333774mtf+9rOVdl2zlo22O0754eGzmjxfvlykfuIRzxi8bM/8zM7IYeL8vM0/S1vfvPkPF704hfvhN7BXMZLnvOcxU/95E8uHr1cnM/zgHws9n3CxF/6LADwr9/0pimNfGxiWDy5hnx//LnPnRythYO8RkZ5DE4WUSnr8Y9//OJHn/WsKa+91OWgsDH5pp064snLxR25wqg3PP3pT1/8g+UR3rkMEw56E6ZuUFf6o5t5ulVsyovuLFhHnrvU/ROW4Zt0r3ztNuc1r371VIZ00odRTm0mfFV7Q7osjDHqbqw7lMWGHrQlmzw2rug7smOVzbF3NhC0Bx2cCGmnvdjCiWCzPvr+nmVdYjvrUC/1CyfS5/Rd6U5UJweBNiUXPZ+qzRr9kr2k34zM+5BwfSFlz/sC4v92m6wfNrEJdVDXbYI/eunLXjb5ITa3qW3/aKnr1w++KWTsO1OY+2iwe7aa8eFMR931T7Y7+udVY9826IS8+hjZ9iPvOD/As5b+Y1Uf4G/YROZa+jK/Hr81t5lt9kXqS87024yhI+O4dbLzubBq/jLqcDcdHxXkJTe5yEM36vr8F7xgJ8Yd7HUdsJu97FWnws0XR52Oc0Llb9L5UbNKt7DOmnOqdDsyzkWlH9cHu+n2dGCdfjfZl7BxDovRp+5mm3OfKl10OnIq27GcHDbuvvzlL+9cnRja8R73vOfiHuecs3PnGO7fdNNNiwsuuGDnzjHS7iNp+3D99ddPnw984AOnzzm7hYdbbr11ccMy7gOW8ebyITKuC982juTNu1e/5jXH30hyHMWkj2PxpgFD8YQhjudRj3zkJI/DQp3je+hDH3r8LRrXJoLPueSSxbuX6eXBkWv45JGNF07o4ic9afHBD35wSjfW821LxyhM+W+49NKpjJe99KXTm3gcnycMyv/TpfOS3oAhvjzIkicUL3/FKyYdvvhFL/q6tLvV5aCgC29jKItc376sI7lADuFs4EnL+rzg+c9f3HMpv3Bh9GGzhH4MCBy19hFuQu0p2s/87M9O9ZePgUi6dSQvbZO8DDx0SU/ekFKmwWXUlTALVRt7q3SvTt5QSRqygIxXLdtLGdpfvmyBnUR+g1HaWx7qJr28fbKfue7I6C0sA6oBjUzqRD5lPe2pT53KP2q8lUUf6qo+PtVxPtjGNoUn7vhUjc7oary3DjrTJ0dbGNMLXzfYbwqDfO69bG82qt3JDOmErUqbeNokdUs8aVY9AR1hs+qjjTfF2wvrynN/L7odEd8TUH3mVNkbn+Sgp7mMdOAeH5E+xtbFJYt+oi+QRV/QP/Qz7c6+9ssmXbmPUWebbGBEPD5eWgf517Epz3XyjayLI1+M8kN8h7GDHsf+s6rO+sHYb3OM5e1VL4fJOr2sQx/mt8Y6yoO/tck5vhHr/lyvZwLmFurmuP/Sr/Nj0AfpMf3SkTHzKPnJn/qpSYb9yDufa/AdfIg4c1sxbgvnl9kDP2geKy7oS56vePnLp3FbPq7Tp7aBdfPezHXMWaIj+ss8y3zOuTnLfudzI+YvKYcOzW35eefwEAGZO891fBTYuHzNsn6Z55NFvTIWshu+M3pLnU/GXqLTRy7HMfPA6DTzwJE3v+Utd9KpbwiMOjVOym+dHEfJOt0612/X6TZrrJPti/r/O97xjjutNZSb9cHbl2FsdK5b5Qjfdjbpd1Of9a0Pcyu2F91nHrtb2lU+Vbg8TsSnjn5nG33qmcLJvHlnY+xd73rX4ld+9VcXn/rUpxaPe9zjpvufv/HGxS+/8Y2Ly37zNxdXXXXVdDzqwguP28E/Wbbr5b/zO1O759DfkbTyZVPztMJ//pWvnPprwpW7ql+ym1/6pV+a4ojvGxTjRqJyfv03fmMK//CHP7w47/zzF/e73/12QreTI/mfdzrpqjctDhOOgAwm4oFR2ADIwUkZIDLBAWcoTFwORB6uRzg5T285zBzyCZyivJNufJpAHp+Jf+MyXuSir+QHssjHBpEwcQwycbKuc6yqy0FhIqg8ZZHLU1oymGDA21lIOCdPXh0QBkf3hasr3SDh6quee0Feyk4Z8jRQhLSDcqJD8RK2Tvc+3U+YDQjtKL6vVCcO2Brkl7bXB8QVR5tHN9Fd7EGe6prBSjryjzIdNuTzVNTTvPk1mdXFJNzA7DNP8ISLJz7U1ZtcPqUTLo2B3hNtx/zpH+haPuOTvRH9Qr4OeeY8fSppc9+hXeaQnQzCMwGG8zFt8jUoJL600Yd2klbdEu4z/WBO7N+Bud7I7poe4FzeoC/X2oAeUp4jdZyXP6b36TrMy2Z36puyDxr6Sz+L71Iv5Tv0E31b+PxtkJG5zubXY9u4rwxo67HN3KfHUa+OxF+FstRjHGvmyHPMz5H2ou+57chzztjeY5zYq3vsMvaausVWE59OVuUDcckS+3TugH6cdDlSB76bXn2ypYQ7dwgjQ3CdfHez/+QF94SNMo+6m4eNaTFej/4pfTGkn8UW5vmeCRhrjD1sd45xx0Ev+t6qOIcN/7BKXvZOxlXy7jbXCGxPW2cuI66xmb3JX98TJ3OxxJP/NpE5K/lHyE4no44Sh/1vqlvGEfYifD6fG5GG3pK/uNGtw7n8hTlGHR8VNifojCwjkUld1Ju8zpH6nKi9RHfsMTr1mXniiDyNLXOdup/PUQ7tdNQ6Det0S26Qea7b3eq0TrfmZ3Pm/d+nPKJ/+l6lW217OrBOv/qsPhp/R0d8J11AHdXX4V7aAbv197lOU8Z8jrTXPpI+kHjpI2V7eO1rX7v49PXXL86ZvbFm08zbbC984QsXL3nJS6Z7b33rW6fPW2+9dTqe/exnL17xilccP8KmtHjd6143fQpzsBmb7XOuvPLK6UWrpz71qVP+NuZdX3vddVP4e9/73sXVV189ySEfdVAO2baZI9m827SIOSw4iUzgVsFpcEbixWmBY+FA4HNVHpxMnvrG0ScN5CFPh/ScXMpQJiPMZs2fL9MjiwqLpzivDCAGmCxOLHRGebGuLgeF8sAZB+VGXp+pexA34dKPacVzCPe5yn5Sxxx0jJQV/TmyWQTp6HNcdNI/8pn7o+5HLNqUkadF0bNFo0Wewc4Ap07ugwwhgxVZIq88yeRQn8grD4d78tb27GebyCLWJuO48TgS3c6hC4N2BmwTrtjTXrH5J3+TCxup7EUeYz7i6JPayv1VC2/h6uAgizTk087ZQJWWvMrTHtpJmDYRNxMd+bvOJAmRcw4bGO1/r8iPvtiaOpu4kYUuyRlZTGrJyXayYRLb3Y20pTeCD5uUqV7xFXM90W8mi3tF+2kbtqBt6EcZ7mXy7j5dZiOebbkWVxuOXykb0U/5jLT5OrSDNvJ1Pnk6Z0+Y246209bijJBZenKNcUZ7pbekY9Puy1MY24n/kY/79Bu73w1PM9m9PGNz44ZcyKac/JV1kGQsiO5Sn9jPiUJf4MfVN/5h3ianM/rDKtSRTscxcxvqrY1XQbZxjjTK63O0Qf3G9bw+uR7feorvERZ7GvPK+LDKLxwVZFLHOZEx+nFksZ26j7521FF8xlh3ced9bFU+0SffnrnuOh0fFXQ21i18aUdn/Bl9sa/MI6LPE7EX+IwthlU6VY6463Sa/EY5HrhzPs/rKNhNt+ODp+h2VZ3O38lD2Drd0tW8L851Jw29y2M33Z4OrNOv+qnXaLv6e+JGj/EFjujVp3hjvvLKHEHaMSx2nPRhr31k1P/YR8r2cPHFFy/+8QtfeKexxeaXN9me9IM/uHjAAx6wOOebv3nxwp/+6cXTnva0Kdybczj//POPv/Byn+U5kvaChz98Oh64TC+f6667btrQu/baaxc3LtPbkBPmeNxFF02bcHOuvuaaaUPOG33yT/lXf/Sj06dvyj18WYb08nnmM585lf/RnfBtpb82uwYLLk5i3BiJQ1m1GbEK8TlHBj3mw0lyQnPkndeNs0FlE9Ck1OvfnqDIy6JuHIRMei59wxumxYn7842IVXU5SOYDJMZOvRfm8XdLr0z1zBHHn/sWxHRElxZZkdEik16EWYS5n02O6J7e1+meXuU/bowKdy7MkXtwX1wysA0bgqmbT/GkEY9M5JN/ZArXL+uXOmaisy0YbKNHtjlfVLH/cTIQHQV1liZ9YB6+G/LVv/Sjn1y2aQb/sd3cYxMOjGFBP6dbbeFNWlisk8sxX9xGXnVOWGQ3sdG+6kY2cZW5qlz3drP3Oeqcfs9elJtyIlcgnzJs6pzoZHSV3AeBeqWf2CDTFuoTm4+ebNJ4+ynHfmzGphe0kXzozRG7sfB3X1nukcFigQxk0db0MS/TtX7ODqXZhM1A+atvfEnyY4fKJYf7c9sKZNamZJIfRnsVjrQdv+cf3mr76NG5MuQjPtmRhfxunLPMh17IKL36jHJmg8sx92kHQRYU6qNe8UUnu/jKHCCbu6O+z3TU1WF8Mi9hT/M5xzbBzufyjra3W99ENpZG0mdGX5h7pxur5jp5IDHWL+xFZ+tYp6NV5YRNYUeFsZN/NG8c55Z8zip7CbvZS8L3YksnorOMd9tMdGt+5v/cjbpdNd/NQ7UTsZO5nnN9Iro9naBLYzT9mpd6eGeeAz7TEX+APEzcCyfqU8Nu+j0T9H8mYeNrTv4X3V/8xV8s/sk/+SfTHP61r3vd8bfzsmHna+u+/vrSl7508Y7LLpvuJa1NtZD/afeJT3xi2riDzbZgg9Cmm829EXGFBeXbMEweN9xww53ysVmIhG8r3bxbgYUFJ5ZFVDAx59izCNqEPLJxZ1NtHCA4zbyZF9wT3yDFaQZluSaHw4DGcck/g7CJaeSyyLNgCuvqcpCMXxMNzqMDcsydr+uE+xzTYky/CvWm5xxZpEmThavzLLKyGBWPbhKPbNoC0b2wue6DRYswi8OQt2gMeiZ2JiAGxiwYXLsvf4OmcpWRAymXfPKf68Nmknqqj0nN2OZHjfrRKZktADjtEQtfdbLJBLoZEYbo4kTYbXDfS97sgPxsZbcJr/zSBqs290f7PgjkH99B75s2RqJ3bcT2sE5f8/sHWYdVKI89pK9YfCM2kn5B5/N+v1fkLW1s0sYy/clDHxbuPv/sPp2w2SxuU9ZcV3wD+YTzwc7FyQR5xGaSsPjOERtibIsce62XNJjLFMiiX/rxCXWJHufsZ6GnvnSSzeO00Yj7/AN/rdzRb62Tdc5e443wydrvVKEdtAf5R3lOh4XxyaKPOehAO/IhGTO3kVXy2nSFe/Oxk43O+1kecowLTv/SBOLG1kdbSJ+a57WNsOVxrkNf6uJYNZ+js9RL/HmfdD2vd67HfJJOGdHxmNf8X5BsE+pNZ/HLmVuykVX2krpExxjrGrvLsUqnSRfW5QMyyAejHLH3hG0jo24x6jb2uK5Ocx1hU18c7RFph1W6zXna93RF/Rx0jPjHce2Te/Rgrpgw15tsU5oT9aljH8lYOrdtYfO8yvby0auvXvyvL3nJ4p+/4hXTxtkb3/jG6b7NuGc84xnTm24efniL7oorrjj+ddZ1ZG6LvdjBuq+/+j99pzPdvFtBFh9xbIHzymCyCWmzULBJMxrY6BxDFoac5bxMiw6vjofRgWZCE0fJyc2d5Lq6HCSRK4tU5ZMxGwWcNllTl4RnA8zGpjD3kc2d+YbnXiCLvDIAZNJuAqBMC/XIKY4jg9Am3YN89DvfGJXHOMDkM/kr02Jdm5BPHtFNNn5G3SQ/WHCPMo15HxYpM+2Tssf7Fug2PtSLnt0bZbUJE5sUdz/My5+jLaK3k0F/DNnsXbW5AmUpc+yXI2QWZy8yjbY0kg259PcRZdrcYovYVM7YDvN4CUubzcuKzhPvoKEL9qFumUyCL3DuafCo97ydNpdvPhFMPYI0NvDylDl+AuN9fVXc0TYS1/057vFf2WBXvvM50fOYb4gv4B/3qvekWbfI8CCKDjwEULdV5WJVPtI55vaT+hvztEV0PMrsAci6TWNlJe9VpMyxbfaK8ZZcq0iZ8/qE3ItcsSU2KEzbZQxZ1ffPJOggm9tBu62y/W1gN3m1YXwd0o4Zh9NnxWfH+n8Q131tnvgpRxrlxM63nflcJ/5InWPT6+Zz6p76IuGZz0W/8tIPx/479pvoeGwr57m/bXhYYT4W/xCd8Q8nai9ZF8S3ZN5Bf8LTFtEppFFO5Bh16tgkx7ZyMrrNOmGdbl1Hd+P8FPO1xly3yXObdbcX0mdTb5+uY5d0P75pJ5x+Edtc199PlU+Nf4nO5Te2Y9lussnm667edHP4ETBvtNlQs5H3QxdffPxNt/xQxbWf+MQUF+l3yDmbydt7/s9eyJtyCQveupu/jSev/KKs+OMGX77OO89n2ziSX5sN6bTjW0uHDWfgyEYCB8FpcRxzuXyl1T87nDvueR424vwSFfxSkQHB4ekRR+TXUOQDRuQXdaDsxOXgOEH/R8hij65MeuRnAeTXFDk5abIwJF9+uYeBb6rLQRK51INeyEcuv0xELr+kqi7+IWXC/aKQBTrd0G9+hUw8v0DDYc83IKVzP4PCKoTJSx7yc1io0r8y5R99R3+Rc5PuQbfaj9zih7sv65Dy5Ou14NTPp6dL8lV3Yepsg0IefiUvOkla9/26sc+vLuUjb+rioK8ffuYzd0o/eMhLRkf0R2+cL/nZP/npSx3UWdvRy6hL52xFOnVzX3z9xHXKYLviBflJKyw6UH50SL9+FUwZrrXRmA/ZfKZPzK+DdLEN6cUZNxrdJ7P+de+lTOImn6TVNunH4rIL8usfY11HlOUXt/K0WTrxHWyUb1EOewL56X1VuZjf++IXvnBcP+ShO2UJT5j7qY9fYIucfoWMPOxNPU4WdXXIU3kO5+qiXTFvF7BBv2wsDj+ST3XxC2lz2WIzDvmrY3RogeQf2bpPJ+qrTdmrSex436//ZXLqvvy0C59iYjIiHr3l0G7aIhuBI8knPo4eIF10RA9knl8HE99XLfuethM+2gjGdBZBysw4RZ/qo976j3qrs0M+5NL+sQl+KfqWRl2TpzQ+2TC9jPqycWcjcJQl+bJh+Y51N1YkX4cyla8tUn/5yp/++Hv1d64c9x38J/uOHGQWvqk+NurlJb4jumD79MWmpCcXeYwN0p1pREfqpq3okK60H9/Dpo2Zp8IfnAr2Iy+biL1qY5/sUL+RTj9gE/LKuC4fZQg3HoivHD4+5bAn6eYPb7eF9Jn4m73MM9U5OlS3zJPoUJpRx3RLh+LZPJWef9SnxFOOgx9OOfrUXMf8U3R81NCXesbvxD/ER/iM7ayqy37sRf7uz3WaeaBfVo5O+bHoc9RpfFHkiIzkIKN22xZOhW5TJ+GrdGteQHfWW8LMO/3K+qg7B/+fjYTddHu6MNcvXcbvRUfsK+O8dQabEyaOtNGvtK7ntpm0c5+qfdyTXnz61x779anxO9vqU093TubXZsMVy7a06eVXX+917rnTm3Ta6vsuvHAKN0e1UWZu54ck3viv/tXxX5C1acYWpPVLsP5/3Y033XT8l2vtnUj7zGc8Y7K3//D+90/35e0tOr8Wa9PP/99z/dnPfW6S4bOf/ez0f+/kKVy5flH2KU95yvR12YR//2MeM8lBBm//ebC9zXZ2pJt34ByPchDhHDizbACZ2IFxjQ3HqXAiHBTDGZnnwfFZdDjULYdwTtL9bABxRgYbm1Bj3OiFE+NwQR4Lh1yDAzTQxRlykGTBurocBpGLDOrLIUcumHRYfAt3nkkJ6GMcHNVX+CrodMx3jjzlZQHo3Ku59BHkPeqPnGnf3XTPJqSZPwnSbvM2In/yFV+ZmIdhLtMYTpfqTB731EebHzbk0n5kJBPd2NgA2yWbdhSWttVO6iaNa+dj3fQjOle/TMDSr8QfUT4djWVIi+hXGpMz5/N8nGunML8Oyd+mAz27DuQju7Sp75iPa7LQkzzIIR453RvrOpIJjTByK8f5ODmKTsO6csMqWZKXtjNhRcKUa4M7G6uR0wRLn5XmVJA2Jsd4aDdsGh/oLwtCemUTcz8T1EHcnMf21Im+leM8YVnUzu/Th+u0PT/uXh7GbEIaMqduc9STniGuthA3OhJGjvl14ONGWVO/MKZTVmzAZ/qsMJ/3Xh6g03FMkYe8xXOPTqOT5A358rNZBEk35j+vg/RsihzJN28Duo5Nup9+mLQpk674oNRL29AJnWdzYJUc6qOersf6OFxHPvHIKB7cl39sQPiZCB2xxfiT+F6ou/ag421hP/JqV+FhtC/trH21q7aWJ/s0frHFccxDxp11c55tgo7oIH3HeexXXdVttOfocL/zOXqUzj36lEa+4gmn67Gc3XR8lIy+g+wOeonfdU4v4WTthV4Szm6Fx/e4z99pN/foNzq1uTSOR/Im8yhHxvtt4UR0K646r6rTJt0a26Q1Bo793zmds8mwm25PF+b6TV3pgl3QgT4b+4p+QW/mQ6N+6WCdbY46RXTqvrzOVJ96unOqN+9wt2WbWzNce+21U9gf/uEfTptrNtK04/vf//7phyl8tdb+yv3ud7/Fs37kR6a055577pRW+JXLQ1rr3Yd813dNtjTmbWP3i1/84uLHfuzHpg26/+2Xfmnxrne9a5qX+Xruhz784WkzUDnyG8sRbjMv5YhLxsc85jFT+LZy1rLB/M/qsgueINg1XvfVm73AAflqAke2bkFaSineVjBxGSesR40n/eQiU76ee1fHmOAJs8mt9ionjzchTcrYmEl+KaWUUko5GGzcffnLX965OjFsjiFv2sHXWb3thgu++7uPf00Wwrzl5v/H+prtDzzucXf6uqpwb+/hwu/7vjulhfKuu/ba6dyGYX6Y4vobbph+iCI/pJFybPSJs6ocMnrT78Kl7KP820o370opZcuwUebYpg0h8ngA0QcPd5ANTU/k87ZeOTmq01JKKaWUw+FUbN6Vw6Obd6WUUsoJ4p9r+4pJ37w7dVSnpZRSSikHTzfvTi+6eVdKKaWUUkoppZRyF6Kbd6cX37DzWUoppZRSSimllFJK2TK6eVdKKaWUUkoppZRSypbSzbtSSimllFJKKaWUUraUbt6VUkoppZRSSimllLKldPOulFJKKaWUUkoppZQtpZt3pZRSSimllFJKKaVsKd28K6WUUkoppZRSSillS+nmXSmllFJKKaWUUkopW0o370oppZRSSimllFJK2VK6eVdKKaWUUkoppZRSypbSzbtSSimllFJKKaWUUraUbt6VUkoppZRSSimllLKldPOulFJKKaWUUkoppZQtpZt3pZRSSimllFJKKaVsKd28K6WUUkoppZRSSillS+nmXSmllFJKKaWUUkopW0o370oppZRSSimllFJK2VK6eVdKKaWUUkoppZRSypbSzbtSSimllFJKKaWUuwC33Xbbzlk5nTjr9iU756WUUkoppZRSSinlDOMv/uIvFpdffvm0efdt3/Ztiyc84QmLu93tbjuhZdvpm3ellFJKKaWUUkopZzC/+7u/e/ytOxt5H//4x6fzcnrQzbtSSimllFJKKaWUM5Sbb7558aUvfWnn6hg33XTTzlk5HejmXSmllFJKKaWUUkopW0o370oppZRSSimllFJK2VKOdPPulltu2TkrpZRSStkOzE/+9ZvetPjtyy/fuVNKKaWUUsrRcSSbd//mbW9bXPKc5yye/4IXLF76spctPv/5z++ElFJKKaUcLfe4xz2m453vfOfi3y2PPmwsZwonM+felFYf2Ws/2U2GbVsXHJTOcKp0ulvcbdNpOCrdjuymu93Ct5mDavdN+e5HX7vFOyj5SzldOev2JTvnh4Kn2G9729sWP/WTPzlNjG3k6bivefWrd2JsLx/5yEcW97nPfRYPetCDdu6sJo5I/eZwQn/08Y8vnvD4x+/cOXYvC4X9cjJpD4Pd5BNOp6uI818Xvh9OZV57Zbcy96KbTeGnMxbD6vWUJz95586JQ8ef/vSnJz0fRPtqh/ipH33Ws3bt/3wceX78uc/dubN/UqdHPOIRO3eOHnpwbJNM2K2flc1cvrTXP13aGvZqs6981aumvvCLr3/9aTF2nyj8FNjX9yztXt+/q9mZuuN0GIdORtb9pOUHN9nBbuFHhb6ejWjyPWvZh7//0Y+ewrxl+oEPfGA6D89d+oPMVTelhTFSHAj/2Z/5mZU6oBt+w/iGJy/nAHxJ+PBynv2mpSzK0RbC/8HTn74TevjQScZ/PH0pS+R5/zKMrCOPX+orflQd+cp1ddlNpx4cmE8k3Lpp1fyDTrVffjFyrlNy0Ll4GOtwlGzSLTt4/VLmkVOp2yCcbqK7Ry/j0F1sdzfdbjPr9KsudDcn+h37ctivL1B2wjf5gk263TZfcKbgByv4lhHt88QnPnHnav/ccuut0+c9zjln+jxVsJF73POea/PdLTyQ75YvfWmlHeKg5D8oDn3zTqf/0rIjpgNyAIzoLW9+83R9GHAUHIZGt/DQmN4EnGORyukEbwpyLBzcmEdknzuiVU4radyfD6jylT8nJY+5cx3lmZc1pt1LXQ6a3SYLc+dP/r0OvO6pu83UvUxCNuVFRvmMZJDa1AbKn090EXsaB795mZvaHXudaJGNjHvRwWFhMmtznq7DKtuL3ukGmTCdCGmng9KDOqWfkXe3MvKmTuqm/vvdyHvRi198QukOEvZIrnESd7LE/6ffjMS+g0WLNh79gPSZJG7b5G4ufzjMsW430qb6H/1u0p2HTibS8Uthm+pzKlA/bTfWk92x01Np+9uO+o9zDPZh8yD91Hxo9PM4KluYy0pGY84mWeNz3DceravnyLiYxHzMmc81hBnft4FshvCRbJic6kwPfCebJ7fwYMNaPbJJJYz/ldY8JWnzUD7h2gKvePnLj89rAn8D4712M1eKHl37Nk58EfmUpS2Nh4cNecirDT1oNGcZ5XGuzc3vwrcv9SUsdYkd0NeY1rXw6IwO5R+7nOucnuQZnY/splNtK80ox1H7sujW2EOuuW7Tl06lbtkj2xrJWiJzLdfiyAubdLvNRL+rbFf9+INw4zKuMHWks5PxBfPwM8UXnEmcys07m16//Mu/vLjuuuum6/PPP3/x0z/904v7LD//5Wtfe/z+yP/7n//zha2nf/LSl+7cOYa0//wVr5jOP3/jjYu3vvWtx9NfdNFFix9+5jMX5+xsrl1/ww2LN77xjYsbl/HwtKc+dfHU5bGKyy67bPHeK66YzpXxvOc9b/HABzxgut4k/zbzjf9syc75ofDQhz50cgJBJ2c0Fz/pSTt3DhZO/C1vecviXve61+ILX/jC5NQ4FDIZyHJwdGTlfMBxvO9975ucDOc05hEnzvFwYiZ+yUO6cYDUYR772McuHrbM++VLI1X2y5YG/OClgxJ29tlnT7JwXBalBlgyyoMsygSnxrkacOT1nve853ja3epy0JD91a95zVS351xyyeI77n//qW6uyZpweiD/bbfdNslP7gwO9PukpU1I/7GPfWzSBRsRl8OXl3w4cenWMeal42uP5EVf2lSZ5Ii+5CfM2ygf/OAHp/YUX1jawCTioqX8SUMWB1u4apnmHe94x2QryiSzia12lG/a/cUvetHiUY985FR3KHed7sjIRoJ6ZXNwNx0cJmctDzqKXkadjdAdmYU56EGdTwQ606YHpQd6v3XZ1+65lC92s4nIkbo5n9d/E9pWfdjkftIdNNpH/3GcKn+d/OKHR+jAvRc8//mTHsVj8+lHb172a/3XoK3f3X15b+xLRw27mfsIkH9boF92TSY63oS+Ta9j33bwTWcaxqmxjjCOWmiOfvhMZj6fMRbqg9GHMc4CzRgXPR2VLew291olaxbx/Ij4FoXuz+sZ9N/XLMdm6fhmcwBjsz6h3sq3CZh5y2c+85nJH+lX2+DHP7uUh98kG3nuvTz4T2Mv+fnb+y/nG3ypuukD8cnqaR5jziKuOrknH/HMsaTlq4XrI3x18g7x4fSnL5mXuufgg8iQtqBnY6n45tl86WFjju2gE/UjT+Zj2p2swuk0Okt9Uxfze/Wc1+XtS5tkU+oqzTgXdG5tRL/ZSDYX1F7kGH1QdGq+aU4dnSrb2GiThizajgwO18qe2/hhEt2SMW096tY8ep1u1Uk/HetEB/qcOq3TLft3HuR/6aWXTnojB91+dWnn9MMeP/nJT36dbvVzZYu/zUS/q2yXDthQDnNOcflHfV79pTkRX8BupT3TfMGZxFe+8pVJzyPa98EPfvDO1d5526//+uLP/uzPFj/xEz+xuPjiixcf/vCHF9dee+3icY973OKBD3zg4jGPecx07rDRdtZZZ03xPvvZzy6uuuqqxTOe8YzFU57ylCncBt29zj13yvfnX/nKxa233jrle8EFF0z99253u9t07v5rX/e6aSPvR37kRxb3u9/9pvBzvvmbFw95yEOm9OHKK69cvPNd75rKFPcP//APF1dcccW0UckfkP+aa65ZvPCFL5xkuPrqq4/Lv80c6Q9W2JHnMAxOhwVH5AkAZzGSAcDx50unH6cXOGwOhPNZlwcn5SnRmFcWbHAuH/Hk74kIxyVP5z4TnwwwELkvL+VDpxMvTk9aDi6Lr7H8VXU5aLyhQT4DHvk8SSELRwwbqCCTOvnkOAwg4LTVWXrh6qkOGWDEV9+9IC9lJy+2NtobOYULczjPIOVplHN1mLdB4jqEaRPtIL6NHrhOvlBW2i7yyNthUEJ0R8boTl3HzQjhBkthR4HybaBaMM2v1cm1RYynd460q3DxhMMbuHyATzoULp26eVPC4UnbHDqUT+xojomdtOLI35uoztkOkpZsCdMv5yTcQQ5yat/k6SBv8mVr8nI/9U77q/OYn3jjk88R/YQ+YjdzvZF9lNl5nm7SXfKOHlJe0tv4dy/6c5306iNumJfNppW7Sl8HAX3rY/qCPgP1Uj59uxf/wvfyDatkm+tsfq2e0ZXPtM2q+9JI656D/laVqf3mPmKVH57bxjw/tje246o+wW+siuMz+Y62OubpPH1UuWN9x7LYiOvUiQ5jN6t0EptJf6U75QtzjP0x+YAuHNit3UZ7XeUXxnrO6zOWg+TF5kbfpK4j8hBPfeTrfMz3TGHTfCb6N+cY7fyoULa+FTkckTWf62TlR/i13LdwzDg9wi+zWfMR8fgdthJ78+l6nLcgfeuo4UMjE8g1jjPqm/7vGP2FMHGDerqOHfgcdZq4+Tp+4KeQMuE8uhY/eQf5ppzDhhx0FnkyT8tcm9x0xAfQmc9NddEGqYt4ox4SN+nFm+sJCQ9ZK4xx6Yxc4qa8efg8n8Mmuo1c+9Gt/omxTnSbcJ9j2Fy3IbpJmXjgTjphq3RrLh7dbjPRb+xvrt+gHvGBieue+p9KX5C+H1b5gtilsrbNF5TVXPDwh09vvPn0NpuN1bzF9oDltfuO8847b7pvgy5vz+EHHve4xXnf9m3H08NbdTb6ku/jlmm8MHDF+943hX/iE5+Ywp/5zGcuvu/CC6eN9Icv4119zTVT+Ig0wp75jGdM+Utj8++jH/3oFG6zTv6R80k/+IOTnDcsZdhmjmzzzsQ4u+pj5zxoOPjdyrMAHh0ZTNTjkNblkdeEwQEZYEYnxllxRu75NNmM4+KQpMkmjXNxDFg5sqAcnWScq4njKplW1eWgITvGuit/lNt1ZJo7f+lHh+5cnKSj5znSmIzmyOCeNBZp9OQzuoVzdpgJArvMIJWBe2yDyDiShVsW5rEPeWkXbUBm9Uidx4GMDJkMRF6DKXksDrV70mFe3lEQmcN4Hfm8Neqw2Y3UMeQ66XxqC+2XNqa7hI/Myx9JGhvf9MkOxU/ZPr0JSaf6hut1i2/yZ9NIvunT7vskbzYlsgEhjA1owyzs5C+teslPfE8oV9VBvNH+xYnsyHXSOneQTznqxA95o8ri22JUeGRRPvsnu82p2BzWlRUs6DFflB0G6Y/qlf49+hhYUK96GDTX2Xit/Uxs5SWtfpUyVt2H9tXO7tEfv5K8V6FdYm9z2I2y5KVt5Bdb0he0K3tQHlyLM+KtuKRHbFV7zW0Via9e8k58dsFepHHuftLQ1ybbiE6kj05CdK1ezi0qRh885jNej+206TqMYeQedUf/qSfEHdOOec3LGTFGC1PHub7PJDbNZ6IX7Zlxap0PPQz4+vStuaxp03EjPrKmHyUu4nvni82T3YzZJthrHn6kH2bc8GBa/6TDjBnae6z3yKo+krirwpAykfPEHcMwvz4qtDMbMsaknbU/26GvPFCO78Ym2dfZxaizTXoKeVg8xs04hXVtsE12Sbf65KhbfTq6ZZOwiRTW2SNW1U38dboYie7WtcM5w/npwirbDZmb0HdY5QviM+llk+7n7CfunHn/mV+Xo2d6q+6ii6ZzX0H1xmyuR7wZ5yupCbv++uunz0t/+Zenh7m+QistvDgD8YONQJtuN9100/GNNZtt4fzzzlu54ebe+BXYbBDa/HPI8zu/8zune7jgu797+ox828qRbN4Z3CwkDHZzR3LUWCxx/BY2gbPivMa3nzYhfgaZMR91HieJQXnimyxnAmrR5TwDF6eVxb63AWBxssq5hlV1OQxWDZzkHwfDObs56d2ctrxNSHNkwem+SaoFJV2xN/YXWQxmGaRMZMcNF+09b4P5Il1dpRFvHKScaxNtPurDfTZARm0+z8+5+No4MtlASNtqU+Wt2qDYFtLW6m/jLhtxwaLIIip6yeQz0DebTV/I4miviE/H2pYO0+dGPWsH5TgwhgW6J78JurxAdpOccbEYcq3+WdSnjnSR+/QhT2WuKte93ex9jnJiI7E59SZn9D+W5VxYNlb3SuRKvQ4abam/OrLhSnfxgZFHfx832fcjXybrytK+WZClP8/v8yF8Rmxbu9PnujLd12fX+WF5qYfNSfnJPzavDNfyF48fw3zzlFzSOmKr4pB5la2KIw09pp7Kdy5MmvQN9rQb5I9Okrd6jzrhx+SlLvzYQRMd0vvYD7IJfKJoD/XVp+f6PhPRXvP5DB2oe8ZG941pdHKUbJKV7/V/mUZZxd8P8TerWNf/91vGQaPuxgptxz8EemHLfAB/IYzfgnqnPwX1dT/HWM/Enetr1cZIzhN3rq+Uc5TQg7ka/cSuED/J3zn459gVmec2MdYlfn0k6eBzDM/5XBfZTBrjjuNj4s/zUv42QF90q4+OumV/0S1Z81AoOvQ51mmu27nupZ3rLmNf9IX53ALzcjDPa1tZZ7tQF+H6e3SBVb4g8wD1nvsC+ok+fI762s0XjCSduPN8MLZx2S5s3L32ta+dzuf/e87/r/MVWW/dZUPOG67epnva0562eMlLXjJtzvn3CzbTHFj3f+cSPiLfVfcxvumX8zHu6WhTh755Z9LAWVCWJwGcimPuaI8KE5u5I4vzMYjsBmejPj7nbxXKxwJnRL3Fl3cW/OAsXWfg4kjlKX6cHge7yrmGVXU5DPJ2zuh4R6dLnrlTdj12oLk9jOlXQUcm5jmiS2noxiFO7mdzbxykTB7EyQJkUxuEbJiMg6J74pCDDTgsXLNgdW1SQjZlKgdjO6VthftMmdqULBaKyY9dHfWiacTGIrvLpCGLqcA+1F1dwA+MRA+b2vtkGXW9Dpu45Kfn3Ta5yBo/sSru3L5PNeyDztkNObIBvYqExW9gtOmReT89yDqsYiwvG/BI+0VuNpXFqHv7kVP/Tn/UT23+0ZEy2PL8vvzHjffIMtdV4A/Eoe9V+MWoMZ9RdvdSR3H28tQ/9rdOHpDd004bous25yLPyKY6ytMmK/tL2tGu3I+Ppc/RZ22S9WThX7TdKk6kXO2TceIg5d4G1C92Ps5n6GAcG7Ur5m+rHSZ7kdU94zjImjir2nHux+XDnse4o6+hh9HeIW7Ct4Fx4270R9HduKnOvqMfulO31C8+I3M9dTfeRzfp25nvJp18MJYjr9wXXx5JL51z+R8V6sWvsfFxngf3x/lLNvC1eR72r6sL3fGJ0Y1zdY/OxKOb6DRz1vHbOUj8hIPM0pMj4emb26DTkDnifnTLJlMnOsMq3bq3Tre5Ly86Ikegc/fY5G663XY22S4yN7EJHehp7gvob5MvkGY3XzC32918gfjyWNd/yvaQjTsbYi/86Z++0xtzmL91B2/N+Qqrz+nrrM94xnTf11mzwfbp4e03b8lBmK/gYtyAu+HP/uxOm3TBvTFezse4sVXkZZJtf8P20DfvTIhMGnRQziDHNjhCToSDmDs5jpu8u8kYp+dznDwig3QcE9yzgHLPZGqEU+V0Q4yLDHFe45N+Tm0sb11dDoPIl00CcqhrNgo4+blTHsN9Rl+Ic4/z3w9kkVfIBIYdyl97RQ6QK+08b4PkEz1Lb5Biz6Pu5SeP5JPP1EeZnu5pc3WSR+oe+0hZ0owyuRbmLUwHDHjjAHjQzOsT2wyu1c3mpfqQT9ykEz5usO73LcIxn1Voi7HNT5Sx7yS/VRtzIIs4yl41uSCzOOtkHkn95qSNo/cR5Y4Lsr2Us0qelK0uwuZ6TNnrZDzVpF4Oi+6Ua1LtXB8lZ/TO1pzP5Zu/8THXITu1MZjNwfgEebrHXuVp00n+4y/gRUfuz1GO/r3JD5MZq+LwV2Q2+V6V/yqy0Fhnq8LVjz4vfcMb7lSXkfjKUZdkGf12SBzjHl1Gz6PM6qDP+8T4Bpy8xmPefslvbo97QV7sZxXr6hNyb/528LioS/osXs4U1H3dfEa9E4Z8rrO5g0b5u8matswnWcVjH+mDiJ+NH0/8/W4YCCNP0h016sVfqq9zOnHQT/qbzfw8mFCPvOmbT/fNiRx0l/GG71JX81lhNl3is+Rv89wnXUljE3EsJ77PPEgceSRcHpv850GirclCP9qTPA56hDY3JpDVwddnczh1SZh08kldoh/3lZG6RqeZH0Wn2kae/Gt0qh3lKa91OhXfYb6YcByVTsPJ6FZ9TkS39MdO6S4bg9IofywnY9Ruut1mdtOveqjrfP0iPkZfIK/RF4jjvvwdo93SzSpfoL1OxBekXYQr53TQ/V2J3TbuVr11h/e+973Tr9GGa6+9dvo8f9nG373z1dX87zz4Sq30Nt3yfynlAWX4eqz/fwcyuQc/cPHRq68+vmnnByzg67Hy88bf+L/yrlzKiny9dls59F+b1RlNZubHbr/geKrhzBxxRPAz+hzG+BQCfqnskY985NdtHiWPOBO/EurXiTiY/EKqQ35+ncgvISVunJtP5ScuJ+lXeSwWlJsyODgO0D+DlD8nZzdbfL9A5dNg71d+sK4uhwH5yJz6kM8vBPn1IXUlI32YMAs3SPilovzSUX5VSxzhBnBpMpkJdGIQ37SpZwIgr+goeY2/quSedhOHXvO2zfXL+HScNhBPG7BXGJS0n4Wh+MH/k0rd5UtO4eT3Ka/kq439clPKJC+9qHviCU8Z7Gc85G1CM9fNQaKvRiejjPqS/u3XdNVfH6ADbUtWvwbqvjSpozD/bFTdYg/pk8mfDbOpIE3yF65dRh3pO8LkJy7bG/OhM5/pG/ProG3lTSZ5iaMeykDu62f3XpYjbvJJ2vi7yKTO0rOzsa4j0ZswKEP82Ki6RBZtQX7lrCoX83t+dVAe0Z+803YJI6c00V/k/OOlDMK0GRlOFmU51FebOtSXn3OOebtAve+9o3PySJO+5Nfp4geD+/Kjw9gO+fUb5fPFqbf6+uUzG365Lw09aWs6TNs75BnfPGf0EetI3tpzfj3aGN8wvw5kNLmVVvhutpoyQJcJS51diyMs/Yqu8+mgJ/5X+6RvS0eW5OdrEcoR5lc4V9WB/bIzebJvbWW8pef40tgjlKtMdZSPcVUZxoH4cPn6JAv5yTkvd1N9bOzIK31E+XSRcYN9xYen/U/VLzBvCxZM6kbP9KAdHGnvtBe9Zgwfbe4wecOll05tsUrWey/l0lauV8mqLvGr4rARY6p5mAeQfmGWLebXENWbXuQpffoH/8lOUk7selPfP0yMQfSjHj5z+IVIckZX+oH68I36IVzzb/oUf0Yf6qVPQD7u6Yv6r7j6CuhXGvfkI57+FdtSjn4X6F18ZbnPn4t3FKgLmec609bmqe6rC53RhXEy4zbURR6pC52lLuLThbrSG/2MOtUmc53TqfC0kzYjn3LmOk3bQVooh+yrxsjD5mR1SzejnWzSLV1k/SEs+hQ/5YgHc5t5G27S7baym375KNexoZHdfAHdbfIF0sv/VPiCsf8cpS84kziVvzb7K7/6q9Mmm42w/+sP/3Da/HLYgLPR9o7LLps2zrxZN9rZV7/2tWkMtbHnByr8sIRfjTUux5aMtTbl/sP73z99elPPppqyrr322mlDz/33L8O/+MUvLn7sx35sKuNf/MIvTL96+8QnPGFx32Weykg58vQGoF+fxbnnnjvd88MVfolWOl/7zUbgtnLW7Ut2zu9SMFxvFnDSGptz8BSL0xmdg/ueFOSNgpHkwdggvfhzhOepAScHDixvpo1wZHmCwfnJU1wLk9wPJonKjxOMfOvqctiQjxxkoGeDRiBjvoKW8LneE26hZXE0dnx4gkQv83aZk7zoUV70OOY16pHORjm1sadEq9pA+WN7jYzpxJnLP5Y5r7s0FhDrwkf2qoNTzahT0FtkUDdvhaZtR53Ow8a6qbMw99Q7/WuVHW8qH9GvfiGvMZ95u61rR3krAzY15najf2pjZchX3OSTtOotHKNMGOs6YiCx6eNtL/nSi/zUL3WWLjod5V9V7jpZyK7suV1HTnna6BAvcnqSql3IdipIG48oR3l8h82bebuMjHaQdHNbCfGnc9tzHduDeuuv8lx1Xzlpe4x6nbOX/hmZ5uOI69HGlDO/DrvpYZ4ubSyOewmTNvlAPimHXTpXlrTzcpInRl2Jr07r6kBHzt2P3Y3+crRHtiCv9GV5S++cvhJXOHIufF7ubvWJTn26Jx/xg/TeoHZPnmcascM5sdPoh63M2+ywOVlZ2Q3bcG/0h2xGOotKYdKPfWfez1KOz3XzllJKKeWouPnmm6eHSyPGsSc+8Yk7V3vHm2z5SuvID/3QD02bd+9+97unt+lW/YiFdFdcccX0ppw34Pzy7Ph1VpuANtXc88MY4w9UYNooXJZvM++HLr54ygPvXeYJ95BybrzppimO+2M53syzueeeN/VWybpt3GU37/aKxZvFQb5OdaLYADQBtBgupZR1WCB6+8kCMovPbcCClB/zAGLThtpdCZsGFvN8+7ixU04MmyI2xdjXmbghVkoppZRyVJzKzbtyNBzJr82eTthsO9mNO3hTpRt3pZTd8KbG/P82bQM2FZ/bjbs74S2dvGVbTh5vRdGnh2allFJKKaWUO+jmXSmlbBk27vLVv23Bm2XbJtNRo51sZvqKXDl5ok+boqWUUkoppZQ76NdmSymllFJKKaWUUs5Q+rXZ05++eVdKKaWUUkoppZRSypbSzbtSSimllFJKKaWUUraUbt6VUkoppZRSSimllLKldPOulFJKKaWUUkoppZQtpZt3pZRSSimllFJKKaVsKd28K6WUUkoppZRSSillS+nmXSmllFJKKaWUUkopW0o370oppZRSSimllFJK2VK6eVdKKaWUUkoppZRSypbSzbtSSimllFJKKaWUUraUbt6VUkoppZRSSimllLKldPOulFJKKaWUUkoppZQtpZt3pZRSSimllFJKKaVsKd28K6WUUkoppZRSSillS+nmXSmllFJKKaWUUkopW0o370oppZRSSimllFJK2VK6eVdKKaWUUkoppZRSypbSzbtSSimllFJKKaWUUraUbt6VUkoppZRSSimllLKldPOulFJKKaWUUkoppZQtpZt3pZRSSimllFJKKaVsKd28K6WUUkoppZRSSillS+nmXSmllFLKHvntyy9fvP8DH9i5KqWUUkop5eDp5l0ppZRSyj5405vetLj88ssXn//853fulFJKKaWUcnB0826ffPrTn56Ok+GWW25ZfPzjH9+5KuWuh0XvB07Rmyv6kwW0z4NA3v96uVD/xde/fk8LdW/knGzdUqdtYhtlKgeHMerfvfOd07HXvpU30vSXkx0ntxn6ePzjH7/402Ud/2ipp4PyPaWUUkoppYSzbl+yc36oWLyb6FsMPuhBD1r8+HOfO30eFhYW/+Ztb5vKf82rXz19vvJVr9oJvYNHPOIRk2zh+S94weJHn/WsaeKexU3ygEm8fD/ykY9M149+9KMX/+DpT1/c5z73ma4hXPk/+zM/M6W10JGXOPIVH+4JGxnlSVp53eMe97hT2he9+MXT58i8LgfNvG5PfvKTF09ZHsH96ELbP30p+/cv9RVGG4ns0SM90z09z/Ndxaa8IuPIT/3kT04ybWoDmzmrFqjaVd6bbHyum7HtMA+nmycs4+DDyzq/bam3EXbGLo8aC3f1Hhezq+yO7tQt+hBnrP9+kI++S0cnmscm1EkZ+phjtzK0m807dYI67rdtXvqylx23mW0hembfqdvJon+wl/SZkXn/Ej72W/ABdJ0+xhekn2wDdMbHsRt1zL25T9mW/jtirCO3tiab81Xo6+qjrdLvfZ5KO9kW2D9bC+yNL+a/t6mvHhQZl9IvY7frbOOwyHwgD01WzbvwzmUc/pxdju3FB2WTOmHztBjrr877Gbe3gU1zkiAsc+HMa7FqTjnOe+PLscku6I5PpCNlz+d92jDz6nUyHiajvJva1JhND5k7YtUccQzfze6E7Venq2Q0Z2T74ilbPtvgm+dyr5vLH4Ruw259ejfdbjO76Xf0B3MdSUN/Pul0PrfarZ9W/9vLzTffPPmDEbp94hOfuHNVtp1v/GdLds4PDZOnt7zlLVMn/eFnPnPxsY99bOroFz/pSYuzzz57J9bBofzXvOY10znHEUdxr3vda3IyOTgnziSOghMhp4FPHpdeeul0f8zjzct62VB61jLOox75yCn+Jz/5yTs5m3e84x2Lxz72sYuHPfShxwclju3ey/J1KJ3owUsn6Kn++973vinvRy7zIhPn+B33v/+UT9I+c6nDey7lfM973jPJK1+fm+pyGIx1u+222yb5vmcpi/rRmQkimZ5zySXTtbqbxGmH0UaetLQLOlUH8stL3p/5zGemdA9d1le+69iUF3vTRuQwOEVfdOyetyrE1Z4JSxtoL+e5zz7IpL2u+uAHN9r4qBt5sQmkHsKhbUE30d0fLPP64DL/USZtLuyouXVZp/sv6xO5HKPNBvI6xBXO3k9UfjagjZS1yQ5OlG9fyqUPQ/uxi02QYaybz3n9N2GiHT+zDW0ayGIC5ThVfkS/0B9NKOd65fvw1Kc+dbKPeR8yoeNTLGr0XX5BP5EP/R81JsXGCHI5Mmle5VO2pf+O3H2pY7om96ZxWd2gHsYphzbRZrv1ldORtJlDv9aW+vm4AXGmYpFljDNm83P6Iw7C7+4H866MievmXcYJC37jLrtMWOYH5gar5gcjm+Zc7r/8Fa+405xnHLePGn77DUt/tNu827xMG6tH5rXOzVGkNXeN/evjePsyjC6etvTVFy3D5Ws+5HxEG7x6Z+49zvuiI9fKlzcZybxKxsMi8mpj4zGfSA/zNlUH9kdP6pwwOjH+s6vRZ8hvnd1lnJCnY9TpqrE3MsbuvvCFL3zdXPsVS7skhzrIw9gqz6P0z+TNGiC6XdVfNunWWmHVvP1U9em5bretT29ile2Oso/rInrlD2J/0mobutJPz1rmN9p9wtf1091se2Q/+p/bdjkxvvKVr0xtNkLnD37wg3eu9s4tt966eNe73rV406/8yuKdy89rr7128fALLpjyw+dvvHHxy2984+Ktv/Zri6uuumpx6zL+BctwzNPeuIz7gAc84OvSvuOyy6b59Bf/8i8Xf+t7v3cKw6a851xxxRWL/+2Xfmkq5+qrr1587zKflAN2Ja9VcmwjR7J5xxHYcDEo6YAcsI7NgTg/aK5fTio4EQ3DgE1QOBwTkRwmHhwOhxEnYQDhPMhtA0W6MQ9IZ/LIiZnQmwS5F6fFGXGC8pA2mz3ZnKMHWAgog0N98YtedFyubALEWXrSJK70wm00kDfxHavqctDYgDBBIB/ZyKhuZDGA5onOy1760skW6CyLded5s2ysu/qyD3VkQ+qjw9EbZ74Oean3C57//CkfsrimS+1uQLPY1EYpK52W3sictI60wahngw755cOOpUv9xFMO+2EX8kvb0Y36uyecXRj46Epa9Yq8yvB5zdIm2JH6p3z3DwsDqQGVDOQbr7WtttEu0R1disf5jhOA/7rsS/Sg/bS5cDq8cZmPRQYdpF+OyFM4hClX3NhBwuWtv/rfVO7RIzJhNLnQ9uSULm0ebA6JQyaTtmy4s93x/12RHSlX3S0cya492QsdvXt5P+mUSfZV/k568U24MOqNjOyDTSe9+iibHPK2kGIr9PuqZVjKS3rx3VMn9bGg5WfoJxtiWSDMy7Y5Sx/C5/o6EfQRR/zxSNqfHvQR9VW2RYj62RjzFFa4MPLTg/z0s5G5zubX9BGbUS69rLqfvk9nbMd95Yk/l/9PljZgYqst2UnGAG3hei/9d7S1uc2kDuRY11fSN+dx+GcPsORLZ9pX2JinsYmNxL7ZTfLRr6TBFcs24bvUzz36cJ3+Rn9sKHWILY1+wz3hsV1tbKNIWfwpRtu0AUov8tEm6XtQv7ndjn0E6p/+P6/PPO14LW/n7qc9yW2shzyF+XQ/fexMgZ9Qb+OcOrvWfvEXR0XaNvMu7ckHp43Afthc2ioys3fM5xryG/slu3afv5HW2B1b5+c9sGNL45xHfP3oqPUDOtLHLcbVix8h71hP/Z+P5VfVLfNadXCfP1Ov6Al0+vqlP7QJQDf0+9Wl3YtP/8oMyqOv+bxPP8n4w55e8fKXTz5A36FDsh5FP4rvpgfzC+3KZ9BX/IVw44H607G2jj75inVzy3V2J1/p5WnOMeqU/uSfPMCXuZ83nflL+egDzo0h+oJwOndPHeSROhwF5DtZ3dLPfnS71z4dPxfdbmuf3sRutktH7Mo8hF2omzDrK33UWJ1+Ki09yI/97NZPjc3O6W3Uf2w77FX/62y7nBincvPO5tt7r7hienB28cUXT5to11577eJxj3vcFP7zr3zltKlmc1YZ5lPnn3fe4oEPfODibb/+64sPfehD0wP6pzzlKdNYMKa1KfepT31qSvtd3/Vd0/xvcfvtxzfokvezn/3saZwZ8x658sorF7/+G78xvVlobPvwhz88yakc6eRrfUYG92z0KTdybCNH8j/vOAwdVefXOTkU9xyHgYGAI9gEmcQZ45E1MjKAVXlwlJ4EgfPUQcZ4Fh0M2D2fHGfC6cORgetLy/TiWHhc8pznTE8ohMNABnF8ncEh71UyrarLQRPHMJbpPHL7pMs4cvV0nnD1HO0h+bgvHv1LMxJ95xh1JS+TAHryOQ704hmohPmqmMlOkCfSBj6T70gGtkx2DYTyN8iNNk72lPvns3yU5SCveJEp7T7qALvJdFBEzylzfk2/6mDwNXGNDt0TL4jvegxXZ/qnK9cmAQkP8/Lm0LlwOtQu9O1TfhBmsQFhrsc2D+LzFeqgLGnEtTnpPkwk3COTdpBGfGULS75kysQpE1HxVyFMvOBaGWGuN+fisDPlsBMykNMnXYpjYEN8L12TyWdscl7W/Do2yNccFTZ3yAz9bMRk0YRyzlxn47VPeqNzNktf4326cX/e/zKOkGVVWxoH5DUn6Xfrv2xnlc2Qzbm+IZ0w91yTecR9MszjxIaF6RsW7fBgK/Fjwwmjh+RDrtjTJpsR18EO6cr9PGl3uFYH5Yy2C2HyCmO+0jiXB8a8MJdpzEscfXnUnfroP5inHa/n5YwYU4SxB/YirgXSmNfpjvlK2ocOHKOvOirGeRe0Qfor2HAWgXO0zxg3fXbu4zJej31aOu3siH2NedHVKls5Csii/YK+rk+nPuTUD8yt5m2qfqBHcyR9eOwvGH3xA3fyTFjwbRJlJv+Unz4i/qhf5+LO8zkslE1nkSm+cNz04pP5kVWbOfEXdDafW7qfvoSUwe7UV9pRF7GruV1GN2Nc+ea+T2lHnR+lTsNctxnTT5VuT6ZP6wunQ5/exG62S0dsgY6zLhLm3jnLA+n3YbSpUWfOR5vyuRf9J/46/ZMR8/CkK0fPt33bty2e8YxnLB530UWLCx7+8GlT9brrrpvCPvrRj05vsf3E8543hT9zGe95y/P4Im/Afd+FFy5+6OKLp7RP/bt/d0p7ww03TG/VCXdPWnHE9bAYydvGnfvyfvgyjyuvumoKH3Hv/PPPn+IoRxpp5ZHwCx/1qOkhnLJGObaVI/3BCs46C5Bx4nXUcHJkGic64Ejmi8VNWIwgGzqYDypBeZwoJ2Wwgicg4loImHRyZuLAph1Mtjy1EGfcLAipyyjDYTB3+mG8b5AYGa/Fm4fr8OvyBYdOPzkyWElDNxZXaVPhyctgrF2jx3FhKs3YBmmnEfeUpd3ilHxKZ8FgAaes2Lg2dihHe3nDRB5BXNcGOjKRTdzUh0zSk0l9xJXHtpB2M1E36VKHEfWa6zCou/g2YaKv/Q7U+hj9ZCMnE+S0N7SP9sxibtR/oFvy6zt0DXWyuHHPJ8YJoLpr99Q5+aqDMOVJS6a08xxxY0d7RT58ac7lHTkiS+rvfsLjR/ZaXtp2ldwHgXL0Eb6UjZOTniN35IlN5TgR+aQxaaUvuknedOU+G3DfEdvwmcn8Xu107L9sVNpV/Tdv2jrEjc2kHeUhjByeemI+ORauPmwuvo8fkddo18lTPu7zOek30SVZhWVzNIutTdChcpVDDn1aWZmUQ/7ZJHUeWQ4KfRhkGfUyynQipK3ohe5GfZ9paCOLPdDhNpG+FLnY1LpNqTDeT7+fk34whuujoI91dpt020TminSU+mTuuKo9xWHT5qT8AH3lYdYqopc5dDTX73i9zTrk383l+A1jAOiRzKt05j6d2RChMz5wnMdhrPsqPcx1tQpx19k1VulU/FX3jwrtq9/Odev+ier2RPt0UMY63W5jn97E3HYjv7GKDo1V6mru5NP4Tyd8PL+Q+2E8Hxn1Mup0nf7n87iRlDHX/7q8ytHwQz/0Q9PGWvAGuk002Pw655xzprfp/slLX7r4xy960bQplnD46uyc66+/fnHD8kAeBOFRj3rU9KbdTTfddHxj7YEPeMD0CefZOBwR9wHf+Z07V3ekcd8mnmOU6YLv/u7pkxzbypFu3nEkl77hDZNztvDclkmuQWDciEEmKRlYdsNAJI3F+jyf+QYgh8c5ckrZTAAZDEwGKeVaWInLEWdyxOkKj1OeL6jUxf29yn2qSJ3nDj+O1+d8ABzjCp8PEOJvctzq+JY3v/n4MQ76dGTyLo5FpLzTpnQsLHEsihM2bwPh5Bhlt0HneizPYlQ7Wej6p86x8bFMeYpjQuwcY/3IGZnoM2m1ddKTz8RF2FxfRwXZyEsvnuhlEzuor3pnsymfIba6qa13I2nX5RH73FSGPkx+G7lsAut0LB9x2IGvls7ZzXZPFvmrE5ug92w+ryLtYdMnmzfaYy8cZB1WkX5KPnYRf5r2Sz9kU/HZ6Sd7Rb7pu2zRWyXK057ZgHGfj05fZxcO57vZxpyx/zrSf1OXIEyeq9pGmdpCGnHWLZZHorNNGC/yZs28X4bYwFzeVcQHzPtRJu1Qd22nHcQf5wF71el+SJ7KJVc4FWWlzeR92H3lsFC/LObm85ujhs82B8oYBItPslqkahfnjvSr9KMgbBXJbwwfF59p7zHceWx+W7ApYgwwr+CLoM/pe+7RUXQTfakDnQrXT+MX8yYdxj49no+IO9ev6+SxLvyobYw+2Lz+bV4GNsO26MN5dObTtbqMOvNJj5mjC19nd6tsLRjrRub5YNSpvOb5RL5tgL6MN3PdGi/cc34qdTuyya7kMc8H8tq2Pr0JOpvbbto+uvOZ9WX0a+3ivvTmis6jL+Fznboew1fpP+WGVfpPXGHzfBD5yvbx1re+dfq85NnPnj5tisGbbd7O87VaX0l997vfPd33dVlv171lmc7/tXvPb/3WdB826dbhrbxgczCM5yPyGm0m8cYyxvB7rMlnmziSzbtMHgKngHknPQpMYsgxbsTAVwTIuZvT4Hg4SpOe+cQ2A0/qC9fiy1f8MX8TgzwNxegsM3iM95yP6dfV5TAwUUYGXThP3b19QjYHfApPvcTLxBEZlJPvfpDXqKe8KUVXyjXhH+Uc47LTsQ2yMRM9S0/P2TgIZBcn91Jvb8bIP5O+TEBMnEfdzBnblkzjAnf+9dvDZtQX1DmbltozT1CDeghTb2QhsFeih3m5QfhY3okyyjXazDrUUxuyhTnSrZN3zroyYqOr6kbn/Mc4+V1H5FhVTu4lDjseSb6b9HAqYT/q5dAe6U95AJJNSvdNMHOeeHPWtQFbZJPKUMf0eW2Z+9K6L+/nDraRdtmrTvTfcXN13dNnfVyZ2nQepl0c5NvrQmK3tkv92LA6O1aRfOY6zv1VOubnjEOJM242ykcds5E8pne+Kd/cm79xuBe0mzLX6WNTuSFhySN2SZ684XciY9a2or7bvnFHrrFPZB5Bbod2d2QOKm7mF8jXQeftluuEQzrptf98zqNM53vtn4eBzXn15u/GeWFsPQ8pjGVIW6sz/TpHPvVjNqD+ow5znronvrmN84wrynWeeHyPe4lPf86Psg+RgR5sfoxzgsiprsJjTz71f+k2zS032d0qnWbOlz6XvKK76NT90e7o3HXa2Kdj/hLBUbBJt46D0O1Irsf5tHTSj316nW63nXX6VTd1GHU2ntOxuYDx0ditX+6nn67T/3xtk+tV+kc+R39xOun/roSNu49effX0FVlfUQU7s0FmM89XW30t1Q9B5K05b+z5CuvE7bcvnvGP/tF0ev7Sx2WDbZWN3meZ/6oNuBv+7M9WbuDN7yXNeeedN31iLCebjvn6+DZyJD9Y4Z+nmkTohP7xp388Cv9IV2MfFhyCY5zE+CoAR5eFYCCjf6Y5d/7zPPwDbteci/pxRA4DpX8Cqr6Jy1j8OhmH5J+CSieua//00/8kUa5rYf6pIhk4VAO4ezZ95EOf9CrvODZ1cT7W77Agn7qoc+SjD/9ANgOHsMjvlW73YwOeLppA+sel/jmpuid8RL4Gknm7jMhLvFGP/plqNjroeC6nf8zsH7F+dsc+k5ZM/klu/lmqa/U0wI22639KqZt08pWHf8pMfmVL559zsgfnyrTokIdyR92QSTw/miHcP8Knr1EmT9APazJGBnXWNuQmpzZil9rV2yzkYo/kVgc2eO9lvcWVzn15CMvmhGv5ZUEtD4e+mAkr/INRuhNXGc5ThnhkUQb9WFxET8mHPn2mj8+vgzzp1qf20G7sgmxQPpn5C+WIm3ySlj60i01fMokvH/Uf6zoS2fOjC9K49kkO4aA3uiC/csSfl4v5PT8IQh9kkJ+8ycwHsXdhsT+6ZLeR84+X+hZmEFbXkyVtTIbox7V/LK18zNsF6h2di0eXzqWnF3UdSX9kL+I61w5sxj0T3OjEQRcmlt4IcJ8exJMvedL2kd/9dX427UeHoOOx/7Jfv8g277/JW3l0LZ/YjDZVh/g+eY3Xwf28SchORh+U8KTzww90qJ2Fxwcnz+hIPspXX/UmV2wsOiGvcOVF75FZ/vqRMGn0H/50XgdhiC2qg/LYufakt9hM8k9aMrgHthSZ+VblSmMDgy4jh7y1wab6kJ0s7sWO2EZ+KEF4/Lq0sTH3zwTMb9IPxj5Ax0eJRT29a192RC6H9nRo5xzkFc9iVruwc2nVR93G+YFF58/+7M9O7c+uxGGPaV/2x5bpQ57swX32Ix/x53ODo8ICOfMs9YuO+FE6YsPREejCBr66f3Fp49KqL3tPPmxbXn7JUn+J7ulB/2IXNgH8uFD6CP1FR/FJmdvwQdpCeuHmTe5nrDts1Ce/IEz26Mw1nfHN0VnCtbd6k3vV3FJd41/ndseG2BPoVDgZ2Kxz8zy+Ulv6BVkyWCuMOlUm+4zdkUvayDG2nc+j4rB1u65P062899Kn57rdZjbp19wmPyoT+4r9sQs+IfqlQ/rV/7I+W9dPY1ObbDv6J9Nc/3yINNG/fEbbJgd5Twf9bzOn8gcrkI27f/zCF06bc+G2r351+nGIxzzmMcc39LTxueeeO93zA2VfXcbR3n/rb/2tya999rOfnexI//SQ+373ve/xH6i4/Hd+Z4rvjb2vfu1r049OfOu3fuviIQ95yBTul2Lvu4zvhyZ8HTdjxv/1h3+4uPa666YfrHDPj2Rcfc01i6c97WnTV2jl88UvfvH4D1T4v3p+sOKofeQmjmTzzsJIp9SpdUSdlFPQuQ8TC2oNaaAAp2FiMm8wMnJOMaiRVXmox7zBhTNUdU1ckxYOy70YGZxzatGTTkYugzYjT1z5ZFGpPDq0EMJYF4PWUWCQzcBABvKpK6KzhNPZaAPi04G6CVevDBwj0ou3yXa0GT3Sifj0aOJOhlEO4dGjTVKsagM6TRt4QiV94ocxXWxirF/KdKTMVboZZUq4BWryZkOxi8NE2xpM2S/9mpjbgHDPpDO6Huuddki9E5Z66Uvqqu50kL6lfUcbdk+dlZ18lG9TFSaz2kqYScq9l2nHfNxXpmvMr0fkI432JOvY/8kH6dwXd8zHtXP3HK61F/nINNZ1RL4mRSat0UPqSK/yyuQGc/nHcsNcFnJIp73kazCEMHGhzmwdkdMkTBqT4FNB2njUgXP2JSx+YBXpY+QhszYgV3zgyNz21HNsT/fk4WBHNifH+z71cflrt7Q9+SwyNi0uxZVGnTD6Bu1At6v6b3Sj/spJPmkL9RbGNjC/DvrJaDf8x0jSRa70K31M3VN+xmsysE39HeSiR/dSDv2RY9S7MPdGvSd/aTDWQRq61Yedi0PPZHGk7Z3Lk070LWnzC7T0S+98knP3pYP7q+TYVB/QP3kc4sX3gQzK8il/8qaMM4G0IRsIqetRYkM8djGircg6Hhat4gmD9mFj+iMb1/9tAqQttbM2llY92Zx47Il/HN+0jm3IK3YZ2z5qPLRRp9hxUPe06agjcfU/0JFz9eYf+JCxH48+LfrK2GGjffQjo46kNxeLTMrmd4SxNfkKn7frYaGtyT5vQ3V1b9SZDQ/x41foL3VVF3HoTJ2wyu4yL8WoUzqn04wT0an8V+l0tDv50SkZlEPX7Dttd1Qctm7X9Wn57LVPz3W7zeym39G+xGMj6kZHo34d4rPN2Ay9reqnCfcpbzp10HXyjv75k+jftXyEGzMzlx/lON30v82cys27yy67bPEf3v/+xf3ud7/pjTVfg3V89wUXHN8Yc80e/aKrt+5+7Md+bHGvc89dfPZzn5t+rda9D+38AqxffP1b3/u9U9ubi9mwS742Av3yrHxtBl577bXTPf02eV+ytA9h/+IXfmHx/qVcT3zCE6Y3+ZzbxPvcskybgvymH7DA7cvDmks5/meer/b6iq8Nxm3lrNuX7JyXNeSJpf/PdzL4X0Ic3KrFZSmlwCDn7UVP2bMA2gZMoLx9ZWK7TXIdJZ4I28C30ZOJazn1sD0TLpsGJvOllFJKKWV/3HzzzdNbjCPmr95M2y/vfe97p6+rzvGgwddVbYjZDLv+hhumTTVvt/nF1+D/4V155ZXT5uGFF144/drryHuXaW3crQr39de3v/3tixtvumkKt+GWvG3mKT8/puHNu/yvPZt/3robv04bOeBNvzzA31a6eVdKKVuGTSH/Z8+m0LZgA8WDjG7c3YGnxb6WOv8fUuXUYkObnk0w/XuBUkoppZSyP07l5l05Go7012ZLKaV8Pd7O3aaNOxjcu0F1Z3x9I19jLwdHvl7Tr8uUUkoppZS7Kn3zrpRSSimllFJKKeUMpW/enf70zbtSSimllFJKKaWUUraUbt6VUkoppZRSSimllLKldPOulFJKKaWUUkoppZQtpZt3pZRSSimllFJKKaVsKd28K6WUUkoppZRSSillS+nmXSmllFJKKaWUUkopW0o370oppZRSSimllFJK2VK6eVdKKaWUUkoppZRSypbSzbtSSimllFJKKaWUUraUbt6VUkoppZRSSimllLKldPOulFJKKaWUUkoppZQtpZt3pZRSSimllFJKKaVsKd28K6WUUkoppZRSSillS+nmXSmllFJKKaWUUkopW0o370oppZRSSimllFJK2VK6eVdKKaWUUkoppZRSypbSzbtSSimllFJKKaWUUraUbt6VUkoppZRSSimllLKldPOulFJKKaWUUkoppZQtpZt3pZRSSimllFJKKaVsKd28K6WUUkoppZRSSillS+nmXSmllFJKKaWUUkopW0o370oppZRS9smnP/3pxYc/8pHFLbfcsnOnlFJKKaWUg6Gbd6WUUkop++Tzn//84k1vetPity+/fNrIK6WUUkop5aDo5t0+MVk/2afs0sunlLsq7//ABxYf//jHd662G/31373znYt/87a37anfqtfpUrdSdoP966+OvW5Q/dHS/m1oeSvNcSbzoAc9qH2+lFJKKaUcOGfdvmTn/Egwsb98Ock3Af7RZz1r5+7BYxFuMW5h8rM/8zPT5y++/vU7oXcwl+tFL37x4h88/emLxz/+8V+XR7DQ/8ByoXOPe9xj8YhHPGKK7zxIYxEkjTwscj6y1MN97nOfKd8nLA+II+7IKI9ypVXWPO0rX/Wq6XPkKHRMFxY15Hvyk5+8+P5HP3on9Fj9hPsU/uPPfe70GaQTrp5kp8cxnN2wn7He69iUV2QcoSfxNrVB2nFO6mGxq21Wlemecle1O+Z2Mdfdbro5KtKm5ArR14i+Jq7+AZ+7teE66IK9P32pA3o41YwbjXS8Wxn/+k1vmtrt0Tvtpf5PWbbffpAH/bzi5S/fuXP0RM/8VtrtZEkfmfd9zPtXdD/GS3r9xf29+IKjgHza1DjwUz/5kzt375B/2/rxiHbIGM2O6Xgd6sP2tZs6qa/4B9Evj5LUM35Of9COeM2rXz19nomwA3XHttnrpr7kXuZKscnRJ+ub+ujIKp805rPK3+w25zlqMj77XCVf5lSrdJj5yMiYflPaEeG7zX3i+4XL51SNNycCeVJ3tqPOo7yZi4lH3tFuPMR45zJsRF3UCfO087rObdo8alxLhP3qNPPbo2aU+7B1OzL6NfO25AEyburzpwPqwMf5HHU4t4t53Xbr0/S7zqeObbub3tJW68qZy7GuH5S9cfPNN39d36HvJz7xiTtXZdv5xn+2ZOf80OE4Lr300slxnH322YfmEDmB17zmNVP5n/nMZyZHcdttty2+8IUvTAacg1Ma5SLne97znin+NR/72OL1r3/9nfIARygOJ/awhz50cjr4nmHQeMc73rF46DLsUY985OKlL3vZlF58MuhQyn7w0kG579pgcv/733+6/x3Lzwy6b37LWyYZH/vYx05yjmkzYOXgQHGYg466kUPd6JZ89EAe91+9bAP3OXXOm64uWtaFUxYuvbjuffCDH5zqSn56ktY9OqKPUb9zxrweudQ5XcgrAw25DArCoi9tR44//uQnp/YkY8LSBmQXJ/eVox5s4aqlbL5Ope0cyov82upnfvZnv67d5aVcxC6US7ZRd8qwieI89XHvMNt2HZ9c6gvRiWO02ZB6qnN0KN6JQO90a2K2yQ5OlHsu5aNf7fC0pz51kncT+t+973WvqZ3FdT6v/yaU9balH3nB858/6WVbIAvZTqWtjX1xrlf9TtvqP8I+tvS5Yx/SJ+iJXOLwz+973/umuLGvbUF/Jp++Hr9jsbDJR2wLX1z6OfbLHnez408sbYP+xTPG+YzfOpPInEW9HOrJPpH2PdPQ396+nLtc/KQnTf3L+Lst4076kjHAvCrzhbTFG5bzTO2Ta74FGS/M5WKzaVNh836YORcdYNW4zWetGrePGnK9/BWvmM6fuhzHXI/y0eFblvUbdTi2L52Zk/BV0ZF632s5viWtMPnN9T9i7qYtRh3SfcZ/Osy8MHNuG4TKOQoyF0tdyKvumWcLd23jib7Iq25s5z8uxzdj0jh/TF2Tlv2kPca0c5uWz7r+Zj5p7mV+kvlk2lW+5ovjXFtemWsfJeM8GOROfzrVurXuort5nZXJr5lLszHrEH2XzrFbnz8doDe6oge6Jn/sgr2M9jf3B+v6dNa69C8/56Ne+BptNtrk2M9D2kqZ87Ve+kH8Ev8sbF0/KHvjK1/5yqTDEW334Ac/eOfqxLjqqqumvnTjjTcuLrjggp27x+zvrb/2a4srl+Gf+tSnFg94wAOm8vD5ZVxh73zXu6bws+92t8UDH/jAKQzX33DD4ld+5VcW7/mt31p89OqrFw9f5pu0uPLKKxfvuOyyKVzcMe+RW269dSrj13/911eWM8qhnHOWedzvfvfbCd0+jnTzTufXcXVoHFZn/IPlxIEzUi4DttnCSbiXg1wWlsIiH6dioPnhZz5z8Xs7TozDSR7gIDmvZz3rWZOjEV8+cXgGBQtOeYAjkvZJy4HBBMU1nHuyJO3LXvrS43JFFpMaDu05l1wyOUfxbTIYfDjHeV3IPtbloLFBSheekKhbJh/0oZ3Vk0zeLCK7I86fzGyDroTTo4mSQdUmps0QOvcGkDS7bdp44mTwkFd0or3l6dOgYgOUfhKezs9WTIpe/KIXHQ+LDqXPPYd8DHQGoGyoaTvx5KfOJgDaTl2iG3UXN4uL6C66oTtyfvvOBEV9MNZH/VKfg0a7mND4VOZ4re7kVH/1TP8WzyCs3uTNRFy9U0fhrr+6rIv2pwN6mw/28jVAIBM1uo0duKYj+oyutWEmY8LIeMUyf22mTOnmuvMkUFp2Cu1F/+69e2l35FPnTFaUK03snDzaM/aS/IQrM3YxRzx56dsY9UZG9sHuk159xCcHPXhKzBekXVJe0osvv+jWNT0JV7Y8tMmqsm9d5ik/9ToVtkYuh/zmuiCHe54Uazv1JQsfoH7e3jRx9CYb+fQteWkvPnFkrrP5tXqyBXVju/TCRsUz6R/v62v0JD0ZN7Ul5Eu/7ECbZCzY5CPmeYkX+xEH0kCe+kPkGW1yRHqyjHFiI/Ilj3vKji3Lk+yIDYgb+ydX7huv9Dm2w8drI9f6DL2NOiaDctyHspSvnZWduQF55m2VNy7kH3+YuBiv575COcqOfau/ukQv0ikn9RnLGfOKj2cLxnJ50wvUPf5QfsbpdW1yOvHny7rQm4W0MVmd6Cxzn6PkxqVsZNIWPtOXtIXzbBAY59VB29nMEK6NtB1/65o9x6ZHxLOZogyLXfmw//m4/dylv9KH2bJr5bCXo0Z7qRP51Y89qrdxis2zb3XSnqvaV134MONgdJRxXD70Y062Sv+BvvQpumZH0aHxWVw+Qjr50JlDucj4fZjQgT4+2g754JzO+AZjFB3yA+Qlq/se4krvwUd0Fp/HXtihuaX48SHaxRjH1rRXdHr35bm85SHvQH+x33EdQTY6Vc6oU/fEJ9dR6DSs060670W3XqBgcxn/R93y3eYB0W1sXRy6HTGPUL5ylBu714f13U19/nSAjjJXolNy65PqifgDejLO0q3rTX0aHnjIk92lvYSbe9GRvEabHPv5iPGaHczXes61Zx6spJ2tD5Qjz/ifsj8OYvPO5tcvv/GNi8997nOL+5x//uLCCy+c7rMDc6yLL7548V3f9V2L97///dMG3uMe97gp/Odf+crFF7/4xal/6fs2z84/77xpY02ev/ALvzDdf8ITnrD4oz/6o2mDUFr3bNzZcHvQMu73f//3Lz784Q8vrr766sUTl3Hn/Mqv/uoUJh8bdzb7zvnmb1485CEPmcIjB3v9y7/8y0luG5DnL+uyjRzZ/7zLID1+heiwMGlwbMIEgxPjnIJB0EQHNuds1MxRH5O3oIOMA61BRSeRj/u+YpMyOEoHB5VrcSw4PJnIogTpeMI5Zk9QfP+ZQ5uzqi4HDUeO6Eidnec+XZLJAZ8cdMJ9ZtMD0bv74tKzPEcMRtGhI4MTXSmbHunJpwEk6RNfGD2zzWDBIp7F5LwNRqRxPxPdtKGNFDKz9dQ35Y7yO4/M5HX9p8t02tYhXXQwr48yxvocNJncxAbn1+R1rf3I5G0cCHc/7aK+rukYwtmq9MJcmzglfkh5sZU52sikOHr3aTKQ+O4pI5MT13Q5Rzj5HfLT/spOH5bWRjw53dcW0mgrYWSPLamXQzxplSn+Ksg52v5cb6mXMuA89VV38diKcGW5FoedIAs1sibv5JXrMC87Nqj/HhU2U7QB5hNoE81L3/CGnas7mOtsvFZHbeVc26mrvufaxFFc9+GeY7wnH3pfhbhsi19I/DD6CPHkI848njC2oo2FuSYvucEuY6tkZ5Or7Fn8pE8c8V3HxlMP91LH2Ks+g9h/7Cr3pXGd/pxw+UD+kFZcuk0dfAp3X11dZywb2wrzcpwnb4zXcxnk6zqor35JJjhPP9lLfcZyg7yUQ8dsVbp1bXI6YYwxh6CX6HHVHOgoIAdfQNdkix9OX9L/4hOFa8PYV+yKr9aX2N8q/8YnID4QyTPlIvmyg3HOc9TQBT2k/7Fz5/FDad/URfuO41DqST/0NNqztMLkuUr/IboY83Ue3fkkU8Kd0/GqfnYYKH+0nczzojP3hau7+/N5bXTGR2b+6BrsRDx50otP16m7e2P/ynnsMESno12Ku0mnykn4UXEqdItVupXHqFt2Oeo2CJNm1J3zlLlbnz8d0F/1a310hD5Gf5D+nHir+jT9SRebG/Nkc9Fbwkd9O19lc+KO8aJrcZPfqP+sY+f9oBwtNrvY0sMf/vCdO8c477zzFs9+9rOnTd0fuvjixeMuumhx3XXXTWHe0HM86Qd/cLr/zGc8Y9osu+GGG6Zwed56662Ln3je86a0PsX//d///SncG3TiP28nXDnSXruTf/BGno27Zz7zmZMcl1xyySTn+373d6dwm4DylV4+lyw/zznnnMUV733vFL6NHNnmnUmyTjh3pttABhGObYSTWbU5to4s1j3RCSYhq+osHifLMcY5mfjrDGctzzlJzkwcfGkZHxwupymdBUIWHmFdXQ4aZYL8I+oZyDwibsLpep5W/DH9HGn8T8Ic0YU09O5T+4lHj8krg3Hscdx08YYWOXymDVYt1GPPqZM8XWsTEwvp0gbKEM+GIBl9ZlAjU+SSp7ZV/rhYh4l16jPaxTZALjKrp6f042Y2LP6z4J8jrTSewo2Tgf2QyYCNHEf6U/QabJwrB9LMEa7v2ijOJJJduHbf/9hDFvfQruIqF2kzE086cV96MqnXqrqRZd43dkM+0WnS0l/kR8qKXsWLne+1vPTJ/bbJiaIcMjr0u9hVyo88bEp4jnlb7wV56ePaKBPX8T490p2+LQ7d+nStnVfZEFnIGxscyX0+gr+Sxyo/HXsQX7gHR8gGJvkcNi/Ys3P+YU5kTpwssGOTzqPX1FFfdIifsNi/fFL3vehbuhzSI/YX2LBy1PUwMC6oA5nUd53u9kv6GDa1yekIm874yTa2CWMp2dhQbGxEPxPOvrRRYAPwUFe9bCzH3sPoD0L8prCEz5nnc9QYi+hB/zeGzX1/dDhvX/Hc47Pob9zoHn2ZtHzWKl+WeevYv6PP6GnUL+bXRwHZ6Mw8jK3EXgI9RKdsKDrNtyVsJhlD+JuM0+rlHr9gjjimXacLzO0sOh3bcUwnr3k+acttYDfdjvY66jZvRO9XtyPRgXYK8gW5Ej7qL3lsi/42kTXoqr4Y9NVV/mBTnx7nvHPobVM/n7PKPkHuVfoP0pXtwOaXN+Je+NM/vXPnDrwlZ2NOe1177bWLq6+5ZnoLDzbebKJ5Q1nYZZddNm2i+WospvNleN5+85VY53/2Z382Xduou2DYLHzgMhzXfuIT02e44frrp8+EQzr52xzMZmHysnHnrbsbdsrZRo5k845DwSaHcpSQzwAyLriyQBmd0SYysbEgGAcM+YyTRjBqzhHiB4ONiT+H6tynuOMikQ4NUiaqZJ4vEMih/LEuh0Gc7TjAOc99n3PnO8adD7IQf5UTD+pvwyXH+FaO/ExE6ZGu5KUtQOeO6FEbmwggbeDTIU/pRtktQF2P9pwNOfm+5c1vnsIsesYylWPANFlI+6TedGFBSSaf6j0udNU19bGYV/5oF0dJFvsmYyYFq944oV+TAuQzZPKWvjbaxV6InTlW2RHcT5x1mAhe8pznTPJHpnWyyEdbjXY14v6msubsJy5ij7GpVToPCWOTsdmk3439ynWy0DcfFj+m3/ict2sm8uLzgfuxGW2rH2k3fpjN6kt0ST/Ox/t0xS4cztfZhv4qT/13FdpB+DofEYwX6qZsRxYXgd2l3titjYSr2yYdqZc6P/8FL5jqvS5u2mE3fY86k2/SjXbn3MEX8g90cRgoU1/PBvupIA/5xg3Wsa6nM+zV+KqdLIx3a/vDxPjtzVuysbN5X9LPyA7h0H/VSVp9yTnYw26kTbXvKtuhm1NlU6cKdaQHfsnYOx8r1umQXhzSi0Nv8Tnz+Q5/usqXjRsjIfazzpeIe9Q6JJt6mQuSZ+6b+G7h5j50mrmauRmdzOeP6igO3UszprVuSH1HXeR8rotNOgXZ5zp1vS12uZtuY6+nSrcj0cGqzahRP6P+oudt0d86yKm+bDN9axX6MR3xB+PcMX1auwinY+OkOUjqPrcrCNvNJkfWySafVeXkfFOdyuHhq62+guprr9lkW4Wvt772da+bNsZ8NTV4E84mmrD3XnHFtEH33TubdzfddNP0OUeZsPHmzb4g71XIH6v6rDzY1Fx2X6ldZ7PbwJFs3nGsOrVFgck8B+HIZOooiWxZ1AYTOQuevTgMTi8bd9mAgHwdeS0crtWbkYg/5k+W+WATxjxGRuNcV5fDIPXm6IPz3PfVPbKlczgfw31mAw3sA9Jtgv5yRBdZXM8RrlyD1SgnIpfBbLdJvI0FE92x7cgu/5SdDVuLOXlrG+1iIWFTVvmJmzrOHU2ulTM6lQyU473DZF6uuqqXyQBZ6YeeA9sdN1fHTda9ED2sq2/a9WQx4QuZ3M3bZIQdaUO2MEe6vbbPurip06q60TP/kY2iTfVP2Givc1L+PJ9cb9LDqYQfYCuO0Z/G/8U/uq8/kUu91tVtXRtoa2X4VMdMYPXN8T7fLu/RNtbpJAvbjHOuxXWOTT5iJOMju5o/+AFfQqb5G66b4G82tWEW3uxJ/dfpc1Xd5750hPwW/mmHuQzaWLjyknfI12Ryf9zEXGeveyFpxrcvRjbVZx3sUd3oUP6O2O7pyjgWah8blPR+Ivo51ZAtvoDeLfjBb5NxHOPJrs+l3bWR8NjQ/DNkXB7nA9LKT5lpX/eCMrel3ef11Bdjoxjb1/1sQK/SYRAP0UN82aj/kehi9HGjjuhYWduiQzYy1pscjsjHhwsPNjiwSqeIvqJ3n5kvSOtaWT7pc9R3/N98DhzdjHHJNddpwnN+VDoNB6VbJM4q3Y6k7473jacgS3Q9t9ek22ay1jBnyUMzmI/Qj4N+xcHcH/hMmyB9mh1m/jV+dVV86cc0o96S3xz3tHVI+XQvP7rOPazrB+Vo8NVWNuT/aWZM9eMQjpF//MIXLv75K14xvd328z//89OmmU04m3bexPPASLiNtkt/+ZenNDbjxBtR1j12NumEjxt887hh06aiPNhZNvjCrX/1V1vdx49k887k3CQ9Rzr7uCA6Kmw0mIBkEhI47Pm9VXCUBhX1MbBwjhmAODKOKA6MEXKoDF7eBg1xs+jzT5g9LZKnsLx9Ir34zi2yhInDwcXBIvFXbSYcNCZ+kc+kmnzqGfnIpGOoP/nzuvu4oUM/7guXz4nWRZl0Ez0mLzokA32nHHG0deQkg6/QaBf1cEjrgDTqNd8glV4+4scOQC/KNFgpU3gWyut0I5wcCc8TxlX1OQxS/0yuUrcM6OpFpnFgV5+ER24H9tumyo4OlS0/ZDDXP7QJGcZJ2X5RBpSjLyELmjkZtNZhYqQN09abIP8quaV1ZKITP4K0yV5IOnml7VLXhLE9x1wOdcCpnjjpB7El57uhrvocX8vepCOvvrzKnkbbEzc+Vj7q6A0i9jguNrWpia77+RpI8EtUSF7yGdsDxrNxnMvk2Dk2+YhVpI3mpE12I3WnL2nIsw51V16OEXk4YsvxoyH+VDjYSuxT/HV1XaXDkbS1T4gPZdOjMDawCuGpE8ZFH/ltUq4re16fbPLRX/yMw/kok/zUV1rs9yHFtkFn3qbWdhm30q5HDXs2VyJTxkSk36cN42dcj+3Nv49ptZ/+GR+g7uKzFXHloz9p37TrOOdJPtJn3N4G5vWkt8jn3Fwn4epHD3Toc9Rh6p60sfX4MuGQ1rw3Gwb0t0mHmftEBuWR6ygeQIMs8TuxHeNvxhiyjTpNX4/dqbs+I23SJ6040ksbnblO2szzkrdy2Bf9zXVK/9JHp+xurlOyje1+VDoNJ6tb88tVupVv4qzSrU+6k0ZceiKH9A52nnxW9flRxm1GXcf5R9rbQ774PvUa7YLdqC/Sp4XRoXDIl26Mf/QW3UdviE2OejMGxybllfZ0T5uMcrDz5JV+EPuWZ/IvR4//X2fTzBza4dr/l/vlnQ24d7/73dOvt8ImmjfrxPd/6K679trp/vft/LiFcF9XzYbc+NVW2Oxznv+rJ6/x/9t99KMfnT4fMPyKLM7fmaP8x//4H6dPSKc8m3fyyb3gq7QP+M7v3LnaPo7k12Yz4cvx2c98Zvo87EmOzTFOI+VyEByMRdf4Kzbi+MU4v8pDzpF5Hn4NKWk5whzCOR2/dJQFi18yUqY85ZG48Ms/HJT/d+eXjRyubXxynJCP+JymX1PjnPM6auri3vzXlQ6D/GIUOfzqEzlH+dRBHQ2EdEZGdYtDphOLJPWWXrgFVuoe5G8w2eTIhclLPvKTd/Ia5SSLNvEab+RMGwgTx4Dll8Okg8FL+vlCOOmUKa346ucXlKDudCIcdJPBSlxPMcgqLdikPCGPdfU5LOicfZGP7Rpg82SUTMLIRyZ1I7t2oBO/OCWOegrzE/24fpkG+oqw9C36HfujML9ClXww6i+yOe69TOcY89GOZNEGmF8HaeShPDr2y1mjnZGPvchXPcVNPklLlvxqlnvK0nZ+OQ6p64h86Y5OhdGLfP1imvSITjHKPy8X83vyIXfsXVp1i17FdV+d9AXpI6dJGrsV/1SQNlaefB1+eYxO1Vt7zdslqH98BFuIrWWCOKL92J78xedP9Cn64Dulp0ef7qkfuXLf4X78b9peHH1ffPdHyK7cHMY59yLfbj4iKIOM2k9bza/JNo4r8+uQcqT163rqP9remM6Gm7pLwybUNWF+gEY+0dVcJ3QhnXbUJ1Nf8rItYeqgreJn09ar6iBfsEXlQtr4XPYsX23LTqVRL3ZDLnKqM1tRF/Hkn18nTt/BvNx5fZSpbKRPR6ejLqBthasX2eOfTlfoJLpzsGn1pa+jJn2JXPo3nZNN27KFyK4d2Up+XVKYerB3abWl9jPGq1f8Bdt17ZNNmLMIYwsZ91KOfMwL5jZ+1KinPqA/qCf5Vs11Rh1GDxh1yN7Huuk/+od8o8PoXz+SpzmNPOlQPqMOkw8dihcdutb/5j7xsIg8bEa9fPJnZBamfnQqjM7cE5a+Ti+xIXXic1alddCfvKMLdU570Ll2yDwvOs0vk6ec00GnIXKdqG5jR/vVrXP61OfpgN3rC3Snb+gTySflzPu8ONsOu8jcw6GO6kH+hGWcp6N53diUNHQlfPSpCY/NRW/WyGGTTWov94zX8UvacW7nSD8QJo5wciS87J9T+Wuzj7rwwunNuRzXXHPNtOn2I8v5pTz90qxfmP3s5z43+a3Lf+d3pvvs5W7LPpZfnz33W791+rVY1zbz/FrtuUubYz/S6rf+J178gDw8RBd/2uBb2qqv77r/rB/5kcX111+/+LmXv3zxXQ95yCTPtddeO+V/t7vdbbLnDy3P/YCF/4PHBl3bdLz99tsnGcn0Yz/2Y4t7nXvuTk23i7OWgvqR0rIBTx08kfS9/5PB/w+yYDrdJ/GllIPDhMmTYYtCg9Q2QS4bGPxYOfZGl/Ehk9By8Jh4eROSzksppZRSyt64+eabp5eJRsxfn/jEJ+5cnTi//MY3Tm/G+dVWeFPu7W9/+/TjD8695ZZflYU33N7+jnccf9vuoosumtLm/9d5ay+/Ouv/29kgzpty8IuzV1xxxfFwvxQrb2/2vfWtb5026PIGn7cAr/vjP57S2UiOjBD+lmV8cijb//DLG4HbSDfv9oDFtONkF2eeNNgVdpRSyjq8TetrIdu0SWajytcWbCh2o+oYnl76qqb/jbdtG61nKr5Wo39s+l98pZRSSinlzhzk5l05HI7kf96dbthsOxWLBHl0466Ushvezt22t9t8XcLXFbphcge+ckMf448nlIPF1/dqg6WUUkop5a5G37wrpZRSSimllFJKOUPpm3enP33zrpRSSimllFJKKaWULaWbd6WUUkoppZRSSimlbCndvCullFJKKaWUUkopZUvp5l0ppZRSSimllFJKKVtKN+9KKaWUUkoppZRSStlSunlXSimllFJKKaWUUsqW0s27UkoppZRSSimllFK2lG7elVJKKaWUUkoppZSypXTzrpRSSimllFJKKaWULaWbd6WUUkoppZRSSimlbCndvCullFJKKaWUUkopZUvp5l0ppZRSSimllFJKKVtKN+9KKaWUUkoppZRSStlSunlXSimllFJKKaWUUsqW0s27UkoppZRSSimllFK2lG7elVJKKaWUUkoppZSypXTzrpRSSimllFJKKaWULaWbd6WUUkoppZRSSimlbCndvCullFJKKaWUUkopZUvp5l0ppZRSSimllFJKKVtKN+9KKaWUUkoppZRSStlSunlXSimllFJKKaWUUsqW0s27Ukop5Qzl05/+9OLjH//4zlUppZRSSinldKSbd6WUUsoZym9ffvnila961eLzn//84pZbbtm5W0oppZRSSjmd6OZdKeXQ8TaQ43TBBsj7P/CBPW1+nG512xY+/JGPTBtMe0XcF734xYtffP3rF89/wQumNipfzz3ucY/Ffe5zn2kDr2/glVJKKaWUcnpy1u1Lds4PDQvgf/O2t+1cHcMC40ef9aydq3ImoJ0tqG1kaN9/8PSnT4vIYPGdcPfn4e4LF+9BD3rQFC6fYCFqQ+XRj3704vuXxybk8e/e+c7p8xGPeMTiKU9+8vG8Ll+W8aezzZbIEhlGyCJ98pvDjuUd+SK/NKnfqBs8/vGPv1Md1ululTxQpycs8zhqyDff5ErdR2y4iKveEGe3NlwHPf/rN71p8eRlGfNyTgU2lT6wrJN2WFWXOWT5yDINefDty3ZLPfcK/0g/P/szP7Nz5+ghj7r91E/+5J366alAH7ERpy/TMdjzpnK0uw0pOmJzrp+17HsnakeriG+Y+6bTgbl/4iPeubxHxx1ry17IeJPxhS/k2+YIE2cbyLi7V5n52nG8QsbwOfJNXvqRPMJ8TJfHNviMyMUXpF78+JyMbX+01J/xbiS6hHxST/Xb79xk3dwmrMv/qCAvX7pKnt10FdRJHuob37uqDcbwcf5o/jDPM5xu+sR8XF03l/7x5z53qt+m9eJYf8gzc4jddBw29Wuk/THmv+3MdTOv22hj7Fb/p5+wTi+HZbvC1/W9cuLcfPPN01xwhF6f+MQn7lyVbedI3rzToQ14OmY5c7GwNkhzCpz5S1/2suODCBsQbmBIuOvYRMLj1NmLDZ9g8BDufvJch7xStrzINOZlcq/8kcjx5zu2OpKwew6DHOSfuM7Jp2yDonq6DuSPbsj0+qU85AjiChcW3cnL9Zy96OCwIMe8X6/q5wZ5kwF1cty6Is5+kMeqck4FD15O1OTt2MvGkAmGCUvqxob2gzTaft2E56gwYWV/qyZuJ4t+YKIu/+htt/Ykjw1ScaXTz07WjkZMPi0a9C9lnG7MZT5reexFr6WADzLusP+Mj2xohD0J3xab0l8zL9irzM73Mn5a7Lxp8H3OLTyDssXhy+TnYcR8XnHYkEMbkmtTO5mfZJFO5pyH6JDu5CcOf+uTvuW717mJuVfmPtJnbgb5pP1WzQuPAvLRh/Em8sa3Xr+Um6wjc3uDOos31+uIMPnD2KPeyqEHtjbfwAqnkz7VR/nzcXU+lyZn9KouztfJrL6pvziuo8c5o47DXvt15iab8t825usMdcs6g15jY2xbvHFdNOqFXp2zy1WMepX/idounzn6C7reFtst67n22msXb3nrWxf/8rWvXbzjsssWn7/xxp2Qpe3ceuviPe95zxT2y2984+KjV1+9E3IMcZPWZ9J+9KMfna7nh7Iw5uv+WOYcaZQt7hVXXLFz9w6uvPLK4+HOTwe+8Z8t2Tk/ND7zmc9MHfLFL3rRtEC1IH7UIx+5E3rw6PzvXjY6Gb5nOQE5++yzJyfHAY0H5/Owhz50J9Vicixwb8xjXNBzRO6/733vm64t/EeEv/ktb1lc/KQnHc8jEyskvrI5vE3yeCIhv3lZe6nLQcPR6ljPueSSxdOe+tSpncmqzvTFwavzK17+8uM2QA/aQpuoOzvxVg1dkV24MEhrse/TJDL3VyGvL3zhC4uXvfSlU1nfcf/7Lz75yU9OaQxo8rWRRFZyOO51r3tNaf/gYx9bfGx5kDNhKeuhS5lyz6G+8rnosY9dXLFsEzp4zatffbwcsipfW7xtKVN0I624ZBJON3T1/Oc//7juhJvgqOtYJn1q3xcs466aPB8EsVufdDleq7v6ajvXILN45Lzqgx+c7JR+7708tIv6PXLZ/4XTAeRH79LN60V/JlcmyQZ116MduNY35EVnb3/HOyZZ0j+EuX/NMv/Y5LyfwkRFON0rJ0/9cp+8Y1rn5HafHauT9ou9yEfZwk1QvJG3qs3YqzpoU4x6k698yJD08rxxGd8ETL5sLwsIYR9cph3lpDv3otsxvXyVF5nnZYtH157Quj4VRC/qTL/yZhNk/ONlG959WU7aUJ1TrvZlZw72JB0bWNU+9KIebM595Yw2PIcsJp36s7TkkWYO2aNP56O9xh7oS9htt922sqy5jsf2QOw5ZahD/NM87XhtTKUbOmGH5KIX+dIjO9EPfEq3qq+Vuy76nDGWzbF94839lzYyjj/C2Hns66h5y3Ju5c3gvchs/MU7lvV85jOfOfn3xJn7NvFf/ZrXTA9l+GXjnHz0SXV3bkz3UEo+/IV5mf7n/KjQt/kCfZ6/zJs1oz6Em7uQWzy+QH3NzxMnvkg9MzYlLZ9ifjafD8lDXuPcRHrzrfm8UJ50ynfxl+Zq5n3yGeeFhw15ycemyENe8rAtdTaHILt5auodXQXjEVvgh+lEGyDxHWmDH17aofTGHnXOvNN4Lnw+7p5u+jSWOvQ3fYe8dDm3HXUw9jr3hp646qBO7mW9KC92zcbklfqrnzhjnnMdY7d+LX9toV9LR4fyP+p+vRfUTduTm93QgWvzEOfmJurxqle+ctKVeRY7VS9pbaw9fekT2JZ7bIodsuNNer300ktP2HaVn/mWfrNNtnsm8ZWvfGXS/wgf/eAHP3jnau/YZPul//1/X5xzzjmLCx7+8MWHP/zhxVVXXbW4+OKLp/B/8Qu/sPi//vAPF3/re793cevOhtsFF1ywOP/886cNt9e97nXT/fvd736L66677njaz37uc4vPLY9w4zLuNddcs7jwwgunuD+3tC+bcvL9wz/6o2lT7vsf85ivm4dEvnPPPXdx/nnnLS7/nd9Z3HDDDYvHLOOCPDYc5Xnut37r4j2/9VuLc775mxcPechDpvBt5UjevMubKAZ2DiKL1cOAY7CbzwlwDJzUKsjmCORzcBqM3kYeJy6PIE91MRg5OH2LrhEbM5wf8lSEw0v8dChlzeUbz5WjPIbqkDZPVObM63IY+DoBDMAgo/PUjzzuqTeiM+0Dn9ELMtiqo3smSwnbDWUpW1o6J5tFSdLH9oSxR4NG+NJS5+JpR2E+V9mMNPIxAUYGF/fFJ4N8RplHJ+M8uvHp2gKbTNra5MEEYw4bcH+vujgVqI9yY1Pza0/HXGtDOmHjoH/3oz+TMtf5yrJwdaVnti+dvjrXtzyli43N0UbSOshCn/pHbEtaerXYIvOqfgrhYx3y1E8a95Jv2i1+RRpxxrcp2YH0SRsZVhHbD3O9qbdr+cB57I/ulCG9eGSLnKmja/qla+fSR073XYd52fFdiX+yrNKLaxgntIGyUwf1Q9KRd0y3rn3cl5c2kjb1XPemXnSV/rwKZYwyjDaCVfag7DlzHTtPPPfkKe/kI191wjzteO1wLs2chCknss+fepe7NjYs0t9XwW7Yvj5ymOPPJiwY9ypzrvPJHztybyT9YlywW0zqR+InPGVnvnPU/Uk9LcDHucYcvk77ZX6R+rvP94w+S50y91J3fkje43gV+Jf53GSv88LkJ63zo9Kj9nzLm998vF3VGXlTjK7IS1fzuSOE04M22NRHxjZQhvqO873oaz7unog+HUepT34l+lsFfdFb+qgHWdBv6di8JTaqXuwx9ctYb0NpztzOET3oyyFtoIzocfQpwnN/m9HudBPbILM6ZW1iTXHpG94wnSPrcjrKnJxe6ZtfpAN2POdU227aZNt8QVnNrX/1V4uLLrpo8Y9f+MLF0572tMVT/+7fnTbabrrppunTxpzNesdPPO950ybfVTtvt9k4g7SXPPvZi+ctwx/+8IdP6b7vwgunezls9jnctyEnTvL9X1/ykimf9614q84DLOmmMi65ZJLv6quvXlx73XVT+JVXXbV43FJ+sgm3gW8Dj9zbzJFs3tmJ1yl1Xp1RJx0XPQcJB+YJwNwJ2czJkScP40SNrKPzMLDkf1oFDk8aTlE+HJgBJ8hT+ZxnnJy4iS//DP5xpAa6yDVOOC22kk4c9ckgl/hJM6/LYZDBVTuP5D6Z4pSD+rsP8VwH+Yzhq6DbS57znOOHQQXSsDFtIY/YW8Lckzb5jxsyFvfuOchgYpENhJH5RNVAZyCSl3+mLz/tAXHkRT738wn1VhYMmJFtXLCHLLxjF9sCmdSPfZo8sM8R4WmbOequf5pU0J9r8feD9qU3bz0qOxOJ6BXytNBzYK5bSC9cHfL1TDqXp3vkhL4qTP7KFZ46kwX6K5If+1DmqrrxC7GjvSIfNu2T3uhfn095iQPtAnFMzLBX/xC5Vsl9IvjaEeiXnNpK3nSQCTO/qi1Gna1L51jVPtLShTYyUc/XYlLGiDL4Cv8/bxOxGWUrTz9Uvkmqz1X2sMrONmHckRf/Tv74kPlEeL+ot/Znn/KMjcwXn+WuC/vYxLho2xb2K7M+Ko1+6b5PY+18gZj52Mg5O2Xpnx7yYZzTyG8cc7aR+LpxDkEfo/8yh8k4EfgJ8xr6XLUxtW5uEn2M7eQ899MeI67n7XEUqI8xdrQfRFfknOsq85xNczTpxzaILkadznUSpMU8fNTnqnn2NuhzFerDdug39Vc3h3mAe3Q1n4NLZ86vfcwJ5j5pruOQfjvqL+fSJHxVW0T3286oG3PDVf6aPZijZl2ctaQHnoFtj18nxlyvsbtV+kxYWBd3tN0xDK631Xbvqtj4srkGX2W9+pprps2y8847b/r85694xRQH3rSzKfbwCy6Yrr0B94Dv/M5pM87XVr1199SnPnVKNyJdwuANPSTf6a2/ZZ7KniPuhY961M7VMs3jHjd9WkNcvyzfJuB3LmUI3uwjo/vbzJFs3nEeFucWNDq9xQMncBidkmN3bGLVpNQiJ4PgujzU57k7iyuo0+j0U78snCxIU4a4o7Ny7ZwsnO74RDhPReTjfiYUq2TKBtAqh32QzJ1uyH2fqc8qVqWPTtahfSxCc4wbEtJlgW1RLi/t4X42aYSJ414GKXHZajZKxTHhHWVfNVG1mcdm5Cdv+jfhSJnuwz35GVQRe2EL6R/SSzNfWM83DLcFMpOfXXqbZ77RYCFEdgeysRWyoZL+lsF8r4hPJ3S2anMG8hZnk+70HfKzhTyZHWXJ4g3y0f/YgcmMskfcH8vbVO6JEHuUL73ObWWET1EP7ZRNpb1uBp1quelMW7CBtBuc5wlxNkDTluo6potusa59oK+JJ2025lbVW7vrV+PT+FWIo99qb/36/EE3KWedPeyVsT7kSj7j/ROF7ORbp79S1hG7Hse8bWeVzHyI8T1zA2Mt5v5zU/8dw8b+czr0pVVzXfOccc4jjN5G+MbMmSzw9zo3WeW/xvN1ep7nc9iwHfMZZO6Gua74/IxldEJvY/xVrGoD7MWW1ukr932Sfc5R63Md9EXesY/SCx3TLz1bYxlvs56C+pjHiyMPOh1Zp+OwTtd5Q3CV/rdVh3NG3VhrxI5D7tm4i94zd3Id2zb/ms/V92O7c1vN9Trdr7Pt00XvdzX8y4oXvehF01dZn72zmTdiY++Nb3zjtDHn67WwQXbDn/3Z9PabTTxvxOVrtCPe0JMum3XsZL7B56uuc5KPzb0QuxKWb96Mtpbz66+/fvrcVo5k846zGBdNqzrxUUE2xzh4wL3dFnMjJi/ScHxBnTnAuVNSbwtL9/O2yDhoSCMvizdk0MpijjNb9VRkXV0Og2y8KD84z30yG6TT5s6FxzH7HNOmzqtehw90QVc5xrxGnY+6Va5J1jjBIWPksnEwyjEu0MOqiWra2iE/7SpP933agLVxkoWDe9GNr8siMo+yh8h8FG27GyawmSyAbUafsCmjznSD1Dusqu9+kH5szxNFm8mH7HkCuwl2oE55ejmynzqti5s6jboM0tBpFgqjzc5JPqO9zkkZcz2eCr2OsGN9m9zzerumT+HkiQ8gt37pWh/aVI8Rsifuukk5vYknfxu3mejyz/ONPtfiae+5DWOTPewXea1q95B22RRnHpb+px55ILQfOy13XXZbDG8jq2TWb/ig9I119p95R77qhfhYfT8PGuKj4HyVX9gWyO+YzyHikwOdRT/i8xf0pG7xbdEFNs1N4n/neoovEi7t6KuEJ91RQJ5x426UZT4/zNwNuS+tsURceTkPrucbyvKn3zHf+Ocxf8S+xrij3W2jPtdBTrYzn0vT2zj2rpq/O5dGWnUfN5tX6Tik30a/iC7lEz3KIwjP/W0muvEZ3ehno63QC/s0Zx/1M1+DwPl4vUqvytmr7aaN1/kCPlcZp4PtlsXih3/4hxcveclLpg221772tce/lgobd+7ZMHvhT//012285Su3Nv1s6HkTL8zfugujXcDXd+dk027cDBzTzR/wj6xa628TR7Z55///2GzilG1C6ZDb4BBXTfA4DA0ep7IbFlrysXkx1km953nIl/P0OU4MONM80eMcTZKkHx2de+NTkXHAwlFOsG10cuK+QkBunxxx3obLp7YXTlZkIMjGifujjey1DUbkpYzYG1lib2T05DhyRN7IZ7Ju4W4QlFbbSpt2WjdRla+2Sng2Vg1IwuSj3SOPCUo2brWXOKNM7CMTDUgvXuQ4TJRJPjKrV+oW+citXnPHmAWQ+nj7Lraceu+V9Cn2Tr8pP5MD4dG5zxMluiVnvj6w7uulu5UTmdR9t7jKHft5oFf9gd4xtr3892oLiTe2nfZEwpQV+xuJ7Js20U8E9jAOqoEfcT99xNtiZNzLZuqc9Em2mXrP60GPnux7M49/zRuxbHQeN/JGdyfLuDEg79FOyGKjcl1ZsY20l3g53NNPHEg/zcMo/Sj2vd++WO56sMv5om3bWSez+x4uxddlrNU3hGXTns8x9/DmSfqT/DK3iv8d8/G5zf1p3fxQvdSb/Oo+1pNOzN1TP5/YNDcRz1eRpV01L+STM65GX/P2OCo9ktk8zac68dHanmwwjoy6cs1O1FGdjCV8t4ONuO88rGsD9c38Sr6Zd8rbdWQ6UX1uY99lZ+o0l019xvWiOkQX4o/9N2PguE6Y61ia9Gu6S7/Wru7F3hMm7bxfr5sHbhPkN67HPulv1I26qld8V+YI7CP1Tn3pkD1u0mtgcylPGaPtasvRdscyfI62m3y3xReU1dhoc9goe+ADHrC4aOdrqdd+4hPT56aNuwcs449vxeV8XDvO37qDdPIbNwh9BddXdedI6+uxwZuBuOC7v3txn2WYMqUNeePOj1tsM0fya7M6sU7IYXKUfg3MBpTPw4IzcHAEnFzucTQ2xDi04JeH/CqmX8QZSR7jYCM9p6Y+o1PjrPyqmbgcFuhg1cYdMkHIL8R6vZOu/DNFmxTO/QJP0rj2K0LuYV1dDov82hO5tLNfNfJrRE/akc+vJVoMJ5x+hPuFTrAF/xsxNiI/i9fRRujNgGLi6Neq1iEsv3gkr9gb3cnXryxq41Vy0j/Z6FIcuhwX0QZHC3ztMpLJvzyVy360fWxCONlXlSlvMq3TnXR+iVUdIsdhQz42Rid+7UufVj/6JLNfjRIGsgund3pwXx3Yq7BskHximV9+fVa9/E8Cdc8gH5Th6aty6Ugcek0/ZA/yV458xB3zkUYfeuxOm82vQ+yLTNLJf5y8+L8gZJAvexY3+SQte9EP2JFr7Qa/7DXWdeSLy/vi6cvqSi8+lcMO5W0B4Bqj/PNyMb+n32k76dJ22oEcwsR1H+5nQiXchEyYXwgj08miX5KFvagvnY5tFb3qS+wkcs5tY5WtjO3D9mKzyorNzH26OtFBjnsvy9cWxom5H53nP7/erV0C+xSXbPyIujqXhgzypH95zvNhG2Tk4/gZ8ntCKcy5sHlb521w4dpWeXTGn8zrWAp7Yx+xW/6dHfIB28peZRZHHzVWjGNt+qw5m/FEv/CpD/HB8teX9Bn9yKHf62fJx3g99y9HRfxj/Lh+zw8a0+Z9Xj35jHHOw2dI55zPnutr09xEXuLzbWmTUU9jemn4vHl45giHDd+YeQSdqYsD6kFXxnHzwOgqdVfXcSzRBoj/jX2tagO2JXzVvPNPljZIPyejz8yzjwp1YycZr1379dNVc+nogvzqYRykY3OD6Dj100b6Lh3rk+t0rL2kM25qQ3oxftL12K+xql9nrrnNkD9zHnXju0b7/N1l/2e75uGxa4e5Kr2qt2s2SK/qfbK2q83pMrZL93Pb3FZfcCZxKn9t9kMf+tDi13/jN6avrX7xi1+cxhW/EuuHJO517rnTr83aHDO/t+Hm3Fty0ybeWWct3v/+909jCpu57LLLJns0bpLHW3e/9mu/NuVlYzDwAf9hme5Tn/rU4n73ve9Upl+09faeeP/yta+dfjDD/8G7fRmfDaWMd/37fz/l/cxnPGPqI5/97GcXH/rwh6dfo/XW32W/+ZuL/+Yxjzn+v/G2lbNuX7JzfpfCBhvn4ut9nAjyRMC9EffF4fRGkodfo4Jz9zivcePOhMlmnAHD23Qh/xjZQjwymEhKn7y8ASJMWpCNAUoLMnkaKD7H6o09rKvLUUBenWUdWTyuY7fwcnRsattN7Xaq2nQ32zodoRtfrdH3D/IpI91hP/ojVya3pytnos3sxl2xzqUcBLv5zfa1vbGbnjrvO8Ze7an6PDn20q/Rvr13arvbyc033zztGYzQ7xOf+MSdq71jQ+7d73739H/rnNuUswH7QxdfPG2GvfZ1r9uJeQcPeOADFz/xP/1P07lNe1+LFdcvzdqg9WZdwvwfvPya7Ii36fwPPem8PeehtTLxT1760ulHMS75H//H6dpGs1+dhTLy67Ug89vf/vbFVR889rLJPHxbuctu3tnJ9xZJ3nizieb1Yk8Sxo03+KUeTw7mO/7JIxtkeb13jnBhHJR8wBnZYJvjScNP7sTxmrAdY+myYI4Dkz7lcXoW+Xkdf1NdSinbD9/if4Vs0yYZX8PfeUjQiVQppZRSSimnD6dy864cDXfZzbu9YsFqk80bcyfzxMUbK91MK6WUUkoppZRSymHSzbvTn27e7YK33hwn+6aJN+Vs/p3MBmAppZRSSimllFLKfujm3enPkfza7OmEzbZT8RUxeXTjrpRSSimllFJKKaXsh27elVJKKaWUUkoppZSypXTzrpRSSimllFJKKaWULaWbd6WUUkoppZRSSimlbCndvCullFJKKaWUUkopZUvp5l0ppZRSSimllFJKKVtKN+9KKaWUUkoppZRSStlSunlXSimllFJKKaWUUsqW0s27UkoppZRSSimllFK2lG7elVJKKaWUUkoppZSypXTzrpRSSimllFJKKaWULaWbd6WUUkoppZRSSimlbCndvCullFJKKaWUUkopZUvp5l0ppZRSSimllFJKKVtKN+9KKaWUUkoppZRSStlSunlXSimllFJKKaWUUsqW0s27UkoppZRSSimllFK2lG7elVJKKaWUUkoppZSypXTzrpRSSimllFJKKaWULaWbd6WUUkoppZRSSimlbCndvCullFJKKaWUUkopZUvp5l0ppZRSSimllFJKKVtKN+9KKaWUUkoppZRSStlSunlXSimllFJKKaWUUsqW0s27UkoppZQ1fP7zn1/ccsstO1ellFJKKaUcPt28K6WUUkpZgY27V77qVYt//aY37dwppZRSSinl8OnmXSnlSLAodpwufPzjH198+CMf2bnazOlWt1K8WbZfu33/Bz4wxfd5pnKPe9xjOj6y7PuXPOc57dellFJKKeVIOOv2JTvnh4qFwm9ffvk0Eb7Pfe6zeMLjHz99HjbksPDw+Q+e/vTjcs359qVsj1/KGF76spctnvzkJ09yz/MIFvvum/g/6EEPmuKO/Lt3vnPx6U9/evFTP/mTx/NwLf5TlnlHH6sWR3N5hCtvTLvXuhwkyl9VJ0S+dTbgvnDxHvGIR3yd/tT3j5bH9yzDhG9iU150J3wksmzS/ap0UE/1VW9xUub3P/rR0/2wqs1GNukuG0nrdHOUkCn1Dqtsztss4jx6qRfoI3R0ItDTv3nb26YyDkIX6mPxri3IqT028Yuvf/3URnwETqTP8Q/s68ef+9ydO0ePOpGLzxpt+WRIP06/Gbl82Qe+NNhR/MTI2M8SPu9L20B8SfrzNkE2Y1p0+JpXv3on5OsZ+/c7l7bArj+wvH7Lm9+8E+PMYKxn4GvVWb8+UV91uhG7Hf0zX/iny343Ikyco+ZE5E0an7uNp/yVuPqxePM6CxMn/XwbfdFo25mzRgcj83HrZOZzI/Szaf6ym46PCjKp31g34+GcdeuA/dpL2mmdzkf2o1O2L842cdi6HVHubmuNbZ1v75VV+t1kX+7NH1aPay1p099X6Xc3nY6cqnYse+Pmm2+e5jEjdPrEJz5x56psO9/4z5bsnB8qP/OzPzt1xrPPPnv6NPnXaV0fFpyTDYQPfvCDkwwGhS984QvTgpHjyWHi536cj3QMP/HneUC4r9lwNrfddtviPe95z3T+sIc+dAqHOPe///0Xj3rkIxdvuPTSSQeuP/axj00yuH+ve91rWti+5S1vmdJEJgiHTYt3vOMd0znZkha71eUgIZc6csSp00WPfeykB8QG1FH4aANkpddPfvKTUzj9iRu55U0n7nE6BpV1jHnJmxxjXm9b5kUv2il6kt9uuv+9pbzyzH15yufiJz1pGrBe/opXTHHVV93UcZRfm9GNPJwrM4OScHKSV7j0JlzyMpC9/vWvP95X6EZ5afOjRl8gM5lyYN5G91zWZYxz76W+54P2XvnMZz5z3NY22cKJctby0L7K0cdjw+v4jmU/HuuG/cjFnrSxicqJ6uQgYJ/6izqdKntjz9pOv5nrlV+k9/TNed/VL179mtdM7aI/6H/ve9/7Jtn0323Chi55yapdtwntqd/+7M/8zOKHn/nMnbur0bf5Mmlimz6zUXKmMNYzB/tkg49c2teDt6hfHhTqqg/Sg/6VNn77crxiL+OYaW5z1IuqE5HXufkBv7JqrjEyzuvGMYe/R8Z1+cqDPNvmi1bNe7GXeeaJzudGbAi8Zumzx/mLPDI33k3HRwFd8N/qrI7sKrZjnOYbzKujt9jOydqLOaQxzbXwdToVpk1HnSJzjlEOcroedX6UnErd2mymX+y1L8pz01ojuuU76Heu221nnX4R+1KvrDNiX1cs51F0iuh+1O/Y332OaXfT6ciqdtxPHyn75ytf+cqkyxH6f/CDH7xzdWJ8/sYbF1dcccXilltvXdzvfvfbubtYXHvttYt3L23g6quvXty67M8PfOADd0IWi3e/+91T+HhccMEFO6Gb0+LKK6+cbPW6665bnHvuuYt7LY9VkM3a4MqrrpryYU/xl7j+hhsm2/rQhz60spxt40g27yzWdPRXvfKV0yLGJNiEQmeNUzkMTOg4iYcuBzBOJotyDiYHZ6XBhcVpXbOcmJDXIid5cCQcTyZCHI58X/yiF00THB3FhCaLNgOSiVIWSs6fc8klU3rlMiJwUn+wTCettyEiVyZUnOSly8nqjz7rWdMbOsKUdfelUVpgJL6DnuU71uWgIIM6kUsdDRj0aAAke2yAfp721Kcel40eTSjoTx5sxKLeRo/0GTA5c2//yMNTnU0Dqbzo6WUvfemkf3lpK2m0t3K9/fWC5z//uK4yMGzS/Vy/8qFXZXjiJN0rXv7y4xNc4eKR5U3LwSq6UT91dQiP7tiDOHTnHrnlb9OQbZFX3myJHujxsFDmVcvJf5zgeE2XdGvC5RDuOoOvRUImAVkAq7d2FE4/oEPX4tLfiDgWATbVtJXr0RbIw6FrZ3Gci5Py2B99yp/cY9iIcHH5B3nTceqRNr73svzYS8oV7h5bULfY55iObtRtHEBCbFYbQ7roTfz5NRnTFnwTH6XeylA/CzXnqWNkiG7H9CZzf7ysb+LOy5IPXbPbVbLvF/k76GrezvqMBxo2lehRnZQdfZqU6ofCyaM/qKv2En8kekk95tdkoAf1ZzfGo8SjQ/7Hufhwjyxpy1X2E+SrLmyIjWQcmEOGtA1fOS5YR/nW2Q752N88zpjvaK/u60d0pt+qgzZge8pSZ+fSpG3Ygr6rL/BN2kQbkTX2L795HeSjLP1OXrEzMooX/8EGMdokOUcbnLedvP7zTpvNy8FcL2PYmHa85ueTv/ZiW/IRTldkI5O86Fa5Y75nAjbCjEP6k3bQ3mAXxiBjsH7mSLsdJSci73yuoQ9YbGbMCmxb/o9d2oF8Mm7LW1/Q/uZiT1/Or8igDH2ezTjfFsxZ1Y2djnNWcx16o4foKHMd9Vw1n9OXnOurfOF8PqfvxFcHG3fKztyI3uRFn/yAhzHe9ht1zJc4Pyr4E3Jqe/LEfrTtWO/oDSdrL/G/wqJzGxurdGocdD86VTYb5rfctznCZ8X+ycFHk+OooVt11uardGsOlHWRI4x1im7F329f3LTWIIdyIHyVbreddbYb+1IvdVFf/d9YbzynS/00cy9H1o3p78/faZt5fz9Zn5r+vp92LHvnIDbvbNr9yq/+6uIP/+iPpv2HCy+8cLpvc+2N/+pfLc4555zFrbfeOtncOd/8zYuHPOQhU/hrX/e6xU033TRt+N24/HQ87nGPm8LGtGedddbU9mNaNvWOyy5bnH/++dPmnXAbf65HbNy9blnOtddeO8193//+90+bgU98whOOh//CL/zCJB8bls+Ny3vft1OHbeRI/uedya9FjI6pk3MuNp7cO0w4HZORTZNtr21zNuNXByI/pF+Vh0GUMxoZnZZJP+Tjvq8cpQwOzZH4vjbmnMM0kPgMZIF8yOogT76uN0LX87ocFKlfylIuGSOvTzqLHqOHOBTOOfeQfNiKdPSbtLshT3HZG/2ds0yvbZK3+6AfR66xSfcj7kuXibDBCuoBMsiH7NoWKR/up+6pI5nJY2Gof0QHz9qxOcgreR8myrUBGX3Mrz1184aW+mvrfP1BuHjRATtxHXsRbiIqvYmqw/kcupaOrlZBb8p3yE8+4qdtnbs/hq36ioayTVIc4rgmu7jqxcn7umHa2Xne5JTvi1784uPtqm7z/JS/CvllooS53nKdcp27p36pE5ugHzKmPHFAJnHoSR7C2Bl8ug7zstml89TrMEmf//NlPX0NjhwmnvoL1FnfTj8coQv1iM7Ga3rTNnTlmm7G+66dC2er0qado9tM8udIJ70J6KZ+qi1G+/DWQdpEeZFPmcpzPUe8pB/jyGe017Qlmd0jo/qILywya+PxPuTrXkhfg/Kli17GOox9XZnsVDnxicJin3C9zm+MbYdRhrlPUYY6r9PdmBbz+ozljNCNMHYYfa/rz6crxlkL5DlpN+1DX6v0cxRskher5HXOr6Rvxsdo+xHx2F82BOE8/YVt5R7ohyzboptg7sAXxWcGPpUO9LX5XCd9aZzPqVvGAHWXX3QXfc7rHl2N81P5uC+vxB8X5vTpftrwKCDDOGcM+ZcOdEdn7Ctynqy9+HRv1Lk5QdIF+YmbeEiebJhelTfKIW7kOGrIZYNorttAx3PdrqqT873qdsS9sf9Hj+n/ypI2JM+5f9hWyLvKdumIPdEZn6i/W2ekrtE1vc/9Qfp7dDHv73Odxi/s1ae6v992LEeLN9qe/exnf93G2Xt+67cWj7voosU/fuELp+Piiy9eXPfHfzyF2SCDdAl3BGkf/vCHT/d+4nnPm87ds8lmw80befIW9s9f8YrFAx7wgOlNvjnvu+KKqaz/9SUvmeL+xE/8xOKGG25YfPSjH53CL7vsssm2Us5T/+7fXVy1rM+11103hW8jR7J5p1PqsByCTx10XBwcFusGi8BpO+YLQffy5EuD70YWQWM+6hyHNocjJVscFn3FkdGRRQLdIZMH14ljoaK8kXV1OSjIglE/znNfPcbNCahzbEC8sX2kdQjP+Rz1s1mSI4tGeQkzCElvYZZFlmuHxZdP+hs3XKR1rNL9iDbWnmlTA4xJALv2T87lb9ON3OrtkzwGobQNlKUckDEyjRtEQd7Pf8ELpjjZzNsW1EMdTRpWbWQLT/vMUR+6s6FNn2mD/UBn7Mcbk8rOYmHMx7nw/H+vtMFIwi99wxumPKQxATHZdD96t4DPhIPMwsRBJj02D0Af8hNPmWnvEXnt5p/myIdNkIGs9G9jiyzRf+pIbuGO2PNen2RmY9qC5TBQL3VyxGb43/SH+BHX+pT2sdhcpdd1jItTutI+8lWmfPRnE1v3+WXlxzYc4saHzCETdvO9bBbsQ57aJjaTMD5EGDnVNzoIaW9yJo42Vyf30w+SLvfZKvnUVxjblEfSuD9O3tcx6kU91IFvHJF/xrjDeHoem0ld6SX1PBni6+k3+UbfZwrabxXsnL3To/oan7ZhMbtJXn1olbzC5nMN1/O+HH83luFBIOSbudg4r1mVz1GzSUfsl56cj3Md9cM8be6LP9Ybq+qePjfm4+1W0N+qMSU6Pko9rtOZt2/BT5NPn8ha5mTtha7m5a7Saa7HuOLNGcNznvY7SuZ1DJHtIHQ7Qs+jvpKnuJFhDM/5qry2kXX6Jb9jXGdEv4Fu6MA9/iBjqet5vvSS/i18rlPXY944U3xqWUwbX/M31XwV1aaZTbf3vve9i7e89a2LB3znd04bZMjm3fVLuxHmLTqbctO9nbQXPupR0zVs1Nm4c/+G66+f7l2085YeLliW4w08cUbkRYZsLIrnbb5rrrlmur722msnudxD3vwj17ZyZL82q2NaMFgQmVS73svi4DCx6OIoTMqDiR/HkYn7bli4yMeTzjGNfManOcFkSdj4JCqLRnpyWGTNF4ryF88igiOcb4ysqstBsm7AGO9nYFzFqvS7OWwOnh5yZIM10Cn9PXepJzrO5MgmEb3RXxac0d9edM9u1WVcnGt38dxTrrY2+Iknf/nKwyJC26Rd0ubClBeZMO8fNmDkDXazm34OE5sI5LERqo7ZHAkGbZuoWdhnkyJk4zr62GQrq1C2tHTNLlbZk/vipIxVaBsTGgu99N9Rlkw0ID8bHWxLveb5ZpKY+/lc126b5FpFFl3S0S17Sb3neamXuOyTnWG/i+91cp9q6C0b8nTL7tXH11sQObSLcHqg//3Ix97kyQ5tiKc/aVOHvqz83KdXk95MdmMbmbwGskirH++GOMnX52iz6kwO7aqeac95Hcc0kWlcEI/hsOmsDurGJlYxPkTaDTYXvYAMZBzT0jH53eMb5nU41SR/5WmLdbrbL+pGn2wu1xj1faaSjd2MT+o+9+HbxFxefWmTvKtsY9531nHQ9nxQ0M26uc66uue+z734h/S9kegr/vx0wrzN/DFzSzqkh/k4MGfU52gv4/k6Xe3FDsd8wqp728w63fK3e9EB9lLnVXrGbm20Vxm2GfqkX7r16TrrDNf8gTD6t4bJfH1d3dfpEvu1v930X7aLbHyN5OGGt+W8bWdT7a2/9mvTRt7EWf7pymJx9c4mmq+y+nqreEl7/mBT2Xy7/vrrj2/Q3Wd408+bd5hv3vla7hz2FVsSP2mRcub5bBNHsnmng1NcOrqJFLapUxogHOOGDGxCkHeTkwocnQWRjaQxHw7SMd9csjC02OM0x/zdGycDMWb6yoQnb8OAfKMu19XlIMnTVOUGdUhbR8ZRTuGpt895Wsx1NsKmvMmRI2XJKwsrjIv+cbCCPEb9bdJ90M7yH8vIZo+292nxLY37Pj1R0s6ZnJAj8mbQGj8dKZO8dCO+vL2NI/0o51Gj3nkbhWw2LkedaUcTgrGNRlL3k2Es70SxcUHXe8lLHAvCtPuc/daJ3uasuhfkz5boFWP/mZN85npfxboyT0Ub7QX6ZEsOk8m8PRbbSf81uVR/98m2l7oF8eVPd2zWopXvdt9iX765760xsOHoOPYx10keAvDtNsj4E/rM5tZINlSVNYff0L+zcbkXMvlZtyiWZ/ole41e1zHWbV1/ICOd0JX4q/SifehUecJHv7XJvkdOxNfR7/wXR8O6+sw3iOc6ZXNkER5byNh3pqKu+tyos7Gtt41V8upDuWaPo69kg8LiX0LmWKMNJZ246ZejbQqf57OtbJrrrJrP0VPqFn2OOpbX3FexE8dYTja7xd1Nx9sG2caHXvFz9JC56qq6qOsqe3GeetJ5bDG4nuvU9VynKVMeiT/Koa2xzba5TrfmzrvZSeo16kT4qvrSz7wNoIzddHs6k7rFPvIZe+Mzx3rTXcLEndumuGNeaQ+s86kn20fK6YE33aavqy4P/zfSZl7um9N7a++SZz97CvdW3e///u8ffzEic66RcUNvZLTH/TJu1G3zpl04ks07b+XozCbTPrMYyhP+bYBsHIdFyAjHYjG5G9m4M7nPIi9OyQagvEcHZHFnYWgRxQDFjcMygHmbIffkHceWRRIdCpOHeKMu19XlIJnLRWaf+ZoU+dSTbO6L5zrhPkcb8Sm/veh+jrzoxWCUvKI/eXqbZa6/yCHNOt0nXJ7zjVH5ii+d8Czis+jLV3eFk8dkSr9Ayh51I48MdGRkL9I6yITIdBion4PcZEj9IgOZ2bm6jIN+JjziSx/2u7GcvpPyM8lL/uyE7tynuxMl5ShDm2Gdn0od17WDvGILu8kkj1Vx6JXNkQejD+FrXI96XUdkJIv8kHQJY2NsMGWFyHWqJ6/pLzlGyDTXqzZ2xNdK41P/WOXr0vfYhEM8RNfqSwf0CPdyH7mvncXLBIINOuQztgfYtTd9+XVH2mfVRpmy5LGq/aLzuQ7miKc91S99ci5TuHEnT32UTY/xxnxS//gf0EHsQ9y57UB7OuZ1UnfXq+qpDdm4A4mTT/eVSd9zyKS8MJ7DGwQ2P1exrj7RSXSRvpJ6ZjySNjZwImPU6QZfqM7ps+q+zfXeJC/b1+Zp+9he7hunY8fSeEAz5pO5jvg+pRc+n0tsO/xF5iSOTfNMYWPd1F0fokPh4rlOuHwz5vOjdKM/jeXoa465jtf5822AjPm/nmxl9Lknay+pc8J9KkM60HXKM3eUnn8adar8UQ5hOSLHtrJOt8ah3XQrzirdZgyXThjoW5z0f5/Syh90K+9Vuj2dUe/0WfWOPjLO01F8n3qP/XC0QeHSjv3dZ3Q55i2d6xP1qbHhlFO2m7zB9p3f+Z3TJ9zL5pivs/pRijC+8ZY36vxvuuCNO5x/3nnH59+f+MQnpk/c8Gd/Nr0BeN4yfOThD3vYnfLx1VybhHnbTrlkCSnnAVv8i7NH8muzOqyXJXVEvxbiF6/8mlIc62HDGTiygeCcg85XlQLnlF+IVYcRDodzSR4miuKrG6eXQ7i8/eKJHWhwZt6AgF/ZSVxpOSlPgJz7hVW/1KJsv27FqfllFL+SJz5dksPiaLe6HDSRizzkIge58utWsQFh6hQb8KtDIKtwsrMTv2qmDvMBU7h748JyjnBtQX/yck5/flEpcpJh1F/k9Mu363QPkwuyRt+BPEmnzNTvSU869gudfsVNm2UwGstkGzZGIpO0T12GZXNP3tGrPPxCm19iOszJhDr4RSFykMGvVCmfHugm+hLGvm1cqDNdqY/7DufC0hfkpx+pq3xyrR+MfU757MMvpo3lZ3Guz+hLaTM6oufkw258ZhIwvw5sRRuRgTzqN/op98nonjYTVx1NOpI215GJzPISPtZ1hM7yi1vqqgxx/GIi3UrLZjKJIv+6cjG/R9bIQi/qzoaUkTD3yaEc55HTJJq+xSfbySJvR9rSkfLIrMx5uwR14RvEk44+9bFVmzT///b+Pda2rLzvvFd1jGWwYiIgskkK3G1CmdiCsrAlKAsjARKWUvxB1FSkJmqKP4gA/4G5/YGxC0WUY5ACBvOmwdjIDbhNJMBtHAFpiCiigA28MoQyCpciyIGiRSyq0AvhIgyo3vWZ3r/jUcNzrb3Pbe91it9XmmfNOcfteZ7xjGeMOdZc+xjv8T1twbhSh/YSi9I//pe71O3IfeNYXel7ttIvNofyv7gGdtXvObSjTrab0QYyzsfr2Cj+O18H8phLoh9Z/W+8YSxHZvnlZRc6uZbGX8Q2ac6N0fQBX+MT9I5fsrfyifnpR/4hXrLLOFZii8iiDvpqR5vqds+bkD5TL79Tj1g56s9PXdPDGE0d2nFPmcSmsV1ltethYU0f6fSPz+i7MV4ZK4nR+d9Mlb+nwUZsYazoU/3BHpmD9CmbXYp4cCk4H3nFxHmtkfmUX9n4U17/mnuVTz3uqUefqyvzunS+xK+MwUOEfBkXoJvxxQ50YJf4c2yoDN2Mn3HNwta71nPGDxuqR39oR7tpx31vG2fczDbOvJ70syQxLLFD/9MvvsNfxrXYxfiLPOJL0vWN2JP5QZy3rhGL9BW/3WdT/k9G6fIfik3DadhWOvyPy+zJlmyhHfky/uVLO8fZ9kphtm/GLJ3pPo5ZjPbzOfrMvvEOeY+LqZ6t5DuffjRHH3JMvVK4HP/bbPC/+tsM87/NqvO2227bfOpTn1o2ymyYeevOub8r9xd/8Reb3/u931t8xYbbf/gP/2G55y28H/mRH1nKfvKTn9z86I/+6OZrX/va5o//3b9byj7h8Y9f2vCfSvgbd6nbfzzx2Mc+dvPTP/VTy/9++2cf/ehyfp8f/uHlf5jVjs29P/7jP9785V/+5dIOGY3/D2/jo//J9rvf/e7y0173n/q//W+LTofIVXdtOTo/EwxkgeBKwDeFHmi85qljLxR/U0lwEoTOBw7m2GUvtiTXxch2OdgnV3S60PTzIXVdiP2OK7uLi2kTl0OmSw0ZMcsR+dbk35d2PhxXz3H2PQtOIpOJ1U8rLRKziAz0xaXQaVffQdrafT//JJPNqkPipH29z2d22SP318qoy8J47qezYp9+a+yz23E23ZW+y44nhT39nM7D/sg+eeiMpMl7vu3vqv98bfr9wr7+OESO85+1Ps69EfVgl39daXYZiR0uRLfzseFJ2sGFxpDT5GJ1Oc5f1tLv6TYNl8u2s/3SzlpeHCfHlQwb7dKLzthnk+NsNqfn3siF9mM5f77+9a8vG6sj7G7j62L5tZtuWn4O63+QhU01/xmFTTb4jyNsmuUtO/9jrI02b9vZWPOFus05HFdW+qte/erlE9Kf/axnLfX89utfv7xt53+hhXZsAEP6DTfcsPwHGMFLETYeoX4/4c2beYfImW/eXUkIHoKObwsuFOU9mKijQaiUsguTq1jxnKO/YXcI+ObWTyG8kXFPXMReCL5Z9rMOf3syb0WUi8M37d5e96ZJ3gwqpZRSSikXzuXcvNtFfipr42wNP2Ud//OJEWX9rctd6cr6szhz3dkQDKlnLS+Oa+eQ6OZdKaWUchHc+PSnd6PpElObllJKKaVcOs5i865cWrp5V0oppVwE/UnHpac2LaWUUkq5dHTz7srnTP632VJKKeWegoVPN5kuLbVpKaWUUkopf0M370oppZRSSimllFJKOVC6eVdKKaWUUkoppZRSyoHSzbtSSimllFJKKaWUUg6Ubt6VUkoppZRSSimllHKgdPOulFJKKaWUUkoppZQDpZt3pZRSSimllFJKKaUcKN28K6WUUkoppZRSSinlQOnmXSmllFJKKaWUUkopB0o370oppZRSSimllFJKOVC6eVdKKaWUUkoppZRSyoHSzbtSSimllFJKKaWUUg6Ubt6VUkoppZRSSimllHKgdPOulFJKKaWUUkoppZQDpZt3pZRSSimllFJKKaUcKN28K6WUUkoppZRSSinlQOnmXSmllFJKKaWUUkopB0o370oppZRSSimllFJKOVC6eVdKKaWUUkoppZRSyoHSzbtSSimllFJKKaWUUg6Ubt6VUkoppZRSSimllHKgdPOulFJKKaWUUkoppZQDpZt3pZRSSimllFJKKaUcKN28K6WUUkoppZRSSinlQOnmXSmllFLKCt/85jePzkoppZRSSjk7rrpry9H5qfGBD37w6OxvuM997rP52Uc+8uiqlFJKKeXssHH3ghe+cPOABzxgc/NLX3p0t5RSSinlyuPrX//65h3veMfR1V9jjfPYxz726KocOmeyeWcxPHLHHXcsjvPKV7zi6E4p5Z5O3mixcX8l8IUvfGGR+WEPe9jRnd2IafS6UnQr39/w64xHc/FJMB7k9XmSMXElwia/9ZrXbD796U8vuv7Ki150YvuUcojwaV+g++TLv/CYxxylbBY///J27hr5x9uxHZ/fVxZjunL74oK2PrU98sX9PK4+9rGPbT5/FGOkn/VcSq88q4w2cY8eI39/mzbqvk+X87Hpgx/84L0vOZyPTUcdzppLZdtZp+NsOxLbQb6xHhxn20Nmzb5rtkXs21hwz6Wbd1c+Z7J5NyKAvOzlL18G9r94xjOO7p4OCWj/9MlPXgLMe9773qOUv0Ege8wQlMj6yG3w+MUnPnG5HusI4ySwFrSU+eD28CCABCaMk4Z65R2Z5dk14fzRNDAxlz0NottaUD6f4L+WHvscNzFgX12j/UNsua8P3Jc+wzfoe5z8u/ou7LNd+Og2j4fnk9jgtBj1Dmu+Zyyx35OPxo48F6oDGxi/xiZbXWrooz/oRI+5L2d+9w1vWPr3YnR771afb2zbG2PLWRM7//OnPvWSLaAyDjJuRmIDSPvx7cPLbMd5nI0LzLNmlH/kkPqU3W56yUvOxbI3vfGNy+cu0l900xfGxXFlrkQS32MXD87839g/lFh7Gozz1DzPrK0zztK398m6NhZHWfWt+RTmEP29i/jGWryZ49Fxc8VpQmbzLtnox15slLVoNqrHOCzWm1fXypoLs26XLo4g6ea/NX/w4Mh35FMfxo1x86c1snT94r43Xy/VnHO+JD6SxyciD7/6g7e85W4+wF7shn260F3du/pjzeYntalDPa5BRrK6Vq/2z9Km4WJsO+q05ideFNll2xHj/jVb31fOQY7nPOc559aSx9n2kNllX+fG+4h7GdONBfdcLsfm3W233bYcuOaaa5YDH/rQhzZ33nnncj7ypCc9afOtb31r8773ve/ozl9z73vfe/OEJzzh6Oru9T76uus2D7j//Zfz8PGPf3zzxS9+cSl37c/8zN9KD9/ctvWhP/3Tpc37b/Nct61r5PZtHbdu68Io/6Hyd/7llqPzM0Hgtfj/5W2gPK3BmKClbUFFQPnqV7+6ect2IhAccuRhPYsv5eR50vXXL9dzHbBoMwkop04DhF7/6CEPWdKhDgPFxGDycS3/5z73uaW+Rzz84Zv73ve+iwxv2AYu7Uamb23zPepRj1rqUbfAtlZWuZRxzLqcBqNubCQA0zn9/NKbb17k+s53vnPODx691e1e97rXorP0T3ziE+fS3ctkKtjTUTpbWkDv4ri63vimNy1tf+lLXzpnryzIPQi8aZu+1geROffpqI3HP+5xi84v+pVfWe7jXe9615Ie+7ONetf6LumxnTY+8pGPLGXZJpDpla985YlscJrQlUzkywH6jfzw1g9Gm7t+yDBOzgf1sNcDH/jAy2IHfU4nqF87+7hqe4y66cdZ/32w2Su2favPLVoOhcQWXCo7i5limXEzzwGvfd3rlnHDlhknbJOxa9H98u0iMnnEGONljDNnyVvf9rZFtvhBYsTaIvasEBON2X92ww2bp9944167se07t3n1AV9QVuw5zXnlNNBXbEJPY9fxD7Zj3j0PgDaRvx84bj1j7LHVGOvyxeZpc5ys1gC7ZE0cSbp+HsuOWHOpWzvGspiTudk9D63uZ60xzvtnDVmtJV7+spctuptz3//+9y/x0nh2bg728CzdkbnOmoteY1l2ylopa9GX3HTTku5cuvN53WLt/MTtfet+bbOTPnOuL962jZs2CmwGqF+6Oi7H3H4c+o8ez372s5cYSUb9z17848+3NqGTXw7FZpnrZ12UVVd0+fC2L/RJbOpLPrrGptaB6p5typ/GOB2b2kB54QtesLSjL/mzvHSw3owc1tl0OCubhtjWvEO287HtrBM9R53EA7ZlO89sYra2rKfE8hHraPZ8zW/91tKGutlPudm22tFHse0hs893ncemDvqb39mT79Hf2I/vOU4aC/it8XyhscBaj20PLRbcU/irv/qrxTdG9P+P//iPH12dHzbQ/s3/8X8sG2Nf+9rXNu9697s39/6hH9r8xE/8xOaWW25ZxvEX/9//dzlu++xnN5/81KeWsfXf//IvN7/3e7+3+cpXvnIuXflsrPGZN//+7y/1/rf/9t+Wun7qp396c98f+ZEl/e1vf/vmbdtD+mf/63/dfPjDH9484tpr7xYbccedd27+9b/+15tPfvKTm+9897uLb3tGywbdbbfdtqTbBJQ+yn+onOl/WGHgCgKCogF/WgjqOlfACNo3QeTItzNjcLaRo5zFO7mVGeuAwOKbCd8MqENe90YMGkFKQJPmGwn5HSAf8sryKJdvgxDbjWXJk7JjmTVdLjd0HHUjA33zdiM5TX7P2AZkaQ7XkZ9udExZD7smYvW671ywPwnqQuoyEaQekIsPjjbTb7hzTx+YTMb7fEMfpB/Uqz1yjm06Rtsoa0FhwkNsp4x0B+g8Qq85SJ0WdKMjWedretGZTdnReDBpQ3ps4z4byufTWJLukM5X5E0/jbgnjc+sMZd3PuaNDNpiR4uENaQra+yTT3+SO/fjpyPSvDEZ/eJzSUu5XW1CHqgDykXmtWvn7iG2cR07zO1ZpMkT2cfySQtzW/qLf+b6cmNsZIzpgzEO2LA1BpLuIJcHyZnEl8g9X/scbbV2X/7YjAzuOWK7GX0/ykZW9ltDHWlnrm+WbY1decZ6R1+Vnz7Snrr1T74mduW+/KO+IePAYVxHH+W0q5xj1EEdY13xMWXgfMw/Xh/Xb6O/pp1xrMsX/aWN+ii7Ni743Bib6HrvIdaSLXX53NUnVzrGOb/I3DmuZ2JHsX708bNin6zxFX25Jqs4wvdf99rXLveV9ZCbckE/iz+Zm7XDDvwr6a6TxjZ85VD8gz/Tj64YfRpkF6PW4gU92CVlM+6jm7EzplvjYtZdPmQ9Kr9+y/2M+6yt1Wk85v5po302iz7BhgXYiA7kn+PerAs9HNGVL7kebcr+YgrkG9OzjpptOv5yB/KrK3Ewb6Omz6TTK3KcFbFt5AonsW1sENvKt2ZbB/gY2846s5F2Ug/IY+xLm22bOfys/PF8OM53R8Q7+R2I7ddiAbvIJx3pv12xILY7aSyI387jR53680qw/fcTt7z//Zurr75686svfvHm+c973vLlgA0w3HjjjZtfv/nmc4fx89CHPnRJ81IElEm6c9iQ80XxdY9+9FKvQ1mbufCm3PtuuWVz/fXXL2nPe+5zlzH7/u29GZuAiHxeFFC3jUTYAPQ23r/69V9f0slHfjIcKme6eScg4LTfQjABWlRxhF2QTSAZJxUBI4GNzBaCcx3qdT9IH/Mk6KjHfYE1E/Jcl2DpnjLkyYSOTCiCsuDq0HY2CUbWdLncZLEwBmU6J1j7pFsmlQT62GeeHBK8BX/lLI7TF8eRutiTLSxYxwVs7Lw2SfmZTeSa+2AkD3LxZd+gjtiIVY92Uv/49kb6Gdkk1l9korMHgXFxoT2LE/fPAkHSG1ixx3xt88Q1GS0Kspki3f08FNHVdfxFum/ivL3ggUqa1/Nn2FDavBgIeXNRntTlM+2mXgf5vLHB1jNJ9xAoT36GwRfck5Z70IYy0tJmFiJkleZ+6nO9Bl/gs/wAs91ynbqdu8cukZm/0cl5dJQH5Fcm3+w7dw/KuA5z2+RynrZPk8QL40kMJPsYh+lsTKzNKexPj7E/cq0e/chOfJatxvv6zH35+SqbsHP823nst4v0z5psqcMn33AefxxlGP1whj4pLw/fwy5fNc5GvbSZfnWtzHgfGVdh9BXtazdtjTqM45xva9tn+k3aaL/xel+/YZSBrZzLk+uM//PVZ45NI7GR+pVPn6Teewr71jN0z6e+in+fFftkja+sySrN+drD+6xP5ujkFW/WNgzcx64Ng7OCLJGNbsYpXbPB4R4dyOuTT0dn9khZpK7RTmP62M5IfrqcNpF6oD/GeuB6ruc0GeURM1zrW5CLjcQOn2Pcm20GekdXZeOjwXXSfc52QtJD/HtsK/VoI+2Mbck713MWjDLHtlnbX4xtfa7ZVp0jyT+ux7N+l7bLtpjrOkTW7BvfDWtrE9e7YoG00bbO1cteOU5ir+NigfxjPXA911POlqc97WnnNt0Wrrrqbv4R8hNaP5lFfk6rP9/5zncu6eEzn/nM8umnslh+FvuIR2w++9nPLptq+YmrzT3YfPMm3a1//ufL9citt966ufof/sMlDx7/+Mcvn7dvx7a6vHFnw1EbsLnnvg3CQ+XMNu90loBg4TAPzsvNmlONRLb5IUvgysPjLpndT/0JfNmcg4eK8aF8zG8hheRPELTYNIF4WMgmSCYUD0FrwTXs0uVyk+A62omeuU+vMWBD3l1BW1mH9JzPsInJPYcJKffZha1iR+lBnR7spLHVuOFCDoc+UIeyJsAZfUfebJD6dOgTh3q93UJuevvMhKneuT2QURrZnOe+T+15w2200SFBbrLZSPE2w/hQBTqkf2b0B9vZYM2ma3Q/KcaE9tVhQzsPW7EznOftCJB5JvI71EEOY5g+6s64ck99DjLLryxdstjM+FZOunzajM+PqOdC+paPkzG+IZZEFkRH1xlHGQsnjRFZ5OYLhMsN+8QHYks/mUhfJo5I51Pksrm3Ztdd2KAZ/c7fcFOvOuf75gDts6t7DrbWv/valK6etX7lP/qCL6rPefyFTuoVP7SpDnJF/0AuZZNHuv5e81W4Hx2kqVMavd13xOd3jdWR2CR1RofRJurKHHYac1JirBgw6rM21s+HPPywl3p39cmVDl/VjzAPjeuZPHhlfWITUyzZNwYuJ6Osa2sviB9k5ZeRNfKmLPLwPsc4eefxa7ykDj4w1gPX7h8S5EncH7/wzdg1P/iClOyJuWus2e6kpOzMWnyU90LauNSIXfwn8yecx2YOsSCxe41deo+MeU6Sf+1NqrDLbiep9zRhW3GZDeMDF2Pb89VvV/59tr2SWPPdwKbWo45wXCyY67gYf9pVds135d3l0+Vs8HfmsvHlJ7R+vuqNuBlvs3mr7ZqjN++yeectOD+Z9RPZ33zVq5Z7eett/Bt23u6DtJTNhhz81HXt7+vJn7JImWWD7vbbl/OxnvhXfnl3iJzZ5p0FH05jAX++kM3kYaIIgp4FTx4Uj8PiUbD0ED3WY3Jaq0Pw1K6Ht0xcFlUJnu6zlXrHhaDF6a7gijVdToOTBNd9wX5X0N6HMpmAHPPbb2wZO+oHfYpMUh5m2RGxYx582djh4c9DzChLHhBHX3ZPX7mnH8nj4SYTj3vat7HHT/IwmL6XT9vk1a7ryJTP+cHkkCAbm9AvDwkjdGcPNkI+g40Itog9Rp8/CeyV8nx/zZ/iJ7H92KdBP5LfQ7q8IEvkuv/RJ4xr/cq38g3nCJ0jE/K51i7m8sfhYTV2sslMjug91yUuaJd/8jGcZINmZJfcl5qMEwcdszGZRXXkkE8c5Vf0Px/54m/GdsYk9Kn7/PPZv/RLy331squN0vh2fIgMa6zFiBF+kzp9jhsCyrimV3wIs37Kpb/jqzYlk3/0VZCHPr6smBflqScxZpdeI8ZIbEI2NvE5jl39E7m1O+twuaAPHTP3zv9xwfnCpg7+iNj7tDa0Txv+L6aN6xljJnOnGOLQ19kcPivIOq+99M8oq7mVrMZlfH2Nkzy4n5YPXyronbhlbTHqb5xHH/fZLeOXv5tTgvvyui+vI3mR8/nvQyYejTFljGupZ7Sr61HOs4BP0Z/NIitGm0BaZLcGnXUZdRWPRjvIJ3/ilHyznTCvbZM/Noe86Rd9oO7ZpqMeZwnbiqXH2XbU42JtG5J/jN0pJy35x7rUw66HYr/j2OW72LU2oW9sS9fzjQWzvXBPiQVlndtuu23ZgLNxlzfiwvzWHZzffPRT2Wc985mb6//JP1nerPMm3BqjH5yvD2QzcGbctJuZ/6zEIXEmm3cGnwWWhdUcSM6ayDYHMoGKrHPgX2NcPI71cDyByaJ3JBt3FpR5CMAYPJE0MsZueWjkyGNwxS5dToMsLuYAHvv5dD3qNwZtn3NZ7LO/MnTNEXu57zyDfdysSZ8EeSIb5j5I++M9/aeNcYPUJoA2+YD2PJyrMxsk8ptIPUw41Je6I6c8+XQv8qob4+aBfj7fzZfLCb3pxybGzvygHptE13yG+fpCGNu7ULxNRP6T1uUBVz/SbeZ8dYoPjqzdC2TMZi/2+UN8Pr61j31tngbsSScb6x7AE88yXrJZwKeMpYzvjJ+TwAbKisHOjScxebyvPffz5q36s4A9zj/EiH3znY0lds6XByP001/GVHQ+jvTprr7VlthBfvaKzWbS92M9u3Qlo/rMb7vapT8d9aF6xo2ek46xk+Yb0WfZaJu5kPrAZuzjyN9umR+q7wnsWs/Qe5w7x/XJWXG+sur7jMkxPefzeL1UGwZnBVmyuS6m5Z5rhzWFWOTcWHZEdn8CRd6ki4+5Dxv9xpgy0vMFVsaJa5+JD8q7ll+5xKCsj1O/2Clf2jlt6MJmfMvbzyCP+yAnu7nnkC82i59FF2u3URefsaXPrO3ypYl09jGXJx/bqVc9fN2n9tyPjWeb5nNsh5+elU1H6MBm/v41Hci/Zlv3+B6fig2SB7Nt2TA2i85IOltl7KqLDMo78kWPtNhWPdLYVt7Y9JCh9z7fhfFF/9gT0i9HLIjfXqmxoOzG23avevWrl5+k5j/1HJnfuoP/SOIrw5ty/rdYuJ8vm/PzWXg7D/e73/2WA+NPW+/8ylfu9oZdsEE35rPJiKsf9KDF/zBuGObtvV3/c+0hcCabd4zlgWjtAfesESQEmXEjBt5gGIPbLgRJk5Hgkwd/B9QxTjoQjLSZBzt5s/gTGAVe1wJgJi7ldwW9BFfs0uU00OYoH7uQMYsS8ifoS2cH1wnWPumdyUGwz/3zRaBnGw+KaRNsAzZ2T1r6K+24P/aBBYByKbvrWyu6KyMN9Idv8tVjYnSkTemZkNJ2dM+ihD/Bgwn78oP4EnlO88GRfg6yp59yH1kosQsZ6YHIyG7jOIhfnJTYX79qP5sAqV/dbJZ+u1Aio3r4KNIPM+nrcQyOuC9PfGYf9FuTmz8qz+6IvSHmkDe22UfKrdWV8sac9pIeIvv8LerFwsbayhHIRa8sooN7Dv1CD+XJyyfWYl7eoslmWMYkfelEX21kXpJn7b5+iUyIvOrJvZH09xwjRtLXa323L21EG3Qji7f0sKuP8nfcvEmcMToSe2Zcj/WQh03iO5ErY8+3lfIkbRwPYpd781uASP8l1of0m/Yc+neN2AlsMV7TMZvaM8fpkxiTdnN/nCMyN4+63hPYt57xaW7MPHVcfLzc7JNV/+2SNWNZefni9+lP1/xDuYwTfc7H1ONzfGiVT3o+c/8Q4OMZG+yRN5rFDXYQ4/i5t4ylj3FPTBUvxBbp7CUt40Wac+Wka2eMpdYEPtOOc23Lz66JjzmX/8anP32xobbXYvppQM74Uf62pSNxii7smfvI2+yzLsqMuvBVduNHbEbXxEhIU4c3yaWTIzYnlz5wj03Ft8gx21R+5cihnlmOs4LsdMBxtiU3EsePs630Ndvyab6pnPGAbGSnfaQPj7PtIXOc7yYezLrsigXJx8bHxQL551igXjKxvc8rLRaUdWzcvenNb95ce+21y+bcbbfdthx5223trTt8eHv/t1//+uWntt/c5s1/LPGgq69e6rHp5j/DsJmnPu3kjb6f//mfX36qq4x0ad7ay9+z8z/TOuDv2Ul73/vet7SjTnVrRx02FT+0Le8ntA4bjdLXNgIPhavu2nJ0/n2HQCCw+ztGEGAEEIF8Dg4CkPsm25G5DuXVMyM935Jl8kl7MwKWPNIFs9SXSURQhMAqCCddOROOfKl7TZfTQkCncyBHJkmwG/uF+dtyugnaoJM0k8KIgD6XmzHpqiuLhEwYscssR+yP4/og/WczemQuB7JrF3PfHWebsezMSWxwOdA3WQTAxM02bORNuzXd9cWuNPAX/cSe6su1evXLyFq/xf/Z1+YofOOoXflTD5uN/TxfB3Kmj9d80OLHwtq3xh4E5U1fpmyuLVDyLbL+8jnqOhJ/9aYZ2EF5+eiG0W7k39Uu9skCunkjSv0We3w397XDdpEzMW9N7gsh9Y2oV/1kdj73SyA/W8UmEKPpSPaRNd/LuBn9BcqmjtgCua+N9H3u873ZR0EH99MXa2iD3TOPjNejj9kkiL3mMSH/KOscE8Z6bDzFFmKZPk6azamxnnFc0EV+/hM7pp3ZvmzCP/ncrMN8Hf+lQ8qzJzu7Jk/u2wixuRL92YJN+AkfJiNZ1K2MdPfJPbe7Tx/wrcxBYLf8b+PaSFv7+v9Khn6xy0j8dLQPG8zx8TS5GFmVG30sMcdn/Cs+lOswxmHM6fM4PEv4qmOGPRyQnrnGMSNNHrZImRFjGHO6cu6FtCPPeD/oC8cuOU6TNb8abQZ6X6guSd9l0102v1Cb7ko/C8gzQ75Rz8thW7bCWjvqGe/jONseKvvsSyfHmt0QnXfZdpdfhntiLLgn8PWvf32Zp0bY9bGPfezR1fnh79TZHJvxv7d6Q+7Xbrpp+bzbf2qxxebem9/85s3Hb711ubaRdsMNN5zboPO23Otf//pzb8LZZLvxaU8791NXG27Kh0dvy0nHv/qN31g+/Q+zx7Wjfm8Nph31+99r084h8n29eTcHrvk6CEAWdmsPq3OZtUAJ6RaXFnrjt7D78gdBDe7tCpDSxjK7dDltyLAv+Cco7wr+J0l3fy1tRt7YZM5/nJzpg3liOa79C+m7EJl26R7OxwaXmsio7dk27sfes3670tzL/fF6l350d6y1oVzsl+vUowxSZr4e2Zc2yydvzjFfr8m0Vm9iTjYo0o68sfdY7rh2sXZPO67VNd7Xlvy5n3OIY2Tatxl1PkS3Ge1pN+f7mOXdR3xvHlfujbZNWu5jLOO+I+yScc3uM6krdYzXOU8d8/WItmKHWZ61cok/qTdpzuk81zPqsit2rfnU3PZ8nXqhvDfz5rcG3Y/9Z5uO/abe2ACux/O1dh279Im/rKUpj/n+PYXoNzPqO9qbHc+KSyFrfDfxOaRMcJ174/2Q9DnGlFJKKWfJpd68szm29neE87NTb8b5BUX+U4sZm2beiBv/44uR2z772eW+N+VmtG2Tz+bg+DPXvPU31ief+3njbibt7JLjkPi+3rw7KRbv/vfC/EzmQvGtv7dz1hZ7pZQy4m27q7af3hI6FPLGaN5KKZvlpyPeBPOG56H8PO5KxhunfH9+o6mUUkoppVw4l3rzrpw+3bwrpZRSLoKz+un6PZVL/XZnKaWUUsr3O928u/Lp5l0ppZRyEfiJnJ/H9Sdyl4bas5RSSinl0tLNuyufM/nfZksppZR7ChY+3Wi6dNSepZRSSiml3J1u3pVSSimllFJKKaWUcqB0866UUkoppZRSSimllAOlm3ellFJKKaWUUkoppRwo3bwrpZRSSimllFJKKeVA6eZdKaWUUkoppZRSSikHSjfvSimllFJKKaWUUko5ULp5V0oppZRSSimllFLKgdLNu1JKKaWUUkoppZRSDpRu3pVSSimllFJKKaWUcqB0866UUkoppZRSSimllAOlm3ellFJKKaWUUkoppRwo3bwrpZRSSimllFJKKeVA6eZdKaWUUkoppZRSSikHSjfvSimllFJKKaWUUko5ULp5V0oppZRSSimllFLKgdLNu1JKKaWUUkoppZRSDpRu3pVSSimllFJKKaWUcqB0866UUkoppZRSSimllAOlm3ellFJKKaWUUkoppRwo3bwrpZRSSimllFJKKeVA6eZdKaWUUkoppZRSSikHSjfvSimllFJKKaWUUko5ULp5V0oppZRyHtz0kpdsXvDCFx5dlVJKKaWUcnnp5l0ppZyAb37zm8tRStnNHXfcsYwTn/dkfvaRj1x0fNnLX7756Mc+dnS3lFJKKaWUy8NVd205Oj9VLO6z4P37D3jA5mEPe9hyftp8+tOf3nx5uwD/hcc85m4yjczy/e4b3rB58IMfvPnFJz5xuR7rCGNd/3hb9gHbOkakfWx7/ItnPGO5Th33uc99Nj++rTv5PRx8aps2MsuTPGPZk+pyGoy6eeCZSfqabMf5SdLprU/2Ia+2vrH9nOvSF+6PkJXM+/pgrRxS9jj5d/V72GW7k/jFWRK5w5psHnrplXHk/Lg+3AV7fOCDH1zG2uWwgbrf+973LjI+ZjvOx7G+xm+95jVL3//TJz95ub4Q3fjNt7Z1aO9Q+MIXvrDIpc/odClQ5+e3R8bMyDi+pK2NkePG2CGQuJMxfOjjN/BjfYBXvuIVf8v2I+kH44SvK/fLz3nOQfbHxZC+06cQc/gvPccYfU8mfb1rTJ4VYyxYW3ch/TePt5OUDRc6bx8CJ42X5jyMc13ujayte0/iF8fZKOmHEhdP0qeZr6TLN94bGdOP87sL9csrwabhrGw7MspwpY3p49gn+3E2Ok7vpK/51OXw3SvR/ofG17/+9c073vGOo6u/Rt889rGPPboqh86ZbN5ZPHlwN7At8g3KJ24fBv/5U596lOPyo+0/eMtbNh88Woy86Y1vXORa+xmMgPQrL3rRcp48rsluI88EAnVAsHrD9n7Q1nO2DzFjwKG/wWLzziD6o+3hWl7BSf2u2UbekVEe8pNBGWWVSdpxupwGo25s5/Pml750kRdkp0PSbVRkQzN+4jP6PfnJTz63IWIh+ZZtH87315BHXTYK1uqSxtYj7MRe+vM124fYkdhxrRw86EK6tuLnY5v7+n1MH/s2tqP76GMYbXeW6JNM2MFiyBgY8ZD/nu0RHrkdHxcaAzJOjvODC8UY1xewcXXchhrd9JF+w5r+++DzfpbHHoe0eUcfcUW8vlR2Zle+vrY5pC22GBn72Hi2wTTmUcc4js4Scolx/JM8iQuHPH5Hnv1Lv7TELvYW83ZBT+Nvhj77yl1prOnJH/XlIfbf5SBrDv6c+Ga88ZOzxBgTCwLZ9MccP8VVcWPsr/Rr9PG5ay5Zm5fX5m3X6vU5rnnOklFP8rheW3ubv6yPkXUtbnz604/O/oaks+k8Nnb5hbq1ERvJw0YhfZT0yzWvn5RZ3rU+dT9rbnon7rEJ3xxJujKz3z112xf5QlM6WwTp87NEmP2OTbUTGSNH0k/7mWsXp2nbSzWmZ9seMvvsGxv5jO6j/83PZ7Pe+8Zp6h7tP9Y9ck+2/yFyOTbvvvmtb21u/fjHl/679md+ZvOA+9//KOWvue222za333775v7b+z+zTR85ruwdd965pOvvh15zzXnVPTK286AHPWhzzbaukePkOChs3p02//cf/dFdT7vxxru+/OUvL9d/NF2fBr/zu79712+87GV3vfq3fmtpew3ySCNv+LOPfvSuZz372cv5rjp+7aabliPI4xhRx0e3dX3jG99Yyv5ff/AHy31tSsv1f/rAB04s31x2ZE2Xy83c5uc///m7XUe397znPcv1B46u2Rjs61o9oJfrT33qU+d0/YOje8fppa7nv+AFf6su9of+WrMbyCfvSdDP2gGZRvlHP3eMckef+MmcHtv9P0e2cl/+s0Q/kCvM1871sf6MDXzKF7v7TH/Cp3LuKydtjbmc89FecM+RupIXub+WNpL06OE692fdwqh38oexPjLsIj6Xun1G5rVr57G9e7ke2xvllDa2P5af0+a2jJNL6XvzOBkxlsbYOcYASHeMso/jaOQ4G462GvV33/V8X/n085rsyBwxxgWcz/gd5YqeI2uyzazlSb1r8mtHfkfsg9xXZr6v7txbs3Xqm9uSL3rJ7zp5Um8Yr+e887VP15HBedoJ7pHJ58g+fdba4ZP6eszn03FPgx/TFfTkx9ZAZ40xNq+7xjEHfa2vRh3gfIxB8/ogjH2d6zHe8BvpmYf0/3h91kT/6Lm29o5ObCQtRPddPi2/I2NkXgcHsUM9WffFRlnbRMaM1TnmnzaRb5e8IfrPsrq3q/+P8zv2i03Bz9bmjci0y+9i0+iQfh/lPAsi51nYNsSvd43p2Zbz9SFznH3pzIajjejORvM4jZ1mn0p/zON0zf6pe2SX/eXHbO/5upw//+N//I+7fv/3f/9ux7//9/9+6ZsLOT79mc/c9cxnPWs5nvf85y/98+/+3b87l/7Wt751uZc0n3fccceS9p//83/eW/ZP/uRPlntjHu2dpO7x+PwXvrCkpR55lR3Tk5b0991yy93qOKTjTP7m3Q9Pu+VnsXtu99/OvR38XWSnf/xZgDdwUmZXHb7N8nOhkG8Tgm+KXKecOvJtRb5pCL5lUF4Zb2uM3zL5qQ7I575r36isfZu2psvlhrxIm/T1jVjedmRLuvkGEL4Jd503GX2jI39sEhvRUz66puxxpC7lyOWbS98Yu0bsLM1bY66D1/LJsNYHI+47Iufs53nFVTup36vkUL83z8gJ7cjHx5x7XZy8+dZKefaMTKO8p4H2fKuWN+fma9/2+VbOGyneWvQNHvjh+G0cW7vOTwily6usctIcM+zkPt3X8K1SyvrGVl3qTLvue0vDm0XS5FmrK+mzHsrm3lhvZB/T0jdkjizSyUDfNdhl9P3ZbrmOvzhne+naJAf/cS/taTu+K78jb60512fw6TrMbfM757vGweUkbxwYDxmn3p5JLPUp9s5v20D/0mMcY7lWD7uNfUO/3Hed+8ppmz3Tz87X+lIsGL9BDuw3xpT4yIz7o8+QZWyHPKNs8qafgjbW8sQ3In/6c/ThtBn5cl+Z8X58Jm2PPhMdUp/z6CBNPrI4V2fGGPjneD365hw75pgwy5B2gmsHmXyOttunz9zOiLkpaaljrPeegPGWOU6MSTw4a8g0r7scgQ+YF7wdMo9Hvm/+zf3Ms3Mfj2suyC/WJKbwSSRdDGefrGnOGusN66bo+aCjuDn2H19ntzmGsl9gl+iKxFDrsdidDXJ/JHEma7fMc7lvfchmienxtbG904QcYnjkje3G9V3eYuFbM9E/NhvtwS9Gv4vfyJdYk3UxnOf+SGwTv43fjTbVRnQgpzrXYthpcjltezFjelyLZ36ZbXsoY3ofx9k3/hdfsL563Wtfu1xH/7GsYx6n7IF5nM6+rW6+m/Swy/55TjzOt8vZ87a3vW3xmd985Ss3v37zzZuHPvShm/f/x/+4pHlr7p3vetfm+uuvX9Ic/OB973vfkv62t799Kfuvfv3Xl7THP+5xm3e9+92bb33rW0v62//wDzc/c+21S92/+uIXL2W1h+PqHnnXNt+d2/zqUJd2lE07b37zmxc5kk6Ht771refSD40z2bwTDExCFrYW6xa5NpwyyE8Dg38fJgHBg5yjXJkQsKuOLEYgAApiCTwQjJSVh7PI7xMmKs6X/M4dHmKyIZEHnwRXaWyYh5BxAsMuXS43kWNs0zl94HO2ofSUo99YNjZy3/maLiZaD3s5EviVcXiQ8gr5aMfY2H3HbEefDvWlD8aHwKA+MrEzfPIV+fm5uj1ckD16Rz71863YJm2nXB6wx3T5I5O0NZnOCjLT0YajxUAm9hD519BPylp0+JQv9jgpFiL6Qh3a1hdsp+6gXv2Rze61xZjy5PdzR30pj3IeYN0Xy9SrH9WdBY009ZI7/WKMyqtO9cmX8T6jjTX/Pg7+oE0/T1A+izFtIgtX9zKexA9kkXYc2XDOous0ic/4+yrpS3YEO47pa3bdhbjBbvqYz3rAVa978302tfhl09xjSz4/t7mrD9VJ/uPGb3yGv80+w+foy7fji+qdH06UUXbOY7Hs3jOOfjqYhxT35aebNPkTp6KzMeX+SWIO24zjKDooP8IPo+uF+P75wG4nsd35YmzQV5yg86Wq95AY1zd8nh3z4HWWrK27slZD5vt5LoI+ShxB6pnHc2LO6J/6Wz51OFyP6eqd6zkryBU9yeRPXLjOPX5qDst8MZK/LSZmyWNNYm2D6OfPQ4T7H9mATUbYcLQPXMe28s/2dX1WNtQ+3wpiHnlyj7x8i1+Zd0aiu3iXddy4tqTTmt9JX/O11D/PveqRj6xBvWM7Yz2QN+lnxUlt63lotm38YZdtfa7ZdvajNTs7l08dDnLOtp3rOUT22Zf80XHtuSjrvFyL87EHfI4201bsBp+j/XOe8iH2n/sq8jlcz/af6ylnxz+74YbN85773KOrbewffm7qZ6h49KMfvfnQhz60/Lz1xS9+8eZJT3rScv+LX/zi5tGPetTm3ve+93J99dVXLxtmt2/v33bbbcuG26O2ZaHe67bnn/3sZ5c8qdvmHqQr/+GPfGS5HtHOtY94xDnZHv/4xy+ff/qnf7rUpc67pT/ucefkOETOZPPOg4CFlQBi0WdgCioZ9IeAgEWucVEqyAgYCWrHIb9gaAGfDR24PwbUYBLS7vjwYkHg4TAPPurKw1uwQJXH4b4HvpE1XQ6Fuc/HAD2en5Srjj7DeK2t2Cl21BfacY99RzvmwTR9IN2hL+c+yMPg+GDgYXj0c+3kYdy5vCZMb3fZpBsnL3kcY9t8LzLxkVEmbZDpUGAjtrUooHP8OVh8elhnH+Qz0JtOuyb845Bfm+rQ13P7kGbsSMfYn4EOiU0Zw/pVffpw7DPn5E6ZPDimXvcjk8+UXWsXazLvgw1jRwtZ/qgNcs51RSeL4n2bl/vYJfelhh78yDgRy3wDz4YhcphXxNsc5yOfDTk2YgNjkX+mf3OfDON9fpDYyje0d1I/ZfNx/PKVOaYgX2ppB6PPmIe060GaLHRI2kj632e+FIovujc/FGnDQ7yHdPEJqTN2z5hRz3HIQ774XOYh9wL7yiddXDhJvReDNzdhs4Hf7LLd+RLfiPyjve9p8Dux3XhMbDwE2DrrrszH+zalwkn6fn6b/kqFrmyEvK0odolB+lNsmBFv2E/c8mkNknVPGG24y1bGyBrj/V15zhr24UdsFhtlfbM2BtxnL+v3xHs2yjpuH/tscBI/HPviJL591qzZNvNr5psR9jnOtifRe58td/XBlWDPmdm+0UG8ZDs2ZOesQ7J2dm3tZT1gbrtcY/N8bHol2v+ejA2zbHrZ7Prwhz+8bNbhK1/5ypL26le/enPL+9+/efPv//5y7q05eMPNZpvr5W/O/fmfL/fv3M5HNu4w/u05bcHGmrqRe3jQ9jzlRmzeRUbkXB3xp7vV86AHLZ/kOETOZPPOA4EgYPIXHAQTC4dD+XaaLIKcyTiTCDy4uc4D1D6ygPRQlodjcBKLnTwsBAHSRMUm4yJA/lGGPDyRMZNOHoYi2xjYdulyGuRb2FmeyOHT9Qi7ZXKY03O+z/7sw4Y5soGiTmlpe3xYc0gf29XG+MCVclBPyoXxIT7o08gz+7my8pow3Td5aj+6pb3U59ox2mOUiT6zTGdJ7E9G/jdvpmTjIfdmudMXF8OlsIU69KOxf5IFs76lcx7aL4bzlV9+sSYPqPviaTbqxjGxi3mMnjbGhAdKbxMaL3kgz5cokU8c9FZYfl5znF4j/I3djFN29PatMZ37fBm5D/EhC91wPn02yidOKTuXt8FFP/406yNvYvtJv1A6iXx52xe7Yu35jE86sNM+PyKXOKhvnedNP5xEZsz/6+BJ0Jf69FKSWMw/ovOliGeHBL/zMGesZTweArvWXfxZH+hvcusX67A86Btb43yf83lj+95H/Tj6snN1q8OaR9+PPiv9fGLR5YZsmY/FtshmviCrg40yRziPPvLGl7M2Mb5TRzbFERvOvi/vmo2ST/rYF/KN6WeFTTr+wmaJi3yIncjMTvEnfiaN7OQedYv+cJ9uIef8SD6M6bHvbIvUM9s0dZB3rAfy7orvp435Yc224sz52jZ6Or/YMe2QX1ujbZ3HtlcCa75LfvpZA8aGeS5iKzpad1hzKecT0Xu2r/yxG3yONk3e8e1cpL45r/I5pI32d30l2f/7BRt3r3rVq5aNuyddf/1yT7/ZTHvc4x63/CQ1P319/y23LOk33HDD8nnTTTdtfu3Xfu3cCzcZl4hPXQ7yxt+MjcRD5kw272BwZrBmUJ/k4fg0MDkIDPOi1DArlNsAAEb9SURBVCQt0B0HfSyOBEl10DO65m2DsR4TlzYthtwfA5Wg642PlM9k5sjiKZOaPNoeg1p0OYu37jJJkAEmXEdk8UnPpFtgu84E4jNlQHck/XxgK/0XO+bhkG3cyxticK3NyG/h4IHWffJlsRY7R8bZXwSc0c+jR/xcnRbM+lw++mWzMTqmb5VVTx7SvZ3CxyITfchzOYPcSNrRviML/dynF/uZ9EefTrpxwF6x4fk+AI62V29iSBZm0iPbxZAx9q1tG+mLefER0h591/qBPaSTlcz7iPwzZIi/YWyH79h8im32MfbfLEvStMWv0laIXLvscKGodzwCecQKR8Yk2Jmuxmf8wKdxlH4bybij0+gz6tdefNImElKn+2ybxStfVyZj1cZu/H+Ubx9kHsfvHFNCbJ+2RmIjZdJnu4gukXPXZl/iFfvZsJzHZeQxZ2GWd/YZciWPT/ZhL4z+Qz+HPp0htzlCveSbddWWIzKdD9q04buLffq4N9o099NXYmBixoXMWYeK8cV/+YgxyV/ii2cJ39i17uJX4xjSb+MnPeL7SL8pF/+Tph/5QNYs7vGD1J3xn3S+IV39hwB5E3fyhYRzOhqPa3Ez6HfrpMTNbPCLJXyfrdxLfWyYMe9evkxiw6QjZWIj9Wkj4yrtnOUY4u/k8GcE9H90pB+bZey7h8Qo+ca1Jb0cib/K0lM+xG/YTB1syu5pT4yLrd2b48vod9qJTaWP+dWjvrO0aWBbcttsv5S2ncd0bHOSMc1+GdPyY7TtIY3p49jlu+BndImN4h/usx37mv9c80P34jPxqV3jdPbtsW732DM+SK6kp87YP/XF/tohx5Vi/+8XsnF37bXXbm582tOO7v7NG24/f911y6drb7jl56j3/qEf2jz3uc/dPO95z1v+7t2jHvWo5b637fKnF75w++3LJ7xBB5tu97vf/ZbzvIEH9Y5v0AXtpk3kXBuJKakbeeMuMhwaf+dfbjk6PzUsEgxOE4iA4BAgx29KTwuBy5GHFIHDN/FkEWRG3vSmNy2/g57vz3W84pWvXOpxCDQ5pPujiRwlgUee/M0pASl5P/e5zy15/tFDHrL5yEc+stjKffn9vvwh2/v3ute9ll1qdUrzed/73ndZlCVI08UDfQLgaWLSHeV7//vfv9iObckuXfBOOp8ga3bs5f3EJz5xLt25b/pHXZSXxn92PZDiHzzwgXezo/5KXWw221F9T7/xxkVO/pqydGBXaQ/c1gmTI7IYDvFzdSqnDhOS/lPvD24PdWYcZAzENmTyhzlTfhwj/EKZyPTVr35188IXvGDR5TSI75GBfPqGzOyCm2++eZGLfOylL/WrfmATtmBnPk+vjB1p7vnGjw/n2ljIIg7xb+nqSfvqkUa22N71d77znaXPUw+5fGYcztch/qX+L33pS8uCJP4JsmlHv9o4lJeu/Cplc23ziN7sop/02ajriPvaTFvaUJ8y9HVOXr4E8osJa+1ivsf3yOIeebSv78iVNO37lJ/uY59I0/Ys94WQ+BlfcmhDe861MfdLIFvKsYtzOhons2zGa/SSl07ijbotUMVK99kDfInf+Amy+w74BnF8wFQn2IMvryEff6UTxIZx/M4xJSg3+sh4rU/VoU3yqGO8DmzrgZ38zvlN4gzGco94+MPP2Uhb/hYJ20oj84t+5VcWmVNP5hrlfZKNPmQzJtjWuFCn+pSVJ3aPX8Z3Zx3SNnnUqz/Yn5ypN77z8O09dafs7dtzaerQl8qbV7XJz8lDDnrN7e7Tx335lWdTssWm0mIPbfMx88wu/70S8aUT2IZtHWwR3z4r9q27+Av/yqHPEifgXJ/xT2X4SdYHftLjb8PxC/n+3tZ3Urf+198ZB/xgXEvEp9LOWeMB2ZgxjsgWPcQdY320kbmGD/vSQqyQh91iI30++va8TtJG1iQ2WNyXlw3ZaKzHvJo1AHu5F9m0eZZjiA30P+gXudiHTKPNxCR2FcvpQffRHxzu05VNx3WcNGMqfofEojWb6kvrQ3nUuc/v2Ny4kK4uOh1CXBptO/b5xdg26+t5TI+2PW5Mq/tKGdP72Oe77DD6l/t8hH3Nx/Q278VnMg4T5+VR/y6fWvNtNjNPW2+RSx72t+aMbOob1xaz/fnJlWL/Q+Wv/uqvlv4aYesf//EfP7o6P7JxZ9Pshqc8ZfEbhzo3V121/IzWmLzmmmuWv2PnP6S47rrrluvffv3rl9hmXSe+/d7/+X8uG22efXzecssty6baT/3UTy1vw/3xH//x8jfufu7nfm6Zk7Lp+9Pb9NQtzbW/sXfnV76y+bEf+7FFHuPe5uJ9f+RHNv/23/7bzV/+5V8u8v7I9lrZT37yk5uf3ZYl8+t/53cW+aUfIlf5b4OPzk8dzuM1cJO+AXwWZLEnGKxdB7J6APLzRsFkZC4zD4og3TcZHhgSADmUoDbDaUabqFNedSwDYkDb6nB/lDtyqWcuc5qQwdsrJt/ZrogfHJe+5iexnz6Z+2WN1GXiOqkdkXbmPjhJ+/vk39cmkq7uXbrPMp0m0c3G1Jpd1vpVmnJ+5janjfqM17t8eFf7iO1iN9epRzmfSZuvQ/TAmgzqTL2QN76QsqNvjDJJH3UdIY94kzcXRxmkpVzkcW9fu/tk0Q/zeJBmzFrcuS9f5CQXyHYpiA1H0he7+mVGvl1jbMbib5fvkUPaWM9op/m+g3xsOtpvRnmMsqVP5r4cGdPn67lP5+sR973xthZj53LRF/Kupc0+417soC8wt5M+GmU4Tof4NdLGWG/kyf3kT5lRluQd+8+5snO7qdN56kjeEH3WYo/yUH68f08g9hih4+jbZ8GaXBj9JYz9O5LYMMdDda/5Hea+h/R9a56zglyOmdm3kbyz/PF7c8NsP/nZZbah+8bY6COpZ5eNjks/LRIbZug+65+8sz1jF/nXxskuv8Mum2pL2lif64tZa582Z2nbe8qY3sdJ7Ru/WPM/5em+y77H+dT52l+euY8hbdcappwfX//615dN1RH9+9jHPvbo6vz4zVe9avkPH2a8SeftOP+rq81Xb8v5W3X+zt2zn/Ws5dpPal/16lef+zt1Nuz85xc+cdu23t/+7d9eymFOf98tt2ze/va3L+ewgfj85z1vqfvXbrpp+fRTXeX/1W/8xt3+Hp7/pTYvSMxyKPe0pz3t3H+GcWic6ebdlYRAI3Bc7LfLXv31zcQYOEspZeZSb5JdCsTBXV9ifL/izVvfMPtZylm/yXBPJr7nDbj8tLmUUkoppZyMS7155824tb8Rd81DH3p09tebY96CsynmP5WYsUknzc9lfY4om5+5/uQ11+xMt+E7t+nemF877tuUm+vBx2+9ddno25V+KHTzrpRSSrkIbnz605efjOSnX+XycIgb2qWUUkopVwKXevOunD7dvCullFIuAm+FWfz0bcTLS34CtPbznVJKKaWUsp+3vvWty9++C//z//w/L79qKFcG3bwrpZRSSimllFJKuQdz++23b/7sz/5s841vfGPzoz/6oxv/y+sP/MAPHKWWQ6ebd6WUUkoppZRSSinfB9i8++Ef/uHN9773vc23v/3to7vl0Pmfjj5LKaWUUkoppZRSyj0YG3flyqObd6WUUkoppZRSSimlHCjdvCullFJKKaWUUkop5UDp5l0ppZRSSimllFJKKQdKN+9KKaWUUkoppZRSSjlQunlXSimllFJKKaWUUsqB0s27UkoppZRSSimllFIOlG7elVJKKaWUUkoppZRyoHTzrpRSSimllFJKKaWUA6Wbd6WUUkoppZRSSimlHCjdvCullFJKKaWUUkop5UDp5l0ppZRSSimllFJKKQdKN+9KKaWUUkoppZRSSjlQunlXSimllFJKKaWUUsqB0s27UkoppZRSSimllFIOlG7elVJKKaWUUkoppZRyoHTzrpRSSimllFJKKaWUA6Wbd6WUUkoppZRSSimlHCjdvCullFJKKaWUUkop5UDp5l0ppZRSSimllFJKKQdKN+9KKaWUUkoppZRSSjlQunlXSimllHIBvOe9793c9JKXbL7whS8c3SmllFJKKeXS0827UkoppZQL4B8/7GGbO+64Y/MHb3nL5gMf/ODR3VJKKaWUUi4tV9215ej81PFN9Te/+c3NAx7wgOU4C7QfGWARPnOf+9xnOcIfveMdmwc/+MGbn33kI5fruQ64VpdPecfy+OjHPrbo/0+f/OTlWr58c/+w7cNASN0jszy7yp5El9Ngl3yBnI5dfrDPT2Kfk+q1q67UM5L0tbS0t2ZjjHUfJ/8+2yRdW/xoZl/dZ0nkCmvy/9ZrXrPczxiITS8E/fCpT3968+PbNtbsdLGo+y3bh3M6/YtnPGO1r0Y8yJPpnz/1qcv1hejGhup45FGcOQTI8/mtXIl9lwI2jQ/PzONrlx3jb9IuR/9fKqLPrOuhjuNgvuL/eOITn7j5xe2xD/rYyPr0dtzoE+Ml4/yeBD3ZRr/GL+l6KcfHIXLI/rpPNvelY47hc6zBLt321YOkH2o8omt89nzWFe45RtQR38c++4/ERrgSbHicvJfTZselB3n2yXhcv58Vx8l9KWx7nM7ysI3Pff6ItfQrAfph9qH4Bc7H/jjOLudjt33tIOn6cezjcvF873vf23z7298+uiqHzpls3gkSHtwzoPHU7UPucQ8ElxIBwM9d3vGOdyzXb3rjGxe5XvDCFy7XIwLOr7zoRcu5cs/+pV9argUQG3nv3dYDdUA9fkYjLwShX37Oc+42cdAf7ivvYT/If/NLX7oEJw8/L3v5y49S/ppRHg8Ob3jDG+7WlrKuj9PlNJh1m9tnfzYMT94+4I0PeXRngzD6ifu/u9Wdvedya+yra04DOcnLxq856q8QPdbK4ZWveMXyST7p+lKfjHKyDd3HvlNnJq3Zdo95zGOWjSMow4fGtqXJc9bQKeMqrPndPv3OF3bQFyfxgwvhgx/84LIZoR89mB9n5+P8/jj4NH20c0ibHokr7Hyp4nX8xZiJ7wdtscXI2MfSMsaCzU5+dGiLu8Q6OiY+kD9z4VqMOBTY+GPbOChmHrdBvhYTD1Gni4VNxIVgrEbv9O89jcSlcUweyryzJts4x+srMXnXfHvj05++fI5kTTeya82VeDOvaS5mXrsczPLZjM+XTMfZUKwSB0aesdXtF7Y6jmUTy8ayI3NfiCf6YpcNRxnPguPWanPMG+Wd1wIYfSJxRF1sN/fH+KzEPtLWxtuVZtNwMba1JjMWR05q25HRdzHLcNyYvxKgW54Jx7XW7BfWqp5L6TbaxTX9xzHNL6Xv6rvjfHJk7uexnbX+mZ+py8VxqTbvvvmtb22+ePvtm3tv+/hBV199dPdv7vOFqx/0oM0D7n//o5S/RvqtH//45v7b+9dcc83R3b/h9m3ZO++8c7Usbrvttp11j2jnts98ZvHBtXaOk+NgsHl32vzO7/7uXU+78ca7vvzlLy/X/9cf/MFy/Y1vfGO5Pg3I8PwXvOCuV//Wby1tBzLl+NSnPrWkyRv+7KMfPZd/Vx2/8bKXLffpo55fu+mm5d7Is5797Ls+8IEPLHnGNuR3/X//0R8t1/9pm8f15z//+bvJBmXTvnN51JuyY366SBt1udxol+yR7z3vec/ddIstc/1H20/XZEV0/+g2H0Y/Sd30GevYxf9z1La6lVcXeziHPlLXaLOkRe4xzYHIkoOu+gRkSjmsyR/buCaPPEi6a+mRgR4YbSVdPaM+pwEZx/bma+fk45fBPflCrlPOZ87dH8uOzOW0wx6jH0hPW+pJXuS+e3PajHT188PIk3Luz0ib9R5JuX1txvdHOXOO+dp56ktarp3P7e0r73xMm/MaJ3ztUjGPkxFjSeyUxm4Z77GtdAf95BFTpRsPM7Me8zVcp66R3B/7VPmT9CWUJxe7JT5gX4xYY02OMMqzi1153Hdv1jv5+ePY5r561OFz7RrRYW7L9XhvvE49Yb52PreR6+TNtfOxLKRdiD5zXfHHMV/O7wlkbRN9XF/KWHAxiA2jbIlT6Stp83wrD9wz7sQPaTnWUI/1wljPcfP2ceuT04J/k4dcMKe5thbDLhsG/c2GsY8j9k3sGsu6TnqQrs70hXE32kj6eB0bikFnARm1H1+J/OnzzNWJHbFD4iU9YtMcsUnWwOmPzF+pKzZMvMx4W7OpfLtsmn7PddaPZ2XTcClsK3/s6jipbUeM57GPnLN12DfmrxToQG42oAPiF7FRruMXsXfyJx7Exup0jHaJ3XK9yydH8ny29qwH7WpHnQ59McpRLp7vfve7iz0v9rj513996bvXve515+59/gtfuOt5z3/+cj/H+2655Vz6W9/61uVe8vi84447zqWraywrf9K+vM334l/91bulj3WPx5/8yZ/c9cxnPetcvrmdyJHjtYMOh3acyd+8s3tudz+789ldP82/F+ObQt+czDv3ZMoRecY3BnzrSHbsqoM+efMjdeWbB/h2wXXq8c1l2pA333CArVLP+K0D/JTPPWV9KkMeciFtO9Lmab79kG9ofdNFB9960Tnfrkh3PzJ5O8N17O4bOfnzs8HRT+TzDc5J9fENkG/k9JVvi9J3gf3YiY1yrg18Y3sv13MfuOc813SKTD98VD71/P2jPEg9dEod9CQnYgO2k5fcvi1L30of9dHmaX4TSCbf4uUb5fnat3neUPVtmbdQ86ap9PFtKt9ouvYJ6fI63Fc2dY7QWbq3Z9fQvvQc6hnfhnXPt41JI+v4rV9wXzo9yJR+cZ776ki9s97SomtslHLyjd94jvADfRu/mu2W68jsPHaKbPJGx7Q35nekfefKwbfVrsPctjFJ3zV7XS7YgT3i/366q30y8X0yyWNM+EY2sXWEr9Ajco/X6RtH+jRvO+Q6fcoH+OvoG84zdteQh2zzT6D3xYiZ9Evk0F/xO7FSWuQZ5R9J2eShN/3js+5lTLmfOr11oL2M09n/Y9N5PM/jVBnXKUen6OCeAxm/GW/7+g7O478Yr2cZZv+OzGu2O06fUeYZ+ciQvhnrvVIxtswziUs+T2vOOQ5z5fjWh8/4FqSN6zKfSU9syz1H6hnhB/JmTSPPOG9nzZN53ZpH3IqfnjVZR5AL0fGq5d+/bUOMNoxdfLKDc3oG57ke6xgRu5WPjcgkXseGGVtZ75FVXbHtaUNGNmMbzHp5E1965pzxz+lgtNPoZ0j8ZwPMddPZvJH5zVyn3tmfPAtA+ppNE79i06y1z8qm4VLYlq4XYtugnLgcP3OwExtLy+euMX8lYD5Fxn1gm33xAHSOTaWzvevYJT4nja+6Lw+f9LnLJ0fck7b2rIeka8PBf9V9pc+n9zQ+9KEPbT772c9u7n3vex/d+Wve/OY3L5+/+cpXbl732tduHvrQh27e+c53Lve+9a1vbd75rndtnvD4x29+/eabl8Mbdu973/uWdHV+6MMf3jzlKU9Zyj7+cY9b8t+2bQdve9vbNl/84hc3z3ve85b0a6+9dvPWt751qXfE9dv/8A83P3nNNYsc2uFDkeOObZvqvf7665d6tPfhbbtJPzTOZPPOQDboEmwzmBnytBAIEpDWIBu5BKMENJA7AWZXHdKlQT0myJSBOgQy9SrvgTRtWOizQx5SYxMPFh4ExgeHBC4BLg8Raw8SZPCQPutyubFIw9im88hNrkysQXr8wudcFsqzW2w8Io2uObLISZt5oGJPdkv/sbP+jg3li+3J4Xzsg/jsiPbIyM7wqd+V88Co38YFALKoUn8mPUT3sV/zMIrYaNbnUGALeloYeNjLZBzomT6ZiR1sarOBMRF9T0r6lr3zM1d1jPVY0JDL4gIZVyPSye+Bhq+ShXy5n3r1Y3yPzNLUKy318gHXZJJOvoz3GXXFR84HOpHPQyp56a6tLI7jI2lf3vjV3Ee78Af68eXBlqdFfMYmVx5YElvZkX2j9/kgVilrUchn9Xfs49DPue9nox4M+Kd7+YmJTc61voz/xs9G9sWIEf4l5sir7yy2zSuJH9pWhnzKa48vzsRvk0eb/Ew5B8gL9/10JWOYbklLPfxMPWNs2od5TTvK0oVOc9zSBtnpuGazS42/5Rfb6Uv6ZCP8QlGf+Ym/0jP2vth6zxp6OfSPPueDp9FHJ4FcfJY/8Wt+NI4lac6lmU9dS0fGbdKMx7W+unPbh1A2OE/sWVvziEfSDoHYSOyMrolBY/rYv7ER6DGvk6IbP6BrYtls/5AYLm8wVlKPTzKM5eRNubMg/RmbkSfzZWwmFkt30Ht8BjCHsFV8K3FbHnEu5djcdezBr9I2cj7PvbHdaFPnuZ/1xCHZNJyvbc3Ro23pcL62HYmNzOvh/kcypX7M/ZAxf+iQ0Xg2PkcdEPvSkY3Yj33EBOgH/TGPaXipAWOd8T9txja5B+drNot/hpy7v1ZP+uos1qBlHZtf73r3u5fNrzHO4GlPe9rmV1/84nOben6SOvNDP/RDy+f8d9xs3Mlvcw9PetKTlk8/bYXNwmsf8YjNNQ996HL9+G0+G3UfP0oPn/nMZ5ZNwcdt08mhTuXUjw9/6EPL53WPfvTyqb2rr7763CbhoXEmm3eCiM6dg+0hkQefcWEqiAgmeXg9DvnpaGE01kPfMRAFiyILRpNT0j3seIDysGM3WF0e0LPYBFtK85Dl/rwJsabLWTLKPjMO+n35dsHmeeB2jBOF69jRJB47Ojy0eRBds6MJbOwDk5t+GuXTjv6b/UWbJqLolW+j3JPXZGgMWHzMuitvE0KbHiz5Hpmi0y59DgE2Igv/90AzTsxgB2l0QD6DBQLfz0Jr7MeTIL8xxC76Lu2P9lG3sebAmu3UEfmTj+zGobTIB3nIrW15sgBKvVmgkElZdUhba9e9xICT4kErY51/ak8daWskfsjG2ehy73w43z65UOjBV4wRepF3tHsQV+XJcT7y5Y03Y0gbeduW7YxLY9vi1WIxNgWbkSV9Obfp2pjlO/HBEelrMWLGYlUbbEGG9FnaG/2Of2HNr/gk2eXRZnySDo5RRufsYjMksTDtxf/Vp9ya7jPy+Dso5HeehwAyBPfZH2LjPJddDshNF/rm8zhdToI+oo9jtPc9gbzVQrdsWB0K3hohl/G0SzZp+iJrT32TtwrNp3yT/83z0kkY5/FAnkMib9aQlY6zv6d/MT4gs5FjXCdlzhF7Ek/U67hUD9eHZj/2mn1jfFtJzIxN+dJztjZjLwf75O+0yWPejs/4dH1c/DmJPVInxvORXffPkuNsO9qHbfMF08XadrTp6P9XOtYt5uisR9cYbcQ+mafEz4xpSM+Y3ueDu9LSzoVwMWXL5edd73rX8vmk669fPkf8DTobZvL85qtetbn11luXDT24b8Pvlve/f/Pbr3/95vXbw5t5T3jCE5Z0G3H3u9/9lnNk481GHJa/gzf8bb38nb2kB2/nYfx7eOpRv0P+1B2u/of/cPOVr3zl6OqwOJPNOwtkmxECr8NiAOM3H2eJ4OVhTbBL0ILFiQBC/uNQhwdO+W0KBUHNxJSHr5CHQw954waQtjxgJ3CRSR3qzwSTusgq//iAsEuX0yD9OQZy8sR+5BllhevoKl3+kPN9enio5Fs5MmGl31I2Nkt7ypngII8jC4hdfTDqZQGrTNqD/nQvvs4PLB7ywKCvpXmws/AY5UtbeRDPgzUbJM/4sD3qcwgY03SGxZSxMGIDfPTVebEW/c8afUV+Y/+4BR2ZbTbok5Nu8O9j9K+TID+fYnd+Mr/RNCImgL/G73e1d75yXGrYNYtP48WDEOL78SFjwDjKJuv5+BBfVFYbxqj/oEZfqsMDvfva4QvZUGJD1+yTtmZbiQuJW87VIU/q2BUj1vrOGNnlW/yUDOfjd/Lv61sbmcYtPfflW7PzWn732Eu94wblGOPlEYvZHDZQRvbJcTHoFxu+o1wjF9IuPZB4f7lkPwvMS4nx+ihj8BAwVsnmoZ7vzmPJGJMupvBFGFf6KzEl8+7sDzafMfpszpXNmBr7WnrqPRTozg7GGVmzARfSv94uHjcxlct8QSfn6Xu2FEfHWKZs/D+MG79BHYkj6p1t6PysbUg+OtGPLPmSIfCfpNMnMZ5NzE3KKydfdGN358qkP/hL1hHxpxBfm5+VYtPRL8kQm831wHVsftac1LbsM9s2a/PZtvI458cp6zplQ2w0bjTHp9V73Jg/ZIy9rBv4mrUF2GDURzobWQOxUeLBOKalOxIP1t5+S53K7PLJNZ/T/i77Jn/6BEk/bk1eTgc/bfUT02c+85lHd9axCac/bZbZwAu33Xbb8nn/bbrNMxtm3uSDvGv4jyXWsAF3oaz55qFyJpt3Hli8bWSAm/zzIOn6EBC4dOL8pprAl4XLPgSWbNwJeqNDJACN9dB/beMOXvX2UJEJKYsoQS32yuJUuw5pIUF4rvc0iHyRgWzkz30PmvSKTvRwnY0ok7K0BOr4SdLPB22OdY121Cf+p7lRztGO+nLcfErZ9Ku8ZJttnD4Luc6bAdo0udIzdohfRMe0FZliO/mkpc4skMe+v5yMuo+fuc+mHqIsBsga+ZNObmMj+lgUnA9z+xlXuZ9+jX0ulLFPM852fckQHekbvUbIRp7IvA/yr8meRdesLyxcyesT+3Qf7TfnSxqf0k7aCpH/tL5sYQt6Oca4mQcisZNMkdtYlG+0DeaHxughX/oli3xkoTvfV78y/BvKJu/c79rMWM14dcSmkSXkenzTAGSQtqYXov9onzWis08yrPlp0P/qNIY9AI3tzvXoozH2sJH7iUvKprw29WVsMMogD1u7N9YXbKZoM+2PqM8xb/idFPFo19yypk8+9Qt5fDqSFpvwDTJJy9i8UsnfRgx0Gj/PEnJZV0aW/MTVGNR35ttxU2CUWf9Ij19lPCfG6Xf5E3PGNZdxnX6N/+xa85w1s550Gu1grTn2b2wojzKjDd1j1+g21oM81Ge9k7GTuJlNFPWqZ7Sh/LGxNId10lmg/2a9yZxxbv4xLmLTmdmmdJljW2w325BtxZ7UHZu4P9o0thttOj6vZI2Z9LO2aSDDPtu6P9p2ts9sW/li2zmv6/Ee+yR/4nRgJ/fYedeYP26uPQSMPXJG5tjROVskHrhG0mOn2YbjW3fswy78M/ecs5n7a+NcO/HV+CD4ofO0nzrdVxcd1sbBldAH3w94a86mm5+y+htxfOH2L37x3E9Sw3XXXbd51jOfuXnK//q/bm655Zblbbj8nbznP+95mxtuuGFJtwHnb9nBht+8gectubxhJ+/4dpx2kZ++h7xRl01B3Lktp7yDn6l3bEv6+NbfIfF3/uWWo/NTw4LoIx/5yLKrL3h84hOfWDaudi2cLyeCiSMP6YKDtwO8xjnLw5n8scQsVsJch8nkS1/60uarX/3q8pooPR3SBbJ73eteSz3QXiYfdSSvc4HrHzzwgZv3bweGwOUwwbDVIx7+8CV4Cs7aSFl1e/jhiNFFED2LSXqUj+z6+r73ve85+diRPtJ90tO9p99441LeefxEunPfCI+6CBLqFcT3vXUiTfnY0Xl8jkxspZ7YkXyR00/H3IsO8qQPYIFBDvlHlJM/bToeuO3Pf7YNUOqNbeSh+9h38pHJ32OKjciZsvRRX3wjfnFaY4isJltjN/KPNvMQFZvJxxf4/9/b6sD2kZstpeUtPXrI76fK6sm1PpcvsIWy0rXvU371+GRb97Qjr/6RP/WQzWd8ab4O8a/Iwc/0QXBPmgVJ+pvf6oeUzXVkco+M4sOo6whZP/e5z5372y/KqU9cIauy5I0s7j3kIQ9ZbRfzva9ty+s7feD4zne+c+7vm3x3e6699JN2tDf2ibLxxYuFrg7y0cNBJu3FVnO/gA8ag+RMGZ/yz5tN4AfR16FN+vLLD2/r8Lad9qTFHv+/rd6vfOUrl/ts4f7jtrHb+Evfu8++Y0wID99ekz2HMvLaKMK+GEG/IBZIS5ybr9WB+As7rPlzxqV4ArFWe2Gsh135GzuRk65J86WS2ER3viEujzZha+3wYWjHvaSTXf1jzNO26/zsYpSFDLGdedg5/fSdMtLJSh5t0sl9+ivjvjLuyxe9pJOTHbWrzNhu5FVOu6M+ZM5YoY9y2op/QD8ZKw7yRtcrlR/c2oct6eqT7vo+65mzxCZd5HLwr8TrzAHSHfyfD1jn6Sv9mzhCJ3lS1gaJ2KAOedlA+fS5mJB4o4/Tjnoybx9Kv496Rv5RvtjQERuaL8Q26Vmz0E0d4/hNWfU6lI8NxdfXve51y9pfzB3r8TnWw4bGTdIjo7ldvtMm8tCHXuQS88jLnuPzjHSfyiRG0DVl6SKGzGWlxaZ0TVn+Jj39IWZlnTfa1Nw/23Ts19mm2tEP2jlLyLjPtp5/9tl29Dmf7HMS2xqjLz36g/VsKe/YxigDn1sb8y98wQsWGQ4Z8mft4aALW7zkppuWNEf8K7ohuu0b07HL2HeJhewsffZJdcYnX7FdVylnnuWLztleXjKNzzP6R3pkzTiY11vlwrnrrrs23/ve946uzo9PfvKTmx/4gR9YNrscX/va15ZNsPv+vb+3+emf+qnN87f+9F+2eWzewZz6F3/xF5vH/sIvLHlv/fM/3/zcz/3cssHmjTo+Bek21D760Y9urrnmmiXdpp/2nviLv7j5sR/7saX8n23Tf3Zbnl/xIZuCNzzlKZvNVVdt/st/+S+LP8r7nz7wgcUvyWQT793vfvdy7j+5uNcP/uDy9uB3vvvdc+lvf/vbl7+h9xP/y/+yyHNIXOW/CD46P1UEbANQ8DRwBYSzwOLc7/oFtvHapGmSCO578PEWwngfcx2CT/6Y54h0dXjQz0Yf/fPt2QgnTOBiK3VizVbs6I0EcimjLHbpctqQnRwmAhuJkS8Iyr7RoVt0DvET6fSYdY/9BHfl93Gcz+2yI/b1gW+BdrV/MW0ittsl0766T4Oxb/l1/Izvkc04mPs9tszfFRv1UkZf516ud/lwfGfNtyKbujCOBX0mb9Lm6zCOz7U+pov+U6/y8tro0Bcpm2ukv7UjfdR1RD6b+jZ5lI0tyRA/HPUl/75298nCdrP/xHb0kqZs5CSX+vIm2sWSODWSviCHCWrulxF9kDrWxsnIPt+LzhhjTeyE8X76HvGr40g/jvqox3023TWO03/xwfl6ttMuf97X55jrMb60ZWyzcdJGO67ZxFwn3fXcTuw8j9m57fFa28YKfWOrMd64lj/3tTvaObKQQ3uu/RyKnOPYSd5Rz+P02eUfSHn1K7fLL68k6MQWWPOhs4Rs+8aSNL6EtbUIvRL3UlZdyrlO/vT52ryD1LMr/ayJfGvx8rj+je7nU5YNxzkEJ7XhWjtnwXF675uDRrvMup607Bxr7wk2DeTeNS4vl22V4aPuQ15zAduxsbSR42x7JUBHOsw23OcXo33X4sFot3FODrvspl/4cOpTj7xZ76+1Q455HJRLg427b3/720dXF8ev3XTT8h9I5O/ave+WW5aNsPENN1+c+cLUJp+/g2fDzd+6y9+mU/Znrr32buk275S1obZszm1x/apXv3rxpblu/2nF63/ndzZP+9//92XjcJQD8j/vuc8991aeL2jzFmHqG/+jjUPizDbvrjQEFQHKtwYXg1fs801DKaXswiaZhdDFxpxLiQWUn6qQyUKs/PVP5GxysUkXlKeDL8Ew/1mKUkoppZRyci7l5t3Hb7112ay1GRdsquV/brU5lv8dNki7/fbbl/WcTbt5w0ydX9ymX/OTP/m3yqZuf+ZhTLfx95nbbtv85DXXnKtPvts+85nly9ufv+66ne342e2aHIdCN+9KKeUA8c2PY/4m8yw5RJnOmmxo+hlH3qgulxc/nfHnCtbehC+llFJKKSfjUm7elctPN+9KKaWUi8Bb2Ws/qy6XBxumaz//KaWUUkopJ6ebd1cW3bwrpZRSSimllFJK+T6im3dXFv/T0WcppZRSSimllFJKKeXA6OZdKaWUUkoppZRSSikHSjfvSimllFJKKaWUUko5ULp5V0oppZRSSimllFLKgdLNu1JKKaWUUkoppZRSDpRu3pVSSimllFJKKaWUcqB0866UUkoppZRSSimllAOlm3ellFJKKaWUUkoppRwo3bwrpZRSSimllFJKKeVA6eZdKaWUUkoppZRSSikHSjfvSimllFJKKaWUUko5ULp5V0oppZRSSimllFLKgdLNu1JKKaWUUkoppZRSDpRu3pVSSimllFJKKaWUcqB0866UUkoppZRSSimllAOlm3ellFJKKaWUUkoppRwo3bwrpZRSSimllFJKKeVA6eZdKaWUUkoppZRSSikHSjfvSimllFJKKaWUUko5ULp5V0oppZRSSimllFLKgdLNu1JKKaWUUkoppZRSDpRu3pVSSimllFJKKaWUcqB0866UUkq5B/MHb3nL5nff8Iajq1JKKaWUUsqVRjfvSimlXLF87GMf23zhC1/YvOe9793ccccdR3fLyH3uc5/NBz/4wc0fveMdi61KKaWUUkopVxZ/519uOTov5bLwzW9+c/PVr351Ob/Xve61fI6cNN0D6MVyKes6Kce1mQ2HC7HNoRK5fTowy+9toC996Uubf/SQhxzduXC08bnPfW45vxx9q49+6zWvWTaK/sEDH7i5733ve5Syjk0SeR/x8Icf3Tl/tGmj5QEPeMDRnbPncsqkD1/xylcu/cfGJ+GjWxu/ZtsvfOvTn/70cjz6UY86Si3QZ+zywK1N2fZr23HJXsf5cCllnX1zNo5LvyeQOR4Xoudx5S+2/kvNWcnDl7R93LrmSrPnpeZS6Hecra/kcb1P9sul93H1huP67lL0bdnPXXfdtfne9753dFUOnau2HXbX0Xkplxxve9ikEXzxxCc+cfPPn/rU5Rzvfe97l42OpD/5yU/e/NPtEZSVBzYMnrot+7OPfORybWLwUzAPpnO5NfbV9bKXv3ypZ+RXXvSizcMe9rDlvvQR96WvlcMrX/GKZcKy4ZN0bZLxMY95zHLtvvTo7j7bZKLbZbs1eaD8v3jGM46uzg5vQL1j6FPEXiPZDAsXI39schI/uBD4zee/8IVFJz6TPtwF/fl1WNP/OF7wwhcu5Q6hT4MxR65nbGX6hWNscL6w7U0vecm5hSIyBneRfjeW8wYeH/jF7Vi5FJBF/T6Pk+XQWLOnfnvDNmYeSqwohw0fEsfEv/iMa/Ft5nLEhAuBzOZN8+dJZRbTxnECc/j8JcUYD/DI7Vyg/szZ4o90MmBe75wV4zrrTW9843Lvxqc/ffkcyTwlPxuOjDFjnt8y7550bXKx68LTZpZnlPcDW13E1JG1+Bqb8im+hX19oK15/ej+7JO40uxJJ/IaL5lX18Yg+OuaX8VOmPVjf/obl2s2HvsA87iebX2o4/ok+IKTf0b2MWa5N/vY/Iw12mUsu8+ua/Xu8t1ZvkP33XsqNu6+/e1vH12VQ+dU37wz+OyeZ6ETBIbL9TbHPmZ5yOHeeGDc6TdRf2t7P7LOdQT6uL/2doOAJmDljSN1eANpLf8sE+ZvHtbaOokulxsyCOAm2Re+4AWbH97a6F3vetdiux9/8IMXO7z2da/bPO5xj9v80rOfvZSR/o+3+eVh67e97W1LsBbMP/GJTyyLlMdv83/nO9/ZvOhXfmXRWTvaUG4XqUvQn+tiExPEQ7b98fQbb1wW844Hb2WU9qmtnDYGTD5JM7lpmx7e9Ml9ssDmgT5Wr3La1Ef0i/zeMtIm25BdGpzHdibLX37Oc87Zjkz8xhtdaVN+8jlX31njrSmysAE7+WSjeYzEbtKTd/RPPntSf2Uv/Tn6wUnLH5dPOn/UBz7JnPv6ca1s8j3p+uvP6Rb9lVuLGSP8lT76fl++k3CS9k6KOoxbBz++lLDlw7d+HZs52HFf30hnW5/8iUzGhzL7+uekeMDIAlR/ameN42ycuHAxsuB86pEn4y8HH37/+9+/xBFppezjOb/8y8sn//bmJp/5+0djznhw8HlvPWe8njVk5vvGSvx8l8zmZedv2Y5zD43/7IYbzuVRdsZmOMRl9ZnftePcpznduuAlN920tJkNw31rk8tNvkzTN2JUHnzJFF0d1hDWD3T58+36yLrS2iTp7rOVdc2b3vSmZV2WDSprE+l85Li1CTuN68LYSd1id+y4a1142szyRN7Iky+N1mwV1GGtyy8dxgr29cEbtzZ2bf0o/0c+8pFlTZCy4Th7kk36odjTfGpDiK+Qnd7ksJYebSEN9HVOd5vtrqWzUdb/Y/+oh/7S6L9mY+sM5cM4ruXRlvjgXOwj76GN65NAdr9MGJ8zyM4HnX9461N5RmFXOlsfWINhLd5B2X12PR/ffd12XMy2PdRYcE/mUrx5p7+++MUvbu697T8+NvLNb31r89//+3/ffOe7371bbAzS/+Iv/uJuZd0zZ/Hj8RjLH1fvSOS7//3vf3Tn7tx+++2br33ta4s/HjqnsnnH2O/cDrhXbgehAZ0B7L6BaeFkYDsMytMwnCBkQhMILGZ0qm9+3B+PBPDwkm0wE5xMPHMdUI+A554guKaTbxFs1nnYlM4G6pLfRGvxw3lNcuraJY+8L7355nNtjWWf/Uu/dLdyc9nTwCJP0BZ02cviQv/TnRzswF4CfII1PchPD37hvvLsJ50ezk3QDg/r7h23eeebHROYzTkP9GyvDXLBxp6NsiwI3E8AITM59bF7FvXpT58mkUwkeQhQt3L60AJXuf++1ds9E6O+Ijd51Kc9duEP0n3Km80bsqszP9lMmw6Lc2PJg8dxwetSwR58zCebjdfxa4tV/ekgn3zelLSY0P9k5SMv3y6M2ED/SmeXO7f1GBe7FknsarxCmna1GT9IvRkX2pSuXX2Rbw35hb6XNo9TWLR5UCGTDV/9JJ9xr6yxN9YrH7kzJmMP9TpXLvUpZzNl7SExvp9F1Gy3XJOFD9BH/Wxsw0msNT48hLFD2ouObJc22F15NlU/nemWmDa3DbplrFwso13Uy+8t4vRl5gcykpkO9DUOUk7/pRz55v6hF1ktVNnCYkBcYvvRh2ZsoPK/bPbTX9sz7GMBysYO8SX1jf7gGGP0yGhjY2UcW5jrkUc92OUbrtVhDnFfXWRTF58zxswfdJKfncd6S/nBrZ+ao4wvfsKH+JLzHMYtf0q8OGsis7FLrl0ym+8z3owpsVZ8l551wYixK594oKw8iSXWIf/16MHXekW75myxxzE/tJ4mfiavb4x9sqSfRnv4gpIeWW+IET7JnTWPa7AvmybeuBaXzXOxX461tcm8LoydxnWhtarNBvNL1oXkTzw8TchPdn1MJ/LGt8hGdzZas1UwJ/MVmxticvxhtNXcB+avR21tKi87uKctNhjn3TV7mgu1w56evdjT5og6Yk+ynlWsp4M5kj5kHO3ggPnIWGPPfIHONnBvtAE9ss6Spn/YQRtjvbONkXFtM1od8mVcs70yhziuT4Ixo7/5LtvwD2PbJ5tZA/gUz2LP6M1n5GWr+DT7rD2DnNR30x+B77pvrF8JseCezMVs3tlA+//8m3+zefsf/uHmwx/+8OI39/6hH9r8xE/8xJLunnR957CB9tM//dPn1sHG37/Zps9l3/Oe92xe/zu/c65cjmuuuWbZgLvllls2v/3615+7/62tHD/9Uz+11Dkyy+d46LaO+/7Ijyzpd9x55+Y3XvaypW3rfumPuPbaczHiEDmV/7DCg5QB6mFsJG812Ly5+aUvXQzlwdFkeTmxoBAUxiCibXLkyKvBYx6ygh7KOwS1EQ9OoE9ey6bniHoSeNShvte99rVLuyYo8uEbR3YQECOXySywKxm1I496Uzb5c8y6nAYmRYw2cp77FhdjWmRMus+5LJST14QzI83gyzHWpYyHdQc/kzfwObb30Oxg2/hh8qWsI/WOxKeyOM6iRF18QN9YIJDDAZNe0H9p00806avOyGSim/uQbMaWSfK0+3cf5Aa/dNhIOinsQNfYykLsfGNCyugDsCVbjX0uj7HnJxbuR+YR5aJDZCGfet1TXln3fOpn+aSpdxzP6pfP5q508s2xIfCvC+lP8pmA2M74sAmmLT5JPmMCiW/kS8w66WIofclHLwXsM9oFZGIfiz2fYqHY59zC0OdauWxAjf0jj4N+bMI+dE9fxUdG1MGW+nCMQTPsafzJpz19ppz+O84fToq61KNu9USH861nhjxgG/7AVlm8lAJjax98hZ8fysYdzldm5xCfze3m2rW4/OWjfGNcFhvECkfWBMZRyLxzlogXx80liXXJF33GNU/0kCdxlc3Eatej3pBfbGTnsf3YaYyr0nPfpzRxEz6ln5UdtT3qwFbIfEmu2VbRBZkjrMP3MfaBOvXBaKN8ITTPu2v2dD7bM8Seo4ynibZnX5nhV/JljmIPco82ZlO4rz72Us7aXtm1eX32c2Rcj2vU2Ct9i9m+Z+WP50Nsg9jGvWw6ig2xMdiHbeSJ3p5RYvM8c86c1Hdj67BmW3Xkvk9padNn2iiHw7ve+c7NZz/72c3znve8zW++8pXLZvG73v3uZTPN8aY3v3nzk9dcs6Q985nP3Nx6662bP/3TP13KfuhDH1q+YHjKU56yefGLX7xs+tpkU+66665b6syhXtz/fvdbNtze9va3L/XefPPNm+uvv37ZzFPfjC/4I5827n3ve29e9apXLW3gzVv5kHTk3qFyKpt3AoXNrDFgwuQveAguBmgezjJwLxeCtA0vbQdBgRw5EoDGRakNBWnyCkbqcD1iQvc3A+hDX5/qCXRTd+4LeNpI+2Ng8q0I0qYyDrCdfHkId9+DXRYUyuQQMGddToNR75Fd90GXcCHl2ddEkoOdggdn9kq/WaCry8H3+KlNVOfjQ7ZFAF/JhiwZTYIj+iIL1RH9SQZypS3oLzKQ0YQ41yefMtqKTGsP7FnkHPfActqQiQ4WrjZeZvmMJQ9JGevx+UBftswYndOPQ73sm5/2pJ7YH9KlOTCmBX2f8aUuWDyrz5GFDx3lSzvGXHwhsvMpeeiW8tpc0819Njwf+Bl/AF9U7yxndExMoF8Wrfmy4DjogPPtk13k29j0mQPqzznd+NBos7Gc/pEG19E75dM/NjNhrCuzy/7GGo6LmWynDfKpL37OR47zh5OShzV1aysL7/TlhUI+9fFLn/wSY8wsZR95aMs4uxKIzImvPsV2/m+uNU6Nf3PUSMZb4t/IrjG9lvfQoCv5x1gnxri23rHuQb7kCcqIFezChnM8mjdgwq64tS+eHYodzav04i/xn9hq/MI+tmIj/jbmX2PXJvhJ9L6S7bkGn5rX0uZ6859nHDY212b9Hpwry45rtt5l4312GtNGm10J43pktA3Z13SOz2aTOetB66nEAeWyxgz13WKTzabXNQ996LIxdr/73e/cxhiu/yf/ZNmck/Yz1167fH7lK19Z0j7kLbhtuSc8/vHLG3dPetKTlk00eLtOnTlu/fM/31z36Ecv92/9+MeXPOp9wPbam/Puq2/Gxt21j3jEUseDrr56c8MNNyzy3f7FLy6f0r1VmnTn7kXGQ+RUNu88wMwDzuA04AXhkIB7qd7o2IWF5r4AQC4BaVzgQfCLvLvqMMHM38iNC1t1qFM9ygt4qTNBMN9S5IHTNx5++mSzI9825Y0tD17uyyP4zjKpb16snhaRZQzEY59Ldz3CXilH3rFszvfpwddMNDnyMK1O/eBQXj71pT352CjnZJQGZSzslXNIj/+GtYWq/pAnb1VaeIwPBe7ZONIWPxjHST61G5nUH5mg7rUNw0Mgbxrxd29KzZuT2XiJP2ezJEgbGf3gNNGvZDfesvGzSxb9lP7JGB5RLv16OeAP/IQ/ON/3Zlbsro+ywTT688jltr04p+3ExKDdxFl+lHvB38YYy53EtvozMcAn5m+D1SmfevV72jZuZxtpU5/LO5M0rPnD+WKMiPWXEnKxaXTESexYyq6HtkNmTWb+7jqxxkaLz3FMIONijAH+/jGMfz/Dx5hu/B/yeCKreWJeH5oTzCVkp1vm8hH3rGE81JtPxvlGvbvWJmlnjOXOE0Olj2mYr88C+ljT8Y9Rr9iK3A52Sdw3j7AFO8b36DJvDM9r9PhM6kH8Kn4WjrOnug7RnrtYW0sbm2xOp6TRYbSPNP5o3c9W2YwKu56D8uXlaJOMa3mvxHE9Q4/YhtxeGBhhK+NbntgnnzanlWFfvj7HgYvx3TXbOz/0WFDuztVXX71sen381luXt+He/x//4/ImnE06hw25/J05b8fZMLv2Z35mufYTWj7zazfdtOxz3LT9/Oxtty3lRrxRd+eddy71Yvnbets8qRcP/Uf/6G9tuGlLOTIGb+7h9q2P+jt3uPpBD1o+kbze7jtUTmXzbo19A/CsB6dJWrAZJ2jXglE25o5D/ryiPNZj0s5D44i6/eTLwiCTlgcri4JsRAmc87dNNjptDkl3f35gX9PltIitIhM5BP4EZvrlHtiADimXiUIe0AUX8iCszdSDvNWof7Rr8zNykMGRSchEN052mZSSrt61har7yYMxv0ObNi6UM0nZiKUzMqlFppQZ61tb5Jw2ZEJ8MvK5Ht9yTD+O6Rb9sVnefjspYz2YN2Ckp58uhryNhCy4s4k3kz7ia/HxkSxEIvM+yL+WL2MpabED2Jm88Yd97Yz2m/Mljf3oM9sxfR4fvVhSX94omzEmRlnYkX0zNsSL0Q7Hsc8ukK4NbVmYxubG52wLm3vyk1GZEff3+cOFYFN8F/HP2BORKXInLfbKXEQPD5e4VP1a7tmc1ZeCF8OazMaNuXgcI8ZuxkHuW3cYN+PGi9igLvczxjOOEq8ypx8iu9aHHqLGnw7LE5u5Lz2xJIxxdW1tknid9duudSG75x6cs+PazyBPC1+crG3cgS3GjaLRVnCuPN+jBzuNX1bu2lDOuinEr2Knk9pzXmcfgj13QUbHbGP2HdfgWb+zbcZv9AujP67ZOONaHfO4lt99R+bIeVzn/iFDzjXbjLCttY21BX1D/CovikA9Y56L9d1cX0mxoOwmG2XGnvMZf0vO5p4NOG+5QT4/o33a05627GX4aayf0dqcG/Ez3Lx1F/jacYxxYGZNRpyk3rPmzDbvEjBHw+b8LB8eBAeBZl7g5WdQJwnY6sjGnW8yRkcQeOYNQIFJ/rw1E7TlWnmykImN1J9vMMZ0AW8MmLt0OS3I77BoMfFa5JAjOkauTMxsED2Rb3zcl27RyEYn6YMZmxrsYSJTX+piM8fYjjzsHDlNYiY36Q4Lr3w7j12baOTX38rQ0ad8+t8nPWzYus82GG1DrtgmtssGB13WNgxPi8gf33Ugk2rs6JMN5I/uoBed9EPqOh/YRjl9oW12RNpnJ31IhnFRdqGoX1vanPt5Jn4xM8qUxcwu5rEMbetz/7kEf3QtX3B9UrIw0wfpu9xL/JVG1lmfbJSeT3v7SCzjC5kDRuIbZOH3GQMXgroyJuMz0Tuwab4wcWTDzAbz+TyIR5dd/jCSPGyQc308+ol4tat9fSHO5j8ecZ2DzolfxiNiQ2naU5Z/0/04/y6FXxqLZzX/XAi7ZM74NzbGudbYMJZce7g0TpQVg40lh/ryBY/8xs643hnXEYcG2XetD82jmVsd41pDmrJJoyfb7FubsJ+8Yu+anWJbRJ65P85qE5QPiMugl3nIkXvsMfqE88TQfIGZI1/yeC4I7LDWB+zBXtpKvdad8s32VO9x9pzXkmdlz33sWkuzsTkstmB786G8Gb+xv7fT+eC4TphtnHGtvbVxza6xnzlRW/O4Hr/YPVTITr/oRXa6x77sSG/QLb5Nf7Zig+itPLvGLrgQ3xVzYuO1WJDySN3Sku76EH23bJbNtWc985mbZz3rWX/r78/ZuPO372zc5T/ig804P5vNZt7jH//45TNvxGF+6w782r1xA+7Or3zlb72xp373xnz+Awt42y6bgflCAOo9dE7lf5sNgu8YVP0Pfg47rf7Xkbe+7W3LgD6t/zVTEHOMwciChZwe2EYZ/G8oZMzmQJjryKIG+R9ygnz+R5RRP0FNUOKUoxww2Ur3+2v8fz/ykaUOjk8Waeo3eZlMyOh/7En+XbqcJuzlTSX/e5P/Scj/ApdATwebOR7eye9/PbLYyf9AQ2bpeQhW12wjyM8G8wQywk6xC0wk4+TOByOnfCbm1EduckhTj/4b/YDPqmtuXzn5yO9QL/3jE+rMW1zOxzQ6kYltItOYnsl11OG0YXMbPXSjK7v4BL3o4Ei/608y09X/FpX+ZevoddX24MPqVna8nn1Y2dxL+9nMsiiIbf0PVc61PdbjPPkxX4foYCFBVteBfGRX1qc0bfsfuTBeqyN2kd/5qOuIn23437v4D3m1Qw86YrRp2NVuWJMFZDAeMj7kkaZu/sUPo6M6LLT0X2S5WLQff9CG/71w7PPYTH+Lff6gLdhk7NP5es5DB3XQf/TZtT6fiWypN8z9P1/P/bDWL8h12tHXIJu0sU4kH920uc835GNDNl7TWf3s7QHlSnggKacPH+M78VPzj7HElw+ZcaztkjmxxRiZ51pjyLhJHE7cFD+MPWPJ/yAaxnrktZ6R7xAYYyHoADE+sSKQ3dxOd3agZx6YXWeugHN6JjatrU3+3pEtrfFme2uLvWOnpOs36VkXzjKeJtrmN+JmjowHn2zKnrHVuD4c0QdibeK75wWs9QF7ZP3IJuZoczFme+qD4+yZ9EOwZyAD2/lkC7qyRWQPsQXk9bwU/6KfNH2hPP1Hf12zsU++zZ7OlWEfzP4ONjvUcX0cebYBmUf//O7WBvyRTqNv80924fPKJg7wK3lxob7rmUb+XbFgtG3SDykW3FO5mP9t1n/u8L5bbln+9h1svH30ox9dfhrr57S7Nu4gr78v99jHPnbpb3k/+clPbh7/hCec21jzP876W3mpH/f6wR9c8v7dv/t3l/+Z1k9c3/72t29+7md/dvmfbNX7ne9+d/GV/7KtT51pwzOMN/vsJ2gjP+VN/d4OvOqqqzY3POUpy/UhctW2w+46Or/s2Iyy+eQbKJjkbXQxrsO1Qb62QXM58K2LTnzTG9+4XGfjTcASIEZ8g+DhJhNGmOvwzQA9olOgs7w20/IHgAW2/A2jcSJI+2xFHmlr9tGuOuWXBnXLv0+XUsphIzaIJTYMTysengRxRSwUU8hWSimllFJKuTKxcfftb3/76Or88LfuXv/61597y83GmPNfPfqfW5//ghcsn9mMgzft/FTWW26vevWrl3sp++hHP3pz4zYN3rp78+///ubXb775buXxm6961bLx58095eyTPO+5z13y2Vvxn1R4C9B/TOF/l5WeNsaNRP/JhQ3IUX6yeZPwUDnVzTubUf7Gl5304GHQa7QeVt232XRa2PDyc9h8C0EGP7HLGw1BPg/SNsZ8KzEy12FzLv9Lz4h0m2nK5+2GtDfDwWKj2Afkmu2jPe37NsPDdDYMd+lSSrkyMPYdpxkTj4M8YsscB0sppZRSSilXFhezeQebcPmZ7P0f8IBz/6usN9ps7s1IkwfKyuMXR37KmvuwOWdPZbw3YuPttttuW/6TiZ+/7rql3ty3GZef40Y+8ngjMPeDDbvIv5Z+aJzq5t2Vik1Hf2Ni3x8LPw4PvH4ea+OuD76llFJKKaWUUko5Ky52866cLt28K6WUUkoppZRSSvk+opt3VxZn9r/NllJKKaWUUkoppZRS9tPNu1JKKaWUUkoppZRSDpRu3pVSSimllFJKKaWUcqB0866UUkoppZRSSimllAOlm3ellFJKKaWUUkoppRwo3bwrpZRSSimllFJKKeVA6eZdKaWUUkoppZRSSikHSjfvSimllFJKKaWUUko5ULp5V0oppZRSSimllFLKgdLNu1JKKaWUUkoppZRSDpRu3pVSSimllFJKKaWUcqB0866UUkoppZRSSimllAOlm3ellFJKKaWUUkoppRwo3bwrpZRSSimllFJKKeVA6eZdKaWUUkoppZRSSikHSjfvSimllFJKKaWUUko5ULp5V0oppZRSSimllFLKgdLNu1JKKaWUUkoppZRSDpRu3pVSSimllFJKKaWUcqB0866UUkoppZRSSimllAOlm3ellFJKKaWUUkoppRwo3bwrpZRSSimllFJKKeVA6eZdKaWUUkoppZRSSikHSjfvSimllFJKKaWUUko5ULp5V0oppZRSSimllFLKgdLNu1JKKaWUUkoppZRSDpRu3pVSSimllFJKKaWUcqB0866UUkoppZRSSimllAOlm3ellFJKKaWUUkoppRwo3bwrpZRSSimllFJKKeVA6eZdKaWUUkoppZRSSikHyWbz/wfdjRhaADSEPQAAAABJRU5ErkJggg==;" vertex="1" parent="1">
                    <mxGeometry x="-140" y="30" width="1290.22" height="474" as="geometry"/>
                </mxCell>
                <mxCell id="3" value="" style="shape=image;verticalLabelPosition=bottom;labelBackgroundColor=default;verticalAlign=top;aspect=fixed;imageAspect=0;image=data:image/png,iVBORw0KGgoAAAANSUhEUgAAAv8AAABcCAYAAAD57NpLAAAAAXNSR0IArs4c6QAAAARnQU1BAACxjwv8YQUAAAAJcEhZcwAADsMAAA7DAcdvqGQAAB7LSURBVHhe7Z1dbCRHtcePk5tIUWARXJ7ylsTDysod8ZJIGeeJEERsHDEmknliTaQwDkJZ7JVWF65YXSRHAmmlHZOrCOxcifW+YYnFK8xMkBfe8KyUfYkmYLwzu+EpEg9ktRtDELnJ3Kru6p6a7qr+7pn++P+kzrqqv+qc86+P7qrpTN2+fXdAEvfff5/4C4Di89FH/0cXL/6c7ty5I3LAJPjUpz5F3/zmC3Tvvf8mcgAAAACQBhj8AwAAAAAAUBLuEf8CAAAAAAAACo7rzf+VK5fFXwAAAAAAAIAioRz8Ly4uilQ6/OpXv0r9HgAAAAAAAIBRtIP/EydOiJzk2d7epuXlZZHKN++++y499NBDIlV8imRv2WIXBfgIms8aZdYkbC+u7Xm1r6yazLPdvOxY8w8AAAAAAEBJwOAfAAAAAACAkoDBPwAAAAAAACUBg38AAAAAAABKQvYG//0Nmp2aoqmVtsgwaa+wvNkN6rdXzH9Fvnn8LG20xXkjG8sfHkgbs+IaIse+l/L4BPCzRaT7G7NSGaZo1iqEON9Oc3je7AqtcFukc+xzV1bYfslGjnEOy7P+FdkGqryoiPIOyyP507VP7FfGbYXa4ni37QH8lgQhbXGEmOHUm0g7zuObETNXfsJaTJww9hTcdw6bRnTI2ytpn9wW+NV7eZ99mmJfMvZ6+FhcXF1e//PsY+R2htuRVLsj47ouv7fsH2dZgpQ/J4S2nWHpSdlHefQzGfWNW6Nt3/jmRteOcqjbhGHfKR/rmS8uY9JmMU++/NmPS8J2u+6nLzffZlk9dddLVndd4yMRL2Usw/UD2XzzX2tQo7s+NIQZut6tUY3/PbdJreoanReKbZ9fI2peotUKS9Sa1BsMaGBvB7Q6bR5H/T3aIXZd9t892UHyOb0l2qk4K0NMvGwxkrNU2VmSyt2i6lplKGR2fnXnlCOoM3T2wCpzk2qSDQdnZ8QxE8LLn6r4KOO2SXPG8SrbTXz9lgRBbWEx6M47BrEuvU3TqlfMVL6xtJtJQthTaN+xTqOyQ0s9695Mh4c9Y4/Rec0TtaSytWjX8IN/vffwUSr2eviYXVxfXvI8z0DX9qbB9AIxtQ3vY9x7iRa0/YC33bkitO0CbR/l0c9k0DdujfZo6fCIFoqga45UBl4mu02YXqUDu4xW3ykda2w++QyjvWIN1pZIJ0XW45KK3cq6KPneWfaDg2Dj2hbRvPWQ4IpluH4go8t+Zqi+RLQjPMcdUV1iGYK5s0z468wBvJHaatC5ABb393aIls5Svdqxr+ti+iRVxZ/J4WVLm8wYr7IuyGKONpkw2AniKZA1wOeqtGapIk/E9qfO9iB+SxgvW0Tja2hSZAXSW1kovO+qdNIWItPhJu9O+8TNaPaGnStnbpOnQ+pX4aPxEq++jTee07QgtbfUO2T3XrDLXex6GdV27/42H6g0yh7sNuW0kzzp2kEKbcL06oE5KBXpZMh+XNKx27suqgg0rp2rU6NzSObrpXhkds1/ZfUce9I7b0xVrXebdHZB7OAw4Z9jT0mnTu1QtSV1rp01qsjTIPY0itkRLy1MM981qKMTUHuXtmozxB+2kkRrS/+IujXpzYwFHyzJAeazHTQ/+nbUC6cfKmvUEbs89yWN05+6+Djz5alIle1B/ZYkftoYuXdAvclotVsACu27Oao3tmie31cWKX/T05EfCiSi6FfeN257Y9W3CPGMyfTJKnXE7Et7d4uqdhDGX5ZxE9V2z/42D+g06kXOdO3Cq5y6PtWrr02DMsZFoK+LGnTjWon+xvqwL43ZD2T4B7+iU2WD0+o591Mif0piIaazsoec0yAH4jxjykWIyXhykqZjZAeuz1DPOidRvG0Jgv1UKNKeOP0gP9V67UsCL3/q4uOavnK8LQ1je5JE1YaX3nTofJNXSuS7uU1x3/quaa/1EJDCiwSDPGklSjzjwu+zxZdX9emo26C61ZhMoizjJrLt8fuo7CCtr07rwTjrWtL1qT59bbqULC66uuiBclwr9aXGUiirvY/ZD2R48G86okbBnOYFnwbq2A7ka7uk6SDLgXwQ7PtUGR2lLcaTrEKcxpOvY+DAngovLe3Q+T2Rzipp+NNpexi/xSGMLdK9PfVWFsrou7lN1gi3zAZfp1FOFP0mre0wxKhvk4knH8h26ajNBgLVuj24KUe9jG57Uv3tRBjRqPgdh9+Lrdzp2sEk24SglDEuNuq6GBp5kJ/gi55MD/75oO8g9pMpnwbqUKMlnMe3lmI6iN+L/5girWkwpS1zxB/01k7JT8H8B4RrfN7KFeTp1XPs4BSX6SRJwv4ctT2c32Lja4t5b/ONWUC9lYWi+66/QbMjy32sDkpo1PEBgfYKT4fVr+yjSRC1vk0unnP1Kq3NM58NX32Xpl5Gtl3ZR+UFlUb9yJ+uh0y6TQhK2eIyirsuZodsD/7DYj/xWRv/VBKfBmqOTqNY00HO15Fzm9RrdtlAJdwnk+LAf2zSW9qRym18HkTzNYU52mRizg2yP7mvVfEJPDUwans4vyWApy3rNNMbkPk7Tw+9eWlK5ZtJtVhJU2Tf8a86dOeH9+Zf/hE/VDM0atg9LNs8mW+AfPWr85FrH9/StzdSffOKp0sHybwksOH3kd9iR9VWHglje+D2N/u4NOo7WMyZrnVtAn8BwWw133hHv5/x1Rv7Oo4vsMUg63FJy24DZ11MkhF7+BauH5i6ffvuQPxtcOXKZVpcXKQTJ06InOTZ3t6m5eVlkco37777Lj300EMiVXyKZG/ZYhcF+Aiazxpl1iRsL67tebWvrJrMs9287MV68w8AAAAAAADQgsE/AAAAAAAAJQGDfwAAAAAAAEoCBv8AAAAAAACUBOUPfgEAAAAAAADFA1/7AQAAAAAAoCRg2Q8AAAAAAAAlAYN/AAAAAAAASgIG/wAAAAAAAJSEwIP/Dz74gP75z3/Sxx9/LHIAAAb8f68+u0Eh/s/ao8Q9HwAAAACTg/fjU1M0xbaVtsjLMKHe/L/88sv03nvv0UcffSRyEkJyGt9mN6xhUJtW7PwVlhJojx/SXmH7JjCg6m/M2uWytzwoITYsViP+1sROm2/hvM44UZfNL6b9vR2ipQWajnt+oHrAt1ka7lpxHZ+qBlOvq2F9GM3n8dDYasP25+VhbiQ+kq5yhV88LOTjJHuD1jtbP7p8hqI+yiTfL5XY9kJo14sgMfCK+YQofFzUtM+vUYca1Go1aGs3c1FxEWrwf+vWLfr+979Pt2/fTvYBoHdI1daABgO+tai6dsoQTHtlnkjk95pdmrfErznegjcy6ywINZEeJ9OrB6Jc5sZ0QLWZithbTMyB1jxtiTRHFzttTBmq64wTXdn8YsrkyMbubOgf83xvXbNGxb7GAa2yw9kNibnLzj8wMlPWYMp1NawPo/o8DlpbGZPWcDj6tHFqh5Z6wk+tKq2dyslDi4RXPNwo6pFOo+1d+7qDQY+a3XWffHV9tEijXyqv7cXQricaX4eL+bgpQVw0VGa4urdofn4ruf42RUKv+ecPAKdPn6Y///nP9OGHH4rcmMxt0uac+JsqZPiQPc/ubjWoLvKnF5ao1j0yRaQ83oR3vuszPTo4OyNyJgh7Al5nNpxzNIRFwxho9ZpSw66LnUdMedp1nXHiXTYbV0z5eVU6OR33fPanh65VtHe71Oxtkn2KiqQ1mGpdDevDXkSfx8G7jJPVcEwqMzksd0DNeKHT6Eh+jw47qno6zPeqj+n0S2W23UEuteuD0tcJxHycFDEuGswXTi32iDvsa8yXQdJMGOuLsrLEN9IPfv/6178aMwA3btygf/3rXyI3Ifp7xJ4bib8IHWH6JFU7h6wKOJCO544+RZdcbx0mBZ8GouZZ78FZGdDFTpefBTRlc8W0vUtbjbo7xnHPd9WDLZoXU6lmQ8I7gQ6tVazpVfU6w1Q1mHZdDepDi7DHJ4HO1lwwTasH5+jQ0lCFRefSKsvNMb7xcNYjBy5N92ljlh+/S/WBPLh15uvr49j6pVLZXkDtKtHFQJC59qcscdHQP6JubYY9Ro/S2dljkcwWkQb/nL///e/GA8Ddu3eTmwFgjchKKLHIx/dpb6dDnbWKEN0adTprVJnUU1bSb1zB5FHEtL27RQ3rNYwfgc931oM52jSmfvkmL52RpvF7TerOO9Z/pqrBNOrqOnXF0VrC2oR66MlwCUGPmjU2gDufpSUESaOrRxYqTfPBDD++Trsj65dV+ar6mJV+qXi2l0O7uhhkl3K1Kd5keSY48uD/wQcfpB/96EfG/wn4vvvuE7lxYI3P1DrN9MRaRCeuJyrn8VYlERt3eK1JvYOgg5NkSfVtY97QPA1r87OAomzumPbpqFsj5fK+yOf71AN2ReVyoOkFWqp16UjqHNLTYFp19RxVjeMFgXwoEfb4JFDcMzfwB6Nuk84azuExkdZw55XA8XDWI796N0f1RocOXa9YNfl2fRxjv1Qm24uoXU80vs5a+1O6uOSXSIN/a+BfqVTo/vvvF7kxYIKZdTU+XOxbZP1omn8RpVM9aTYayuMzBK8ApX7bqIudR0wnjk/ZVDEdmSaPez5Pa3TdXhku6eHnGGs/zfutW62qnW8mU9OgsowetutsUhLWhxF8Hhufe+YJY8nAGtkv5pwaygV+2pNmw5T1iP+t1mh/Y0UatPClLeaDujrfLIe2PqZCiW0vhHa98fJ1ZtufEsTFFz67NeVeWtfj6//F7FcmJkNu3747kLeLFy8O7ty5wx7UR/nHP/4xePrppwcvvvji4C9/+cvgww8/FHvCw+8h02vWBqwoI1ut2WN7WoOGnddgKRP98RK95qBWaw4cuWOgN2jWFOUpMM54NIxAqWOnz9ddZ5zoyqaOKS/vaF6887W65lqW8oZ+Ma9r5tcGw0ulp0FtGTW264+XGKmr4XwY/vgk0N3Tbe/4NRySEW3JGsoTmngYtjnT1nHD2Gg12mqM5Nmx1OVr66PEiNaToMS2j9iUV+16oPW1vv3JBEWPiyfDemD3PcIfPG3Vt2EsJ8cUH/CzwthcuXKZFhcXjeU8Mvx/8sW/8sPf+H/605+me++9V+wJz/b2Ni0vL4sUAPmEf75utz6QvsgQjrjnAwAAAACEJdSynyQG/gAUAz4NO/zkWnjing8AAAAAEJ7Ag/8HHniAPvvZz2LgD4AB/3qG4tNrgYl7PgAAAABAeLTLfo6Pj0VO8uzv72PZDwAAAAAAAGMm8Jr/JOFr/p97/hsilW8+84l76L3jj0Wq+BTJ3rLFLgrwETSfNcqsSdheXNvzal9ZNZlnu3nZI3/nHwAAAAAAAJAvMPgHAAAAAACgJGDwDwAAAAAAQEnA4B+AuNz6CX356Z/QOyIZmrjnAwAAAAAEJBuDfz74+eS99O9i+/JrN8WON+iMnf8SXRW5+uOHXD3N9k1gQPXOa0/Z5bK302+IvUWGxUr2d6CYqnzjuM5E8LLlKfrpLZEveKe9Q/T8Aj2s0aufJuzzg/pMLsP+S67jU9Vg6nU1mg/Dxiwe0W3NMpNqM+NS3jaXo9GiE502U60n48NTu7m1XY4t2yxNa9uZgFoYI8WMSzHIxuD/5iE9dvkj+tv7fPsNPfa9U0bAr57+CpHIv/7jLn3dEr/meAsuuPP0LXpcpMfJw9/5gyiXuf3iBaLHT1bE3mJidr5foW2RNtDFaH/Xjunf3r9Br7y9bsdOeZ0x4y7DTfrpiztUf0uU+XKVfvDiaGN284ioPveoVq9+mrDO99b1t+gX9jX+QN9+hGXxgf/XyM7/7XfYNRipajDluhrFh1FiFoeotmaZSbaZcSljm2uh1aITpTbTrSfjwle7ebVd11eGbYMnRGHjUhCyMfj/0s/owpfE31ShyhP83zeo9fNv0bzIf3huiR5/+8gUgfJ4Ez4QOH/yBv12dUbkTBD2BHue2XBWDMqKitH5vnVhtJLrYjSS36Pem1Wq8IEsQ3mdMeNbhkdnHPu4TrkNHnqVcWnCOp/96aFrFVd/3aVX3voZPSPSSpLWYKp1NZoPw8csDtFszTKZajPjUpI21yRgfeEE0Wai9WQ8BNJuXm0fKbfUVyrtCaGFMVDouGjgNrtmMKxZD/63PZvBN8fMjDSDP67Zjuyt+b+1R7u0RM+KAaHNIyfpsTcPyZrgspGO585/iS7Zb0AnzdWNM0Q/Pus9OCsDrpiyp/unuch3af59n8HrxHmUvv37c9T7vKiYn9+h+v9+lx4We/nbme0X6m4bNHp1aUJ3vstnr9PXReNgNi68sb9GP7DKxbYz++aRMqlqMO26GtSHLnxiliQBbM0yWWsz41LqNlenRSe2NsdYT1IgknZzZ7tPXxm2DR4D5YiLnuu/3HM/dD3yXfqtMcNhbsbMjL0c6g06I83gG7MdG+nP2mRs8M+cECrY8vE36Y1fXqPr3/ucEM0Zuv7mGXp8UmtYS/UGygtVTHkF50KvUysHa/qG06k36JUn2IBbqphXf/06LT/3rEj5oNCE+nynz56lC3bDIS8nkZYCvXWB/vg1x9uEVDWYRl1dpz+Ko7UEtMkrZukT1jeTImNtZlzQ5gZgVJuTrSdxiKLdPNru1VdmsZ0pS1zceM9AWw9x5ks6Y2ZG7KFbR6zfe334MMBnO8Ywa5OhwT8TwCfXqfKWWM/shDvoiRlWFSycx1uVRGw8CE9coOu/n0zFwFt/jk9M2aB2/oVr1JvE64mg8AHF2xfoZWN6kmuMNUj27xRuUu/tJ6miGmu49KrShOp8P59ppkcfWaD6E13qSZ1DehpMq66eo8eM4wWBfKjAM2YJ42trlslWmxmX0re5ivoyikOb46wniRNWu3m33dlXhm2Dx0XZ4hIQPrPxpvjbidF3P0mvjPkhLhuDfxbwL7uEzMX+OrXEUgb+RZTr/3HSdI7y+AzBBVz2N1CaGL3z2ktSReZLVzSD56xgTJ+eof+xltQYlVisvRyZcvXQK0elCeeUrU7X+y8Nl/TY9zfvd95eXyiVy0inpEFlGZOqqxF8qMIrZrHJcbtUZNLSe6bx06LzS1QObaZaTyZIQWzX9pUqe/zazixQIk3efO0pe9bDtoU/BLEHouHvHATcRtXSrZTJxODfECpdG1m/zNc1P/Pqb4i+ZqYf/16VfvGquTxCd3w24L9WL9cbKL7Gz57eY7HgA1VdjB7+HEl5fHpvWPFV1xk37jI8Sxfe4ktqRJn59KT4kS230fzEp4lOrzpNOM/X6vrRGen+Z+ixy+b9n3n1BtV/aU2vDsuVpgZ1ZUyqrob1ISdMzJIgn+1SkSlfm2uhry+jqLVZSbWeZIW82q7rK8O2wVmlsJpk/dB5ukTXf/ykyBCI/sm0i/VXIntSTN2+fXcg/ja4cuUyLS4u0okTJ0RO8mxvb9Nzz39DpPLNZz5xD713/LFIFZ8i2RvXFv4ps9Zziif5gMQ9fxyUTd8qoPlsUWZNwvbi2p5X+8qqyTzbzcueva/9AJALRj+tFp645wMAAAAAhAeDfwAiwb/AE2c6Mu75AAAAAADh0S77OT4+FjnJs7+/T8vLyyIFAAAAAAAAGAcTW/OPwT8AAAAAAADjBct+AAAAAAAAKAkY/AMAAAAAAFASMPgHAAAAAACgJGDwD0Bc+hs0O7tBfZEMTdzzAQAAADA5eD8+NUVTbFtpi7wMk43Bv+Q0vs1uWMOgNq3Y+SssJdAeP6S9wvZNYEDV35i1y2VveVBCbFisZH8HiqnKN0GvkwZqvfnFtL+3Q7S0QNNxzw/qs6lZGu5acR2fqgZTr6thfRjN5/HQ2GrD9ufmYU62hW+StnKDXzwsHLZaetBo1F9DzjjryqG5byLAdvvaudRuEBy+DtpPuHztuE5qlCUuo7TPr1GHGtRqNWhrN0mdp0M2Bv+9Q6q2BjQY8K1F1bVThljaK/NEIr/X7NK8JWbN8RZ8MLHOglAT6XEyvXogymVuTAdUm6mIvcXE7CjmaUukDXQxau/aMR0MetTsrtuxC3WdFNDpzS+mrIhs7M6G/jHP97aVNSr2NQ5olR3ObkjMXXb+gZGZsgY1ZUyqrob1YVSfx0FrK0Op4cyj0FaO8IrHCLq2R6NRLw2p4qwth0ebF5cy226Sb+36kWrfmirFjouKygzvxbZofn4ruf42TfinPuXt4sWLgzt37rCYpQe/h57eoFmrDZq91qBBjQETkEmvOajVmmyvE+t4kWrWBjWe0B4/RngZZBuKjKe/R2M0xBFjTqTrJEFAvbliap0X93wnsq3qY1qNAL5w3S9Jkq6rYX0Y1edxCHBPXTkyiVpb+SGo9pzo7Na0MSoNjdwraDmS9HeZbeckfb2M4hlXTcxUvgmsj7iUJC5KRm3nfRwbZpv9nJkxphj4k701//092qEl4i9CR5g+SdXOIfVE0kY6nj/dnqJL9hvQScOngah5luZEurS4YtqnjVk+HbhL9cFmcP/otJEGGr25Ytrepa1G3W1D3PNdtm7RvJhGNad527S71aG1ynB6VfXSL1UNpl1Xg/rQIuzxSaCzNVc4tZVjfOPh0/ZoNB1aQ65yRGzzwlBK2wuk3Si4YjYGnQWipHHpH1G3NkPO9/6dnT0WmWyRscF/m1YqTMqXVsljSCAhH9+nvZ0OddYqhuCmKmvU6axRZVJrb/sbtL7VoHNlmO/yRBXTaVo94NOBddoNvB4wrDZSQBHT9u4WNeoBm9jA5zttnaNNewpVXjojTa32mtSdd6z5TVWDadTVdeqKo7WEtQn10AedtoqKV9uj0XQiGorS5iVN0Wwvm3adqGKWBZ2VPS5DjOVzrG+exBJ0PzI0+GdCnlqnmZ5mfZjricp5vCV6sXGH15rUOwg6OEmWVN825gafmDLv1BsdOvR9bep3nRRQPMG7Y9qno26NlMv7Ip/vZ2uFjKWFTqYXaKnWpSOpkU1Pg2nV1XNUNY4XBPKhRNjjk0Bxz/yi0VaeCBwPZ9uj13QkDWnLEbTNi0CZbS+CdkPh10+k6eswlC0u+SFDX/txCpmLd4usH03zL6J0qifNgbzy+AyBt43aGPU3VqS3AHzpimbwbDG2WHvojaOK6ciUa9zzeVpja3tluKSHn9Op0slp837rljPtfDOpvF8SKMuYVF0N68MIPo+Nzz3zhlJbIp0L/LQ3nA3Ttj1eGg2sIX05Qrd5gSmz7Yzcazcimpil6uswlDUuFnwWW7Hcqcd/dC1muc9b/pkkWfjBr/WjCHkzfyDBfzxh5bl/ROE+XmJiP6zgP8BRlKfAOOPRYIHSxqjVGMnjx1qEuk4qqPWmiykv22hevPO1tnItS3lDn5nXNfPlH32lp0F9PJKqq+F8GP74JNDd022vrO9MotVWntDEw7BNSmvaHr1G9RpSx1lTDo82Lz4ltr0Q2vVG5WttzEL2ralRgrjoMesNt9uuO8IfPG3FIQs+meIDflYYmytXLtPi4iKdOHFC5CTP9vY2LS8vixQA+YR/pnK3PqDNiGtK4p4PAAAAABCW7H3tB4BcwKdVGxT0t75u4p4PAAAAABAeDP4BiAT/okGcT6nFPR8AAAAAIDzaZT/Hx8ciJ3n29/ex7AcAAAAAAIAxM7E1/386uiVSyfKf//Xf4q/x8JlP3JPaPcdtSxCKZG/ZYhcF+AiaD8q4bCmzJmF7cW3Pq31l1WSe7eZlx7IfAAAAAAAASsLEB/8//OEPxV/Dv/3yOM50FvArtyqP40znBT/bVHkcZzoL+JVblcdxpouMnz9UeRxnOs/42avK4zjTWcCv3Ko8jjM9SfzKq8rjONN5xM9OVR7Hmc4jfnaq8jjOdFbxs0WVx3Gmx41fGVV5HGc6b/jZqMrjONPjJBNv/ifpgKQpki1BQOzKBXwEzWeNMmsStheXvNpXVk3mze7MDP6LIpgi2RIExK5cwEfQfNYoUjzCAtuLa3te7St6XHTkze7MrPkvkljKJnzErlzAR9B81iizJmF7ccmrfWXVZJ7sjjz4/+CDD0a2JOEOlDcLv3QWscroLKtfOq9Ydjjt8UtnEauMzrL6pcuEZbvTB37pImHZ5rTRL51FrDI6y+qXzhJW2Zxl9EsXAcsmp21+6SJg2eS0zS+dF6xyO8vvl540Vnmc5fJL5x3LHqddfulxEelTn9Zg//Tp08a/r776qvHvAw88YPzrBz71GYwsfuaqSPaW9RNlYYCPoPmgjMuWMmsSthfX9rzaV1ZN5tluXvZIb/6vXbtGCwsLIkXG3zwPAAAAAAAAkF1Cv/nnb/1/97vf0dWrV6nb7Rp51WqVnnnmGfriF78Y6O0/f/P/3PPfEKl8w5+g3jv+WKSKT5HsLVvsogAfQfNZo8yahO3FtT2v9pVVk3m2m5c9Mz/4BQAAAAAAAKRL6ME/f7P/4IMPGm/9+Rt/vvG/eV7QNf8AAAAAAACA8RPpzf8XvvAF2tvbo69+9avGxv/meQAAAAAAAIDsEnnZD3/L/+STTxob3vgDAAAAAACQfWKt+eeDfgz8AQAAAAAAyAf4wS8AAAAAAAAlQfupz+PjY5GTPPv7+7S8vCxSAAAAAAAAgPQh+n/TTDkFReLRmAAAAABJRU5ErkJggg==;" vertex="1" parent="1">
                    <mxGeometry x="-250" y="-170" width="767" height="92" as="geometry"/>
                </mxCell>
                <mxCell id="4" value="" style="shape=image;verticalLabelPosition=bottom;labelBackgroundColor=default;verticalAlign=top;aspect=fixed;imageAspect=0;image=data:image/png,iVBORw0KGgoAAAANSUhEUgAAARMAAAEOCAYAAACq4fP9AAAAAXNSR0IArs4c6QAAAARnQU1BAACxjwv8YQUAAAAJcEhZcwAADsMAAA7DAcdvqGQAAB4aSURBVHhe7d1PbBvHvQfwr2IkaF+fivalp95kiyEEhdBFBkr1ZtiISPsBah7AnJ6LADXpwKgiCwjgAslJBRrAgCkbCBIpASL7FgFNVUAmFVjIzZIB62LQgaqQlnpqm4OiyM4/tE/lm9kdUhTJoUVydjlLfT/FopofmeX8htwfd4fe3Z6iAOWrr56ovw567rln1V9E3e+7777B7u4u+vr6VIQOg8WEqMre3v9hbu5Dp6DQ4bGYEJERz6j/JyJqy6H2TP7854/VX0RErl//+tfqL9ehi8mvfvUr1fLGn/70J89fg4jM+fGPf6z+cjVVTKr/Y5Nu3rxZU+mC6m9/+xt+/vOfq1aw2Z5LN411pSCOO+dMiMgIFhMiMoLFhIiMYDEhIiOCUUwK0xjp6UFPeRnBdEH3mHo8Wy+eQlY9f6S8AkHGRqaxv8qRA//dgee2q6a/ok/qIUc2VfGYWFL7j2r7VWcMyv+ZbnyMplSvXwVMj1S+ZsXjI+L5FePt9tFsnxxV76ujFKsZF/U+1MR1n7WK963ee1azHrmYzlGNcc1YiljF50bKpuTzUkjp3hMDHQvOnkk0jXyxCPnjUzGfwHyo4s2sfMxZVjARqhefQcx5fhKR+fN131i5YYTmExX/XQaRyyGzBaWyXxkgrj4MzkYZBzLl1y4igwUnz6f268D4pJGLVxSUeuPTrx5rk75fwMSKion+RCv6sLKygkzkMq6q/mWvXgbSt4z16dA078PBsaz4rPVPYKWci/tZavSeeTnujsIi5pEU/5vHYuXHU3y+k7mpA0VwKhdFFAN4Q/eeGOhYMA9z+sOIqD9bIwb1rQgulz7NZVm4n+sJ7A9tDDNi4DG/ePAbzpTYGJKr68iLtS/Oi9fOq4KnxGZku8l+qQ99bqrqW9m41scr9obqn/ygzybxlu+VpEr5fajS8LPW6D3zXkG+eOINjEVWxXBXjvYAxhLyLXBjslhHEiLgsWAWk+wCZqMDkDsfjtXLCFXutpW+YarjlbumsRnxDRLf//aWChvIRRM4V/25lh+oeh80AwrTU24u8ltmNYJwvW2qlX5VPqYbn3a1M16i4L0l9k7On59HJOPPxtdI+X1Q7bLqz1qlRu+Z5NW4O9xClhCDHxtLYrWqeIcm3hJ7iFedw/qpXBpvnFMPeCg4xaTyjZkaQH6l4tuweney9FjNbmbVN0jp21G1fVORi3OIUO6v5kPbLt34dJgcf7E54I1OVRLd+9Dos1at0Xvm5bg7hziqkDt7VVWHOuKTPpacRTwk9kre8uf9Dt6ciTzWM7WXIL4dbyXmcXWx1JbfqNVviuB8Axvc0Cs/ZKUPmO61pVb6ZbrP9fg1Xl6p9z5Ih/2sNXrPPCYPcVbLRS+OWVQf6rjFOookxnwq1sE7zJHzAXKyrPpXkBb1i91BXL4s3gopBvllefl85d5KFilR3cX+pMfVXb125cSykE3JdrP9ch/z/htJ3y+/vg0bqrOxOxthJHy4vj31s9boPfOSPMRZRTKjCqFcMrWHOk7/q/bGvRTMOZPYDPLpnHiTRzAtvzYqd0udRcUPJYYZ8UaU9E+sIC/2VvbX50zVG5ntfhrntZ289nOJY8z5MDy1XwfGYAoD+SJmSp+ieuNz4FPXOl2/yq/dUXIyWP4as5+7czjTTOcqP2vynxuIQunuEbgFo9F75tm4O4c46YOHh6VDHSO77K3hiX4eOLIn+sl/43AeuGVybuApeKJfZ/BEP/KW+oXG/TY2t/dDwcBiQkbFZkrH8Yb/gRZZj8WEiIxgMSEiI3gNWCJqSVvXgOWvOUSkw8McIjKCxYSIjGAxISIj2iom3333Hb7//nv8+9//VhEiOqra3jP57W9/iy+//BJ7e3sqYloWqQPXgRDt8rkOlSdU6eIl1evphHZzOUxcLFWX7PNGdS62sb1/rbI3r7aLyebmJn73u99hZ2fHeEFxLonnnF69L5tyTySTP0I5J1ipDUcXl+qtx28mctHmmF0ox4vFPNKVl+zzgA3j2Yjt/WuV7XkZmTORBWV8fBx/+ctf8K9//UtF2yfPyHSuKaHaYqvBwuz+9Rn6zyUQzW2IKq2Lq3bNevzXfi4NcozNVJylm8d6o6t/GWDDeDZie/9aZXtexiZgv/jiC2cP5fPPP8c///lPFfWYc72KOhev0cVt1mwuNfHS1eAXMObjNSyISowVE+mbb75xCsrjx4+N7qHQYfSrq8GPYYFn7FIHGC0mP/rRj/CHP/zB+Zeyzz77rIp6SHd5wKBcNrBSs7loc5TX/lzFeqB2y6gbGCsmpUISCoXw3HPPqahp7kVyF9S84/4l+HRxmzWbiz7HwnSqYk9Ezq1EMRCoSkpdoVhhZ+dx3WVubq64u7urnrXv22+/LZ46dar4m9/8pvjXv/61KA5t1CPNk69RLZ+OyvOGyksyI6OZYrIcS4pWiS6uW4+/zOSiiWeSKuYuXudnw3g2Ynv/WmV7Xm2d6Cf/0Zr8FUfukfz0pz/FsWPH1CPN44l+RMHW9mGOiUJCRMHXVjH54Q9/iJ/97GcsJETU3PVMvv76axUx786dOzzMIQowqy6O9N//87+qFWz/9Z/P4Muvu+PkR9tz6aaxrhSEca9m9N+ZENHRxWJCREawmBCRESwmRGREAIrJEiZPXceWajnt3mN43lkuYllF9fGS6vV0Qru52JSjn6/VCtv71yp787K6mGy980ux0ZzFTdWWlsfPAh/vYfvJHtbezuGV8aWGcaneevxmIhdbcrRhPBuxvX+tsj0vq4tJ36W72H5wDcOqLaty5sMLiJ9xW32xBIYfbogqrYurds16/Nd+LvbkaMN4NmJ7/1ple17BnjM5Hsbg/XU8Us0yXdxmzeYSxBypq3ECloiMCHYx2dzAZycHcEI1y3RxmzWbSxBzpK4WsGIyivir7yNzx21tZeex9mIYfdq4zZrNJYg50lFidTFxZq+HJrF2fxLDvccwKTak0zduAy+7P48OX4ngoxujznN1caneevxmIhdbcrRhPBuxvX+tsj2vHp7oZx5P9PMPT/TrDJ7oR0SeYTEhIiOaOszhxZGISMeqORMWE6Lg4mEOERnBYkJERrCYEJERLCZEZEQAikkWqZFp7N/UX7R7etDjLCnRKtHFS6rX0wnt5qKJF6YxUo73YGT/xsMesmE8G7G9f62yNy+ri0lhekRsHHHMqraUTcWBTFHeIxn5dA7xlLtJ6eJSvfX4zUQu2hzz64ioeLGYQeTy+YobmZtnw3g2Ynv/WmV7XlYXk/6JFRTzaURVW2xOWJhNYizmtvrPJRDNbYgqrYurds16/Nd+Lg1yjM1gRsWBEAY8TtSG8WzE9v61yva8gj1n0h9GZHUdedUs08Vt1mwuunhhEfNI4Fy/ahP5hBOwXUUcT4dEKbk1AdYS8luwi0lhA7nogNixr6KL26zZXGricnJ2CgP5FUywklAHBKyYxDCWnMWCmncsLM5jNRIW38K6uM2azaVBjs6vOSwk1GHFCjs7j+suc3Nzxd3dXfUsb8jXqJZPR+V5Q+UlmZHRTDFZjiVFq0QX163HX2ZyqR+vXrdcoum8etQ8G8azEdv71yrb8+KJfkRkBCdgicgIFhMiMoIXRyIiI3hBaQ/wgtL+4QWlO4MXlCYiz7CYEJERLCZEZASLCREZEYBisoTJU9expVpOu9e9RebzvRexrKLa+OZ1vFSOH8NL7zxSD3RCm7kcKi6W8SUV91J1LraxvX+tsjcvq4uJc2/V3rO4qdrS8vhZ4OM9bD/Zw9rbObyiNhxdHI/WMaji209uY/DKeby76T7kJxO5aHO8s1CObz/5HL9/OOVpjvVysYnt/WuV7XlZXUz6Lt3F9oNrGFZtWZUzH15A/Izb6oslMPxwQ1RpXVw48x6uqbi8cFDopPrTZ+3nctgc88jfjyB0XDU9UJuLXWzvX6tszyvYcybHwxi8v46aAxddfHMRC0hg1MMNrWXN5lITf4R3T8nDnAXEn7yH0ypK5JcjNAErjjWH5jH2wevoU5HucgKvfSoPc8aQ6f1lRw7l6GgLdjHZ3MBnJwfEZlSlJi4nKKcQenAXr9m4VyIdOhdFF8co4q/eQ75mV4bIWwErJnJDeR+ZO25rKzuPtRfDYk9DFxecX3NsLCTN5qLPceudixV7InJu5RcI1VYZIk9ZXUyc2euhSazdn8Rw7zFMig3p9I3bwMvuT6DDVyL46Mao81xd3NnocA9vDqmfTcXSiZ+HTeSii/e9gIr85C8+3hbOernYxPb+tcr2vHp4op95PNHPPzzRrzN4oh8ReYbFhIiMaOowhxdHIiIdq+ZMWEyIgouHOURkBIsJERnBYkJERrCYEJERASgmWaRGplFQLfcG3T3ocZaUaJVo4s59eEvxHoxM76/Jf23moot3JMfqXGxje/9aZW9eVheTwvSI2DjimFVtKZuKA5mivEcy8ukc4il3k9LFkV9HRMWLxQwil8+jE/XERC625FgvF5vY3r9W2Z6X1cWkf2IFxXwaUdUWmxMWZpMYi7mt/nMJRHMbokrr4kJsBjMqLi+ONLC/Ml+1n4s9OdbmYhfb+9cq2/MK9pxJfxiR1XXkVbNMFy8sYh4JnOtXbZs0m0sQc6SudoQmYMWxZkhsZrcm0L3b2VHIkWwV7GJS2EAuOiB27KvUxMVG1jOFgfwKJmzdyg6dixLEHKmrBayYxDCWnMWCmncsLM5jNRIW38K6uGzIXzps3MiazSWIOdKRUqyws/O47jI3N1fc3d1Vz/KGfI1q+XRUnjdUXpIZGc0Uk+VYUrRK6ser1yGXaDqvHvWPiVxsybF+LvawvX+tsj0vnuhHREYcoQlYIvISiwkRGcGLIxGREbygtAd4QWn/8ILSncELShORZ1hMiMgIFhMiMoLFhIiMCEAxWcLkqevYUi33JuSlW2FexLKKauPOvYZL8c7cGnRfm7lo4/uWx8VjB17DK9W52Mb2/rXK3rysLibOvVV7z+KmakvL4/JeunvYfrKHtbdzeGV8qWEcj9YxqOLbT25j8Mr5ipt8+8dELtocFVlIruIChlXbK/VysYnt/WuV7XlZXUz6Lt3F9oNrFRuHvMP/BcTPuK2+WALDDzdEldbFhTPv4ZqKywsHhU6qP33Wfi4NchTkB+1q+HN8MjGgIt6pzcUutvevVbbnFew5k+NhDN5fR82Biy6+uYgFJDB6XLVt0mwuFXFZSC7iFj65dMJ9jKgDjtAErDjWHJrH2Aevo09FusMjLP3xHtauvCB2gY/h+aFJrN2fxHBXzheQzYJdTDY38NnJAdR8H9fE5cTlFEIP7uI1G/dKpEPnopTjJ/Dap6U5IbHI3eCT17D2abcVTbJdwIrJKOKvvo/MHbe1lZ3H2othsdHo4oLza46NhaTZXBrkSGQBq4uJM3td2m0Xu/CTYkM6feM28LL78+jwlQg+ujHqPFcXdzY63MObQ+5jcunEz8MmctHF/VYvF5vY3r9W2Z5XD0/0M48n+vmHJ/p1Bk/0IyLPsJgQkRFNHebw4khEpGPVnAmLCVFw8TCHiIxgMSEiI1hMiMgIFhMiMiIAxSSL1Mg0Cqrl3qC7Bz3OkhKtEl28pHo9ndBuLpq4c6/hUrwHI9N+ZGnDeDZie/9aZW9eVheTwvSI2DjimFVtKZuKA5mivEcy8ukc4il3k9LFpXrr8ZuJXLQ55tcRUfFiMYPI5fPwsp7YMJ6N2N6/Vtmel9XFpH9iBcV8GlHVFpsTFmaTGIu5rf5zCURzG6JK6+KqXbMe/7WfS4McYzOYUXF5AagBjxO1YTwbsb1/rbI9r2DPmfSHEVldR141y3RxmzWbiy5eWMQ8EjjXr9pEPuEEbFcRx9MhUUpuTYC1hPwW7GJS2EAuOiB27Kvo4jZrNpeauJycncJAfgUTrCTUAQErJjGMJWexoOYdC4vzWI2ExbewLm6zZnNpkKPzaw4LCXVYscLOzuO6y9zcXHF3d1c9yxvyNarl01F53lB5SWZkNFNMlmNJ0SrRxXXr8ZeZXOrHq9ctl2g6rx41z4bxbMT2/rXK9rx4oh8RGcEJWCIygsWEiIzgxZGIyAheUNoDvKC0f3hB6c7gBaWJyDMsJkRkBIsJERnBYkJERgSgmCxh8sAd/eVNyEu3+ryIZRXVx0uq19MJ7eZiU45+vlYrbO9fq+zNy+pi4txbtfcsbqq2tDx+FvjYveP/2ts5vDK+1DAu1VuP30zkYkuONoxnI7b3r1W252V1Mem7dBfbD65hWLVlVc58eAHxM26rL5bA8MMNUaV1cdWuWY//2s/FnhxtGM9GbO9fq2zPK9hzJsfDGLy/jkeqWaaL26zZXIKYI3U1TsASkRHBLiabG/js5ABOqGaZLm6zZnMJYo7U1QJWTEYRf/V9ZO64ra3sPNZeDKNPG7dZs7kEMUc6SqwuJs7s9dAk1u5PYrj3GCbFhnT6xm3gZffn0eErEXx0Y9R5ri4u1VuP30zkYkuONoxnI7b3r1W259XDE/3M44l+/uGJfp3BE/2IyDMsJkRkRFOHObw4EhHpWDVnwmJCFFw8zCEiI1hMiMgIFhMiMoLFhIiMCEAxySI1Mo2Cark36O5Bj7OkRKtEFy+pXk8ntJvLYeJiSdVmb151LpZw7ru8PxYj09b1sDUByMvqYlKYHhEDF8esakvZVBzIFOU9kpFP5xBXG44uLtVbj99M5KLNMbtQjheLeaRzU/Dys2bDeGrl1xEpj0UGkcvnPR0L3wQgL6uLSf/ECor5NKKqLbYaLMwmMRZzW/3nEojmNsS3oy6u2jXr8V/7uTTIMTaDGRUXnzqsr0YQ7ldND9gwnloHxiKEASs72YIA5BXsOZP+MCKr62LzqaKL26zZXGriBUyPyF3gBYwVZ1D+3B1lhUXMI4FzHhbWjrA0L07Ado1+TKzIXeAxLPSMdMeufVuySIXEJndrQoxMN7E3r2AXk8IGctEBsdNXRRe3WbO5aHOMYSy5ivVA7ZaZJiekpzCQX8FEV1USu/MKWDGRG8osFtS8Y2FxHquRsKjQurjNms1Fn2NhOlWxJyLnVqIYCFQlNcj51aMLC0kQ8ipW2Nl5XHeZm5sr7u7uqmd5Q75GtXw6Ks8bKi/JjIxmislyLClaJbq4bj3+MpOLJp5Jqpi7eJ2fDeOpU903uUTTefVocAUhL57oR0RGcAKWiIxgMSEiI3hxJCIygheU9gAvKO0fXlC6M3hBaSLyDIsJERnBYkJERrCYEJERASgmS5g8dR1bquW0e91bZD7fexHLKqqPl1SvpxPazcWmHP18rSZsXsdL5TE6hpfeeaQeCLgA5GV1MXHurdp7FjdVW1oePwt8vIftJ3tYezuHV8aXGsaleuvxm4lcbMnRhvHUerSOQTVG209uY/DKeby7qR4LsgDkZXUx6bt0F9sPrmFYteW3YebDC4ifcVt9sQSGH26Ib0ddXLVr1uO/9nOxJ0cbxlPrzHu4psZIXkQodFL9GXQByCvYcybHwxi8v46aHT5d3GbN5hLEHP22uYgFJDB6XLW7haV5cQKWutQSJofmMfbB6+hTke5gb17BLiabG/js5ABOqGaZLm6zZnMJYo6+kRPVUwg9uIvXumqvxO68AlZMRhF/9X1k7ritrew81l4Miwqti9us2VyCmGMHOL96dGEhCUBeVhcT51eDoUms3Z/EcO8xTIoN6fSN28DL7s9jw1ci+OjGqPNcXVyqtx6/mcjFlhxtGE8dp8jiHt4ccsdJLt3w83AQ8urhiX7m8UQ///BEv87giX5E5BkWEyIyoqnDHF4ciYh0rJozYTEhCi4e5hCRESwmRGQEiwkRGfHMP/7xBUoLEVGrArBnkkVqZBr7N/WXN2/uQY+zpESrRBcvqV5PJ7Sbiybu3Ie2FO/ByP6Nhz1kw3jW0ZGx8EEA8rK6mBSmR8TAxTGr2lI2FQcyRXmPZOTTOcRT7iali0v11uM3E7loc8yvI6LixWIGkcvnK25kbp4N46nl81j4JgB5WV1M+idWUMynEVVtsTlhYTaJsZjb6j+XQDS3Ib4ddXHVrlmP/9rPpUGOsRnMqLi8cM6Ax4naMJ5aPo+FbwKQV7AnYPvDiKyuI6+aZbq4zZrNRRcvLGIeCZzrV+2jrFvHwtK8+GtOV8kiFRIfs1sTYC3p1rGwN69gF5PCBnLRAbHTV0UXt1mzudTE5eTsFAbyK5g48pWkW8fC7rwCVkxiGEvOYkHNOxYW57EaCYsKrYvbrNlcGuTozPSzkDi6dSyCkNff//6PYmnZ2Xlcd5mbmyvu7u4WvSRfo1o+HZXnDZWXZEZGM8VkOZYUrRJdXLcef5nJpX68et1yiabz6lHzbBhPHb/Hwi9ByKtHFhHRMccPfvAf6q+DeKIfET0NJ2CJyAgWEyIyoqnDHF4ciYh0rJoz4QWl7cMLSncGLyhNREcWiwkRGcFiQkRGsJgQkREBKCZLmDx1HVuq5d68uXSLxItYVlF9vKR6PZ3Qbi6auHMf2lLcr9tG2jCejdjev1bZm9cz8hec0mIb5562vWdxU7Wl5fGzwMd72H6yh7W3c3hlfKlhXKq3Hr+ZyEWb46N1DKr49pPbGLxyHu9uug95wYbxbMT2/rXK9rys3jPpu3QX2w+uYVi1ZVXOfHgB8TNuqy+WwPDDDVGldXHVrlmP/9rPpUGOZ97DNRWXF84JnVR/esSG8WzE9v61yva8gj1ncjyMwfvrqNmp18Vt1mwuuvjmIhaQwOhx1SbyCSdgu4o4nh6ax9gHr6NPRYj8EuxisrmBz04O4IRqluniNms2l5q4nJydQujBXbzGvRLqgIAVk1HEX30fmTtuays7j7UXw+JbWBe3WbO5NMjR+TWHhYQ665nvv/8WpcU2zuz10CTW7k9iuPcYJsWGdPrGbeBl9yfQ4SsRfHRj1HmuLi7VW4/fTOSiizuFBffw5pD7mFy8/HnYhvFsxPb+tcr2vHiinwd4op9/eKJfZ/BEPyLyDIsJERnBiyMRkRG8oDQRGcHDHCIygsWEiIxgMSEiI1hMiMiIABSTLFIj0yiolnvz5h70OEtKtEp08ZLq9XRCu7nYlKOfr9UK2/vXKnvzsrqYFKZHxEYTx6xqS9lUHMgUUSwWkU/nEE+5m5QuLtVbj99M5GJLjjaMZyO2969VtudldTHpn1hBMZ9GVLXF5oSF2STGYm6r/1wC0dyGqNK6uGrXrMd/7ediT442jGcjtvevVbbnFew5k/4wIqvryKtmmS5us2ZzCWKO1NU4AUtERgS7mBQ2kIsOIKSaZbq4zZrNJYg5UlcLWDGJYSw5iwU171hYnMdqJIx+bdxmzeYSxBzpSJHn5pSWnZ3HdZe5ubni7u5u0UvyNarl01F53lB5SWZkNFNMlmNJ0SrRxXXr8ZeZXOzI0YbxbMT2/rXK9rx4oh8RGcEJWCIygsWEiIzo+eqrr8qHOcVi/drCiyMR0dM0VUx4QenD4QWl/cMLSncGLyhNRJ5hMSEiI1hMiMgIFhMiMiIAxWQJk6euY0u13Pvq1rsNprxx9378+fElFS+pWk9HVPehss8XsayiTce1Y+IlG8azseVxMR6W97EVtuZldTFx7q3aexY3VdvxaB2DH+9h+4lcbmPwynm8uynidxaAcvxz/P7hlBsX6q7HZ/X6sDx+ttzntbdzeEUVwGbj2jHxiA3j+TRyg7uKCxhW7W5hc15WF5O+S3ex/eDawYE78x6unVF/I4TQSfXngXge+fsRhI67rbrr8VltH5aQ+fAC4qrPfbEEhh9uiG+bZuOCbkw8YsN4NiKL3dXw5/hkYkBFuoPteQV7zmRzEQtIYFQVDfEVjXdPyV39BcSfvIfTKhoIx8MYvL8uMqjSbLxmTI4WucFdxC18cumEinSHIOQV4GIijtmH5jH2wevoUxHgBF77VO7qjyHT+0tPd/XtVG9MjpJHWPrjPaxdeUF8oYgvlaFJrN2fxHDg502CkVdAi4mciJxC6MFdvFb3G3gU8VfvIe/HPKQpmxv47OSAKIdVDh1/2pgcBaUvE7XIQ7GT17D2adCLazDyCl4xcX65qN1ott65WLEnIucXfoGQ1Xu6suC9j8wdt7WVncfai2Hx4Wg2LmjGhMhPVhcT51eD0i6d2L2bFBuSsxHhHt4cknMj7iJ/Cu17ARUx+avH/oZVbz1+q9eH0zduAy+7fR6+EsFHN0ad5zYb142JV2wYT7IPT/TzAE/08w9P9OsMnuhHRJ5hMSEiI3hxJCIy4lDF5Cc/6VV/ERHVx8McIjKCxYSIjGAxISIjWEyIyAgWEyIygsWEiAwA/h+NK+8XRDIEYgAAAABJRU5ErkJggg==;" vertex="1" parent="1">
                    <mxGeometry x="780" y="-270" width="275" height="270" as="geometry"/>
                </mxCell>
            </root>
        </mxGraphModel>
    </diagram>
</mxfile>